<svg preserveAspectRatio="none" width="100%" height="100%" overflow="visible" style="display: block;" viewBox="0 0 1825.3 1452.24" fill="none" xmlns="http://www.w3.org/2000/svg">
<g id="Vector 4363" filter="url(#filter0_f_7021_17977)">
<path d="M738.169 417.866C579.335 182.793 438.897 193.692 387.291 229.082C386.525 229.608 385.824 230.293 385.252 231.025C292.048 350.176 581.833 398.188 478.168 497.866C429.835 544.34 218.168 445.866 242.168 605.866C266.168 765.866 362.168 677.866 478.168 813.866C594.168 949.866 474.169 889.866 242.169 917.866C10.1686 945.866 338.169 1137.87 386.169 1233.87C434.169 1329.87 818.168 1313.87 866.169 1137.87C907.107 987.759 977.318 957.866 1034.17 957.866C1186.17 957.866 1358.17 997.866 1586.17 917.866C1814.17 837.866 1490.17 585.866 1358.17 533.866C1226.17 481.866 1314.17 281.866 1146.17 181.866C1012.23 102.139 986.345 259.453 990.129 348.949C990.155 349.571 990.127 350.162 990.037 350.778C972.461 472.115 897.768 654.073 738.169 417.866Z" fill="url(#paint0_linear_7021_17977)"/>
</g>
<defs>
<filter id="filter0_f_7021_17977" x="-3.39185e-06" y="-5.67525e-07" width="1825.3" height="1452.24" filterUnits="userSpaceOnUse" color-interpolation-filters="sRGB">
<feFlood flood-opacity="0" result="BackgroundImageFix"/>
<feBlend mode="normal" in="SourceGraphic" in2="BackgroundImageFix" result="shape"/>
<feGaussianBlur stdDeviation="80" result="effect1_foregroundBlur_7021_17977"/>
</filter>
<linearGradient id="paint0_linear_7021_17977" x1="160" y1="726.122" x2="1665.3" y2="726.122" gradientUnits="userSpaceOnUse">
<stop stop-color="#508FD3"/>
<stop offset="1" stop-color="#2F4AE4"/>
</linearGradient>
</defs>
</svg>
