<svg preserveAspectRatio="none" width="100%" height="100%" overflow="visible" style="display: block;" viewBox="0 0 1757.3 1619" fill="none" xmlns="http://www.w3.org/2000/svg">
<g id="Vector 4353">
<path d="M369.399 927.652L308.799 698.702C265.444 534.905 396.939 773.155 386.665 659.842C376.391 546.529 422.424 640.23 444.199 744.827C465.974 849.424 440.089 651.126 454.473 572.678C468.856 494.231 435.98 773.155 468.856 707.782C501.733 642.409 489.404 762.26 522.28 744.827C555.157 727.394 546.938 720.857 598.307 812.38C649.676 903.902 643.512 786.231 674.334 607.544C705.155 428.856 676.388 679.455 791.456 773.155C906.523 866.856 729.812 698.702 873.646 389.635C1017.48 80.5682 1011.32 659.843 1011.32 786.231C1011.32 912.619 1122.27 760.081 1124.33 679.455C1126.38 598.828 1136.66 757.902 1225.01 812.38C1313.37 866.857 1249.67 698.702 1381.18 698.702C1512.68 698.702 1432.54 1128.35 1438.71 1185.01C1444.87 1241.66 1317.48 1269.99 1298.98 1097.84C1280.49 925.693 1136.66 1015.04 1136.66 1167.57C1136.66 1320.11 1095.56 1298.32 1011.32 1078.23C927.071 858.141 918.728 1028.31 818.044 1257.12C717.36 1485.92 729.812 1008.5 729.812 982.349C729.812 956.2 664.06 927.652 614.745 1167.57C565.431 1407.49 618.855 1028.11 569.54 912.618C525.916 810.453 522.49 962.364 522.28 1013.87V1028.11C522.28 1025.6 522.253 1020.59 522.28 1013.87V927.652C522.28 899.584 486.664 872.522 468.856 862.499L422.424 927.652V835.269L369.399 927.652Z" fill="url(#paint0_linear_0_8)"/>
</g>
<defs>
<filter id="filter0_f_0_8" x="1.95776e-07" y="-4.64317e-07" width="1757.3" height="1619" filterUnits="userSpaceOnUse" color-interpolation-filters="sRGB">
<feFlood flood-opacity="0" result="BackgroundImageFix"/>
<feBlend mode="normal" in="SourceGraphic" in2="BackgroundImageFix" result="shape"/>
<feGaussianBlur stdDeviation="150" result="effect1_foregroundBlur_0_8"/>
</filter>
<linearGradient id="paint0_linear_0_8" x1="662.656" y1="771.395" x2="1175.5" y2="502.421" gradientUnits="userSpaceOnUse">
<stop stop-color="#2569F4"/>
<stop offset="1" stop-color="#0053FF"/>
</linearGradient>
</defs>
</svg>
