<svg preserveAspectRatio="none" width="100%" height="100%" overflow="visible" style="display: block;" viewBox="0 0 967.092 969.534" fill="none" xmlns="http://www.w3.org/2000/svg">
<g id="Group" style="mix-blend-mode:normal">
<path id="Vector" opacity="0" d="M687.042 769.111C841.709 658.421 875.984 441.383 763.597 284.344C651.209 127.305 434.718 89.7323 280.051 200.423C125.383 311.113 91.108 528.151 203.496 685.19C315.883 842.229 532.374 879.802 687.042 769.111Z" fill="var(--fill-0, #0DB7CE)"/>
<path id="Vector_2" opacity="0" d="M686.85 768.196C841.276 657.68 875.703 441.271 763.746 284.833C651.79 128.396 435.844 91.1704 281.419 201.687C126.994 312.204 92.5666 528.613 204.523 685.05C316.48 841.487 532.425 878.713 686.85 768.196Z" fill="var(--fill-0, #0DB6CE)"/>
<path id="Vector_3" opacity="0.02" d="M686.659 767.282C840.842 656.938 875.422 441.158 763.896 285.323C652.37 129.487 436.97 92.6086 282.788 202.952C128.605 313.295 94.0252 529.075 205.551 684.911C317.077 840.746 532.477 877.625 686.659 767.282Z" fill="var(--fill-0, #0DB5CF)"/>
<path id="Vector_4" opacity="0.03" d="M686.482 766.369C840.422 656.199 875.155 441.048 764.059 285.814C652.964 130.58 438.11 94.049 284.17 204.219C130.23 314.388 95.4977 529.54 206.593 684.774C317.688 840.007 532.542 876.539 686.482 766.369Z" fill="var(--fill-0, #0DB4CF)"/>
<path id="Vector_5" opacity="0.04" d="M686.297 765.462C839.994 655.466 874.877 440.939 764.209 286.303C653.541 131.667 439.231 95.479 285.533 205.475C131.835 315.471 96.953 529.998 207.621 684.634C318.289 839.271 532.599 875.459 686.297 765.462Z" fill="var(--fill-0, #0DB3D0)"/>
<path id="Vector_6" opacity="0.05" d="M686.106 764.558C839.561 654.735 874.596 440.837 764.359 286.802C654.122 132.768 440.357 96.9271 286.902 206.75C133.447 316.572 98.4116 530.471 208.649 684.505C318.886 838.539 532.651 874.38 686.106 764.558Z" fill="var(--fill-0, #0DB2D0)"/>
<path id="Vector_7" opacity="0.05" d="M685.97 763.571C839.163 653.895 874.314 440.62 764.48 287.206C654.647 133.793 441.422 98.3362 288.228 208.012C135.035 317.688 99.8847 530.964 209.718 684.377C319.551 837.79 532.776 873.247 685.97 763.571Z" fill="var(--fill-0, #0DB1D1)"/>
<path id="Vector_8" opacity="0.06" d="M685.629 762.81C838.638 653.388 874.052 440.759 764.73 287.89C655.407 135.021 442.746 99.8001 289.738 209.222C136.73 318.644 101.315 531.273 210.638 684.142C319.96 837.011 532.621 872.232 685.629 762.81Z" fill="var(--fill-0, #0DB0D1)"/>
<path id="Vector_9" opacity="0.07" d="M685.483 761.863C838.23 652.588 873.76 440.581 764.841 288.333C655.923 136.085 443.801 101.249 291.055 210.524C138.308 319.799 102.778 531.806 211.697 684.054C320.615 836.302 532.737 871.138 685.483 761.863Z" fill="var(--fill-0, #0DAFD2)"/>
<path id="Vector_10" opacity="0.08" d="M685.371 760.839C837.856 651.711 873.499 440.323 764.981 288.691C656.463 137.06 444.879 102.604 292.394 211.732C139.909 320.86 104.267 532.248 212.784 683.88C321.302 835.511 532.886 869.967 685.371 760.839Z" fill="var(--fill-0, #0DAED2)"/>
<path id="Vector_11" opacity="0.09" d="M685.18 759.934C837.422 650.979 873.217 440.22 765.131 289.19C657.044 138.161 446.005 104.052 293.763 213.007C141.52 321.961 105.725 532.72 213.812 683.75C321.899 834.78 532.937 868.889 685.18 759.934Z" fill="var(--fill-0, #0DADD2)"/>
<path id="Vector_12" opacity="0.1" d="M684.995 759.027C836.994 650.246 872.942 440.116 765.286 289.688C657.63 139.26 447.137 105.498 295.137 214.279C143.137 323.06 107.189 533.191 214.846 683.619C322.502 834.047 532.995 867.808 684.995 759.027Z" fill="var(--fill-0, #0DACD3)"/>
<path id="Vector_13" opacity="0.11" d="M684.803 758.113C836.561 649.505 872.661 440.003 765.436 290.177C658.21 140.351 448.263 106.936 296.506 215.544C144.748 324.152 108.648 533.653 215.873 683.48C323.099 833.306 533.046 866.72 684.803 758.113Z" fill="var(--fill-0, #0DABD3)"/>
<path id="Vector_14" opacity="0.12" d="M684.612 757.188C836.127 648.754 872.38 439.88 765.585 290.656C658.79 141.432 449.389 108.364 297.874 216.798C146.359 325.232 110.107 534.106 216.901 683.33C323.696 832.555 533.097 865.622 684.612 757.188Z" fill="var(--fill-0, #0DAAD4)"/>
<path id="Vector_15" opacity="0.13" d="M684.433 756.289C835.705 648.029 872.108 439.78 765.741 291.153C659.373 142.526 450.515 109.803 299.243 218.063C147.97 326.324 111.568 534.572 217.935 683.199C324.302 831.826 533.16 864.55 684.433 756.289Z" fill="var(--fill-0, #0DA9D4)"/>
<path id="Vector_16" opacity="0.14" d="M684.25 755.369C835.28 647.282 871.835 439.662 765.898 291.637C659.962 143.611 451.649 111.235 300.62 219.322C149.59 327.409 113.034 535.029 218.971 683.054C324.908 831.079 533.22 863.455 684.25 755.369Z" fill="var(--fill-0, #0DA8D5)"/>
<path id="Vector_17" opacity="0.14" d="M684.059 754.454C834.846 646.54 871.554 439.549 766.048 292.126C660.542 144.702 452.775 112.673 301.988 220.586C151.201 328.5 114.493 535.491 219.999 682.914C325.505 830.338 533.271 862.367 684.059 754.454Z" fill="var(--fill-0, #0DA7D5)"/>
<path id="Vector_18" opacity="0.15" d="M683.858 753.529C834.402 645.789 871.263 439.426 766.188 292.605C661.112 145.783 453.891 114.101 303.347 221.841C152.802 329.581 115.942 535.943 221.017 682.765C326.092 829.587 533.313 861.269 683.858 753.529Z" fill="var(--fill-0, #0DA6D6)"/>
<path id="Vector_19" opacity="0.16" d="M683.672 752.622C833.975 645.056 870.987 439.322 766.343 293.102C661.698 146.882 455.023 115.547 304.721 223.114C154.419 330.68 117.406 536.414 222.05 682.634C326.695 828.853 533.37 860.188 683.672 752.622Z" fill="var(--fill-0, #0DA5D6)"/>
<path id="Vector_20" opacity="0.17" d="M683.487 751.716C833.547 644.323 870.71 439.214 766.493 293.591C662.276 147.969 456.144 116.977 306.084 224.37C156.024 331.763 118.861 536.872 223.078 682.494C327.295 828.117 533.427 859.108 683.487 751.716Z" fill="var(--fill-0, #0EA4D6)"/>
<path id="Vector_21" opacity="0.18" d="M683.296 750.791C833.113 643.572 870.428 439.091 766.642 294.07C662.856 149.05 457.27 118.406 307.452 225.625C157.635 332.844 120.32 537.324 224.106 682.345C327.892 827.366 533.479 858.01 683.296 750.791Z" fill="var(--fill-0, #0EA3D7)"/>
<path id="Vector_22" opacity="0.19" d="M683.119 749.878C832.693 642.833 870.161 438.981 766.806 294.562C663.45 150.143 458.41 119.846 308.835 226.892C159.26 333.937 121.792 537.789 225.148 682.208C328.503 826.627 533.544 856.924 683.119 749.878Z" fill="var(--fill-0, #0EA2D7)"/>
<path id="Vector_23" opacity="0.2" d="M682.928 748.963C832.26 642.092 869.88 438.868 766.955 295.051C664.03 151.234 459.536 121.284 310.204 228.156C160.871 335.028 123.251 538.251 226.176 682.068C329.101 825.885 533.595 855.835 682.928 748.963Z" fill="var(--fill-0, #0EA1D8)"/>
<path id="Vector_24" opacity="0.21" d="M682.736 748.039C831.826 641.34 869.599 438.745 767.105 295.53C664.611 152.315 460.662 122.712 311.572 229.411C162.483 336.109 124.709 538.704 227.204 681.919C329.698 825.134 533.647 854.737 682.736 748.039Z" fill="var(--fill-0, #0EA0D8)"/>
<path id="Vector_25" opacity="0.22" d="M682.545 747.124C831.392 640.599 869.318 438.633 767.255 296.019C665.191 153.406 461.788 124.15 312.941 230.675C164.094 337.2 126.168 539.166 228.231 681.78C330.295 824.393 533.698 853.649 682.545 747.124Z" fill="var(--fill-0, #0E9FD9)"/>
<path id="Vector_26" opacity="0.23" d="M682.366 746.225C830.97 639.874 869.046 438.533 767.41 296.517C665.774 154.501 462.914 125.589 314.309 231.94C165.705 338.291 127.629 539.632 229.265 681.648C330.901 823.664 533.761 852.576 682.366 746.225Z" fill="var(--fill-0, #0E9ED9)"/>
<path id="Vector_27" opacity="0.23" d="M682.175 745.3C830.537 639.123 868.765 438.41 767.56 296.996C666.354 155.582 464.04 127.017 315.678 233.194C167.316 339.372 129.088 540.085 230.293 681.499C331.498 822.913 533.813 851.478 682.175 745.3Z" fill="var(--fill-0, #0E9DD9)"/>
<path id="Vector_28" opacity="0.24" d="M681.992 744.38C830.111 638.376 868.492 438.291 767.717 297.479C666.943 156.667 465.174 128.449 317.055 234.453C168.935 340.457 130.554 540.541 231.329 681.354C332.104 822.166 533.872 850.384 681.992 744.38Z" fill="var(--fill-0, #0E9CDA)"/>
<path id="Vector_29" opacity="0.25" d="M681.801 743.465C829.678 637.634 868.211 438.179 767.867 297.968C667.523 157.758 466.3 129.887 318.423 235.718C170.546 341.548 132.013 541.004 232.357 681.214C332.701 821.425 533.924 849.295 681.801 743.465Z" fill="var(--fill-0, #0E9BDA)"/>
<path id="Vector_30" opacity="0.26" d="M681.615 742.548C829.25 636.891 867.935 438.064 768.022 298.456C668.109 158.847 467.432 131.323 319.798 236.98C172.163 342.637 133.477 541.464 233.391 681.073C333.304 820.682 533.981 848.205 681.615 742.548Z" fill="var(--fill-0, #0E9ADB)"/>
<path id="Vector_31" opacity="0.27" d="M681.43 741.642C828.822 636.158 867.658 437.956 768.172 298.945C668.686 159.933 468.552 132.753 321.16 238.237C173.768 343.72 134.933 541.922 234.418 680.934C333.904 819.945 534.038 847.125 681.43 741.642Z" fill="var(--fill-0, #0E99DB)"/>
<path id="Vector_32" opacity="0.28" d="M681.239 740.727C828.388 635.417 867.376 437.843 768.321 299.434C669.266 161.024 469.678 134.192 322.529 239.501C175.38 344.811 136.391 542.385 235.446 680.794C334.501 819.204 534.089 846.037 681.239 740.727Z" fill="var(--fill-0, #0E98DC)"/>
<path id="Vector_33" opacity="0.29" d="M681.054 739.81C827.96 634.674 867.101 437.729 768.477 299.921C669.853 162.113 470.81 135.628 323.903 240.764C176.996 345.9 137.856 542.845 236.48 680.653C335.104 818.461 534.147 844.946 681.054 739.81Z" fill="var(--fill-0, #0E97DC)"/>
<path id="Vector_34" opacity="0.3" d="M680.87 738.889C827.535 633.927 866.828 437.61 768.635 300.404C670.441 163.198 471.944 137.06 325.28 242.023C178.616 346.986 139.322 543.302 237.516 680.508C335.709 817.714 534.206 843.852 680.87 738.889Z" fill="var(--fill-0, #0E96DD)"/>
<path id="Vector_35" opacity="0.31" d="M680.679 737.975C827.101 633.186 866.547 437.498 768.784 300.894C671.021 164.289 473.07 138.498 326.649 243.287C180.227 348.076 140.781 543.764 238.544 680.368C336.307 816.973 534.258 842.764 680.679 737.975Z" fill="var(--fill-0, #0E95DD)"/>
<path id="Vector_36" opacity="0.32" d="M680.494 737.058C826.673 632.442 866.269 437.38 768.934 301.373C671.598 165.366 474.191 139.918 328.011 244.534C181.832 349.149 142.236 544.212 239.572 680.219C336.907 816.226 534.315 841.674 680.494 737.058Z" fill="var(--fill-0, #0E94DD)"/>
<path id="Vector_37" opacity="0.32" d="M680.309 736.151C826.246 631.709 865.994 437.275 769.089 301.87C672.185 166.465 475.323 141.365 329.386 245.807C183.449 350.248 143.701 544.683 240.605 680.088C337.51 815.493 534.372 840.593 680.309 736.151Z" fill="var(--fill-0, #0E93DE)"/>
<path id="Vector_38" opacity="0.33" d="M680.118 735.236C825.812 630.968 865.713 437.162 769.239 302.359C672.765 167.556 476.449 142.803 330.754 247.071C185.06 351.34 145.159 545.145 241.633 679.948C338.107 814.752 534.423 839.505 680.118 735.236Z" fill="var(--fill-0, #0E92DE)"/>
<path id="Vector_39" opacity="0.34" d="M679.926 734.312C825.378 630.217 865.432 437.04 769.388 302.838C673.345 168.637 477.575 144.231 332.123 248.326C186.671 352.421 146.618 545.598 242.661 679.799C338.704 814 534.475 838.406 679.926 734.312Z" fill="var(--fill-0, #0E91DF)"/>
<path id="Vector_40" opacity="0.35" d="M679.749 733.399C824.959 629.478 865.165 436.929 769.552 303.33C673.939 169.73 478.715 145.671 333.505 249.593C188.296 353.514 148.09 546.062 243.703 679.662C339.315 813.261 534.54 837.32 679.749 733.399Z" fill="var(--fill-0, #0E90DF)"/>
<path id="Vector_41" opacity="0.36" d="M679.564 732.492C824.531 628.745 864.887 436.821 769.702 303.819C674.516 170.817 479.835 147.101 334.868 250.849C189.902 354.597 149.546 546.52 244.731 679.523C339.916 812.525 534.597 836.24 679.564 732.492Z" fill="var(--fill-0, #0E8FE0)"/>
<path id="Vector_42" opacity="0.37" d="M679.373 731.568C824.097 627.993 864.606 436.698 769.851 304.298C675.097 171.898 480.961 148.529 336.237 252.104C191.513 355.678 151.004 546.973 245.759 679.373C340.513 811.774 534.649 835.142 679.373 731.568Z" fill="var(--fill-0, #0E8EE0)"/>
<path id="Vector_43" opacity="0.38" d="M679.182 730.653C823.663 627.252 864.324 436.586 770.001 304.787C675.677 172.989 482.087 149.968 337.605 253.368C193.124 356.769 152.463 547.435 246.786 679.234C341.11 811.032 534.7 834.053 679.182 730.653Z" fill="var(--fill-0, #0E8DE1)"/>
<path id="Vector_44" opacity="0.39" d="M678.996 729.746C823.236 626.519 864.049 436.481 770.156 305.284C676.263 174.088 483.219 151.414 338.98 254.641C194.741 357.868 153.927 547.906 247.82 679.103C341.713 810.299 534.757 832.973 678.996 729.746Z" fill="var(--fill-0, #0E8CE1)"/>
<path id="Vector_45" opacity="0.4" d="M678.805 728.821C822.802 625.768 863.768 436.358 770.306 305.764C676.843 175.169 484.345 152.842 340.348 255.895C196.352 358.949 155.386 548.358 248.848 678.953C342.31 809.548 534.809 831.875 678.805 728.821Z" fill="var(--fill-0, #0E8BE1)"/>
<path id="Vector_46" opacity="0.41" d="M678.628 727.909C822.382 625.029 863.498 436.244 770.463 306.247C677.429 176.249 485.473 154.266 341.719 257.146C197.965 360.026 156.849 548.81 249.884 678.808C342.919 808.805 534.874 830.789 678.628 727.909Z" fill="var(--fill-0, #0E8AE2)"/>
<path id="Vector_47" opacity="0.41" d="M678.437 726.994C821.949 624.288 863.217 436.132 770.613 306.736C678.009 177.34 486.599 155.704 343.088 258.411C199.576 361.117 158.308 549.273 250.912 678.668C343.516 808.064 534.925 829.7 678.437 726.994Z" fill="var(--fill-0, #0E89E2)"/>
<path id="Vector_48" opacity="0.42" d="M678.252 726.077C821.521 623.545 862.942 436.017 770.768 307.223C678.595 178.429 487.731 157.14 344.462 259.673C201.193 362.206 159.772 549.733 251.945 678.527C344.119 807.321 534.983 828.61 678.252 726.077Z" fill="var(--fill-0, #0E88E3)"/>
<path id="Vector_49" opacity="0.43" d="M678.061 725.162C821.087 622.803 862.661 435.905 770.918 307.712C679.175 179.52 488.857 158.579 345.831 260.938C202.804 363.297 161.231 550.196 252.973 678.388C344.716 806.58 535.034 827.522 678.061 725.162Z" fill="var(--fill-0, #0E87E3)"/>
<path id="Vector_50" opacity="0.44" d="M677.869 724.248C820.653 622.062 862.38 435.792 771.068 308.202C679.756 180.611 489.983 160.017 347.199 262.202C204.415 364.388 162.689 550.658 254.001 678.248C345.313 805.839 535.085 826.433 677.869 724.248Z" fill="var(--fill-0, #0E86E4)"/>
<path id="Vector_51" opacity="0.45" d="M677.69 723.339C820.231 621.327 862.108 435.682 771.223 308.689C680.339 181.696 491.109 161.445 348.568 263.457C206.027 365.469 164.15 551.114 255.035 678.107C345.919 805.1 535.148 825.351 677.69 723.339Z" fill="var(--fill-0, #0E85E4)"/>
<path id="Vector_52" opacity="0.46" d="M677.507 722.419C819.806 620.58 861.835 435.563 771.381 309.172C680.927 182.781 492.244 162.877 349.945 264.716C207.646 366.554 165.617 551.571 256.071 677.962C346.525 804.353 535.208 824.257 677.507 722.419Z" fill="var(--fill-0, #0E84E5)"/>
<path id="Vector_53" opacity="0.47" d="M677.316 721.504C819.372 619.839 861.554 435.451 771.53 309.661C681.507 183.872 493.37 164.315 351.313 265.98C209.257 367.645 167.076 552.033 257.099 677.823C347.122 803.612 535.259 823.169 677.316 721.504Z" fill="var(--fill-0, #0E83E5)"/>
<path id="Vector_54" opacity="0.48" d="M677.125 720.579C818.939 619.087 861.272 435.328 771.68 310.14C682.088 184.953 494.496 165.743 352.682 267.235C210.868 368.726 168.534 552.486 258.127 677.673C347.719 802.861 535.311 822.07 677.125 720.579Z" fill="var(--fill-0, #0E82E5)"/>
<path id="Vector_55" opacity="0.49" d="M676.939 719.672C818.511 618.354 860.997 435.223 771.835 310.638C682.674 186.052 495.628 167.19 354.056 268.508C212.485 369.825 169.998 552.956 259.16 677.542C348.322 802.128 535.368 820.99 676.939 719.672Z" fill="var(--fill-0, #0E81E6)"/>
<path id="Vector_56" opacity="0.5" d="M676.748 718.757C818.077 617.613 860.716 435.111 771.985 311.127C683.254 187.143 496.754 168.628 355.425 269.772C214.096 370.916 171.457 553.419 260.188 677.403C348.919 801.386 535.419 819.902 676.748 718.757Z" fill="var(--fill-0, #0E80E6)"/>
<path id="Vector_57" opacity="0.5" d="M676.563 717.841C817.649 616.87 860.438 434.993 772.135 311.606C683.831 188.22 497.874 170.048 356.788 271.019C215.701 371.989 172.912 553.867 261.216 677.253C349.519 800.64 535.477 818.811 676.563 717.841Z" fill="var(--fill-0, #0F80E7)"/>
<path id="Vector_58" opacity="0.51" d="M676.386 716.928C817.23 616.131 860.171 434.882 772.298 312.098C684.425 189.313 499.014 171.488 358.17 272.285C217.326 373.083 174.385 554.331 262.258 677.116C350.131 799.901 535.542 817.725 676.386 716.928Z" fill="var(--fill-0, #0F7FE7)"/>
<path id="Vector_59" opacity="0.52" d="M676.195 716.013C816.796 615.39 859.89 434.77 772.448 312.587C685.006 190.404 500.14 172.926 359.539 273.55C218.937 374.173 175.843 554.794 263.286 676.977C350.728 799.16 535.593 816.637 676.195 716.013Z" fill="var(--fill-0, #0F7EE8)"/>
<path id="Vector_60" opacity="0.53" d="M676.003 715.089C816.362 614.639 859.609 434.647 772.597 313.066C685.586 191.485 501.266 174.355 360.907 274.805C220.549 375.255 177.302 555.246 264.313 676.827C351.325 798.408 535.645 815.539 676.003 715.089Z" fill="var(--fill-0, #0F7DE8)"/>
<path id="Vector_61" opacity="0.54" d="M675.812 714.174C815.929 613.897 859.328 434.534 772.747 313.555C686.166 192.576 502.392 175.793 362.276 276.069C222.16 376.345 178.761 555.709 265.341 676.688C351.922 797.667 535.696 814.45 675.812 714.174Z" fill="var(--fill-0, #0F7CE8)"/>
<path id="Vector_62" opacity="0.55" d="M675.633 713.275C815.507 613.172 859.056 434.434 772.902 314.052C686.749 193.67 503.518 177.231 363.644 277.334C223.771 377.436 180.222 556.175 266.375 676.557C352.528 796.939 535.759 813.378 675.633 713.275Z" fill="var(--fill-0, #0F7BE9)"/>
<path id="Vector_63" opacity="0.56" d="M675.442 712.35C815.073 612.421 858.775 434.311 773.052 314.531C687.33 194.751 504.644 178.659 365.013 278.588C225.382 378.517 181.68 556.627 267.403 676.407C353.125 796.187 535.811 812.28 675.442 712.35Z" fill="var(--fill-0, #0F7AE9)"/>
<path id="Vector_64" opacity="0.57" d="M675.259 711.43C814.647 611.674 858.502 434.193 773.21 315.015C687.918 195.836 505.778 180.091 366.39 279.847C227.001 379.603 183.147 557.084 268.439 676.262C353.731 795.44 535.87 811.185 675.259 711.43Z" fill="var(--fill-0, #0F79EA)"/>
<path id="Vector_65" opacity="0.58" d="M675.068 710.515C814.214 610.933 858.22 434.08 773.359 315.504C688.498 196.927 506.904 181.529 367.758 281.112C228.612 380.694 184.606 557.546 269.467 676.123C354.328 794.699 535.921 810.097 675.068 710.515Z" fill="var(--fill-0, #0F78EA)"/>
<path id="Vector_66" opacity="0.59" d="M674.882 709.598C813.786 610.19 857.945 433.966 773.515 315.991C689.084 198.017 508.036 182.966 369.133 282.374C230.229 381.783 186.07 558.007 270.5 675.981C354.931 793.956 535.979 809.007 674.882 709.598Z" fill="var(--fill-0, #0F77EB)"/>
<path id="Vector_67" opacity="0.59" d="M674.697 708.692C813.358 609.457 857.667 433.858 773.664 316.48C689.661 199.103 509.157 184.396 370.495 283.631C231.834 382.866 187.525 558.465 271.528 675.842C355.531 793.219 536.036 807.926 674.697 708.692Z" fill="var(--fill-0, #0F76EB)"/>
<path id="Vector_68" opacity="0.6" d="M674.506 707.777C812.924 608.715 857.386 433.745 773.814 316.969C690.242 200.194 510.283 185.834 371.864 284.895C233.446 383.957 188.984 558.927 272.556 675.703C356.128 792.478 536.087 806.838 674.506 707.777Z" fill="var(--fill-0, #0F75EC)"/>
<path id="Vector_69" opacity="0.61" d="M674.321 706.86C812.497 607.972 857.111 433.63 773.969 317.457C690.828 201.283 511.415 187.27 373.238 286.158C235.062 385.046 190.448 559.388 273.59 675.561C356.731 791.735 536.145 805.748 674.321 706.86Z" fill="var(--fill-0, #0F74EC)"/>
<path id="Vector_70" opacity="0.62" d="M674.138 705.939C812.071 607.225 856.838 433.512 774.127 317.94C691.416 202.368 512.549 188.702 374.615 287.417C236.682 386.131 191.915 559.844 274.626 675.416C357.337 790.988 536.204 804.654 674.138 705.939Z" fill="var(--fill-0, #0F73EC)"/>
<path id="Vector_71" opacity="0.63" d="M673.946 705.025C811.637 606.484 856.557 433.399 774.277 318.429C691.997 203.459 513.675 190.141 375.984 288.681C238.293 387.222 193.373 560.307 275.654 675.277C357.934 790.247 536.255 803.565 673.946 705.025Z" fill="var(--fill-0, #0F72ED)"/>
<path id="Vector_72" opacity="0.64" d="M673.761 704.108C811.21 605.741 856.279 433.281 774.426 318.908C692.574 204.536 514.795 191.561 377.347 289.928C239.898 388.295 194.829 560.755 276.681 675.127C358.534 789.5 536.313 802.475 673.761 704.108Z" fill="var(--fill-0, #0F71ED)"/>
<path id="Vector_73" opacity="0.65" d="M673.576 703.201C810.782 605.008 856.004 433.176 774.582 319.406C693.16 205.635 515.927 193.007 378.721 291.2C241.515 389.394 196.293 561.225 277.715 674.996C359.137 788.767 536.37 801.395 673.576 703.201Z" fill="var(--fill-0, #0F70EE)"/>
<path id="Vector_74" opacity="0.66" d="M673.385 702.286C810.348 604.266 855.722 433.064 774.731 319.895C693.74 206.726 517.053 194.445 380.09 292.465C243.126 390.485 197.752 561.688 278.743 674.857C359.734 788.026 536.421 800.306 673.385 702.286Z" fill="var(--fill-0, #0F6FEE)"/>
<path id="Vector_75" opacity="0.67" d="M673.194 701.362C809.914 603.515 855.441 432.941 774.881 320.374C694.32 207.807 518.179 195.873 381.458 293.72C244.737 391.566 199.21 562.14 279.771 674.707C360.331 787.274 536.473 799.208 673.194 701.362Z" fill="var(--fill-0, #0F6EEF)"/>
<path id="Vector_76" opacity="0.68" d="M673.016 700.449C809.495 602.776 855.174 432.831 775.044 320.865C694.915 208.9 519.319 197.314 382.841 294.986C246.362 392.659 200.683 562.605 280.813 674.57C360.942 786.536 536.538 798.122 673.016 700.449Z" fill="var(--fill-0, #0F6DEF)"/>
<path id="Vector_77" opacity="0.68" d="M672.831 699.542C809.067 602.043 854.896 432.723 775.194 321.354C695.492 209.986 520.439 198.744 384.203 296.243C247.968 393.742 202.138 563.063 281.84 674.431C361.543 785.799 536.595 797.042 672.831 699.542Z" fill="var(--fill-0, #0F6CF0)"/>
<path id="Vector_78" opacity="0.69" d="M672.64 698.618C808.633 601.292 854.615 432.6 775.344 321.834C696.072 211.067 521.565 200.172 385.572 297.497C249.579 394.823 203.597 563.515 282.868 674.281C362.14 785.048 536.647 795.943 672.64 698.618Z" fill="var(--fill-0, #0F6BF0)"/>
<path id="Vector_79" opacity="0.7" d="M672.449 697.703C808.2 600.551 854.334 432.487 775.493 322.323C696.652 212.158 522.691 201.61 386.941 298.762C251.19 395.914 205.055 563.978 283.896 674.142C362.737 784.306 536.698 794.855 672.449 697.703Z" fill="var(--fill-0, #0F6AF0)"/>
<path id="Vector_80" opacity="0.71" d="M672.264 696.796C807.772 599.818 854.059 432.383 775.649 322.82C697.238 213.257 523.823 203.056 388.315 300.035C252.807 397.013 206.52 564.448 284.93 674.011C363.34 783.573 536.755 793.775 672.264 696.796Z" fill="var(--fill-0, #0F69F1)"/>
<path id="Vector_81" opacity="0.72" d="M672.072 695.871C807.338 599.066 853.778 432.26 775.798 323.299C697.819 214.338 524.949 204.484 389.684 301.289C254.418 398.094 207.978 564.901 285.958 673.861C363.937 782.822 536.807 792.676 672.072 695.871Z" fill="var(--fill-0, #0F68F1)"/>
<path id="Vector_82" opacity="0.73" d="M671.895 694.959C806.918 598.327 853.508 432.146 775.956 323.783C698.404 215.419 526.078 205.908 391.054 302.54C256.031 399.171 209.442 565.353 286.994 673.716C364.546 782.08 536.872 791.59 671.895 694.959Z" fill="var(--fill-0, #0F67F2)"/>
<path id="Vector_83" opacity="0.74" d="M671.704 694.044C806.485 597.586 853.227 432.033 776.106 324.272C698.984 216.51 527.204 207.347 392.423 303.804C257.642 400.262 210.9 565.815 288.022 673.577C365.143 781.338 536.923 790.502 671.704 694.044Z" fill="var(--fill-0, #0F66F2)"/>
<path id="Vector_84" opacity="0.75" d="M671.519 693.127C806.057 596.843 852.952 431.919 776.261 324.759C699.57 217.599 528.336 208.783 393.797 305.067C259.259 401.351 212.365 566.276 289.055 673.435C365.746 780.595 536.981 789.412 671.519 693.127Z" fill="var(--fill-0, #0F65F3)"/>
<path id="Vector_85" opacity="0.76" d="M671.328 692.212C805.623 596.102 852.671 431.806 776.411 325.248C700.151 218.69 529.462 210.221 395.166 306.332C260.87 402.443 213.823 566.738 290.083 673.296C366.343 779.854 537.032 788.323 671.328 692.212Z" fill="var(--fill-0, #0F64F3)"/>
<path id="Vector_86" opacity="0.77" d="M671.137 691.298C805.19 595.36 852.389 431.693 776.56 325.737C700.731 219.781 530.588 211.659 396.535 307.596C262.481 403.533 215.282 567.2 291.111 673.157C366.94 779.113 537.083 787.235 671.137 691.298Z" fill="var(--fill-0, #0F63F4)"/>
<path id="Vector_87" opacity="0.77" d="M670.951 690.381C804.762 594.617 852.114 431.579 776.716 326.225C701.317 220.87 531.72 213.095 397.909 308.859C264.098 404.623 216.746 567.661 292.145 673.015C367.543 778.37 537.141 786.145 670.951 690.381Z" fill="var(--fill-0, #0F62F4)"/>
<path id="Vector_88" opacity="0.78" d="M670.774 689.468C804.342 593.878 851.844 431.465 776.873 326.708C701.902 221.951 532.848 214.519 399.28 310.11C265.712 405.7 218.21 568.113 293.181 672.87C368.152 777.627 537.206 785.059 670.774 689.468Z" fill="var(--fill-0, #0F61F4)"/>
<path id="Vector_89" opacity="0.79" d="M670.583 688.554C803.908 593.137 851.563 431.352 777.023 327.197C702.483 223.042 533.974 215.958 400.648 311.374C267.323 406.791 219.668 568.576 294.208 672.731C368.749 776.886 537.257 783.97 670.583 688.554Z" fill="var(--fill-0, #0F60F5)"/>
<path id="Vector_90" opacity="0.8" d="M670.392 687.629C803.475 592.386 851.282 431.23 777.173 327.676C703.063 224.123 535.1 217.386 402.017 312.629C268.934 407.872 221.127 569.028 295.236 672.581C369.346 776.135 537.309 782.872 670.392 687.629Z" fill="var(--fill-0, #0F5FF5)"/>
<path id="Vector_91" opacity="0.81" d="M670.206 686.722C803.047 591.653 851.007 431.125 777.328 328.173C703.649 225.222 536.232 218.832 403.391 313.901C270.551 408.971 222.591 569.499 296.27 672.45C369.949 775.402 537.366 781.792 670.206 686.722Z" fill="var(--fill-0, #0F5EF6)"/>
<path id="Vector_92" opacity="0.82" d="M670.015 685.807C802.613 590.912 850.726 431.012 777.478 328.663C704.229 226.313 537.358 220.27 404.76 315.166C272.162 410.062 224.05 569.961 297.298 672.311C370.546 774.661 537.417 780.703 670.015 685.807Z" fill="var(--fill-0, #0F5DF6)"/>
<path id="Vector_93" opacity="0.83" d="M669.83 684.891C802.185 590.168 850.448 430.894 777.627 329.142C704.806 227.389 538.478 221.69 406.123 316.412C273.767 411.135 225.505 570.409 298.326 672.161C371.146 773.914 537.475 779.613 669.83 684.891Z" fill="var(--fill-0, #0F5CF7)"/>
<path id="Vector_94" opacity="0.84" d="M669.653 683.978C801.766 589.429 850.181 430.784 777.791 329.633C705.401 228.483 539.618 223.131 407.505 317.679C275.392 412.228 226.977 570.874 299.367 672.024C371.758 773.175 537.54 778.527 669.653 683.978Z" fill="var(--fill-0, #105BF7)"/>
<path id="Vector_95" opacity="0.85" d="M669.462 683.063C801.332 588.688 849.9 430.671 777.94 330.122C705.981 229.574 540.744 224.569 408.874 318.944C277.003 413.319 228.436 571.336 300.395 671.885C372.355 772.434 537.591 777.438 669.462 683.063Z" fill="var(--fill-0, #105AF7)"/>
<path id="Vector_96" opacity="0.86" d="M669.271 682.138C800.898 587.937 849.619 430.548 778.09 330.601C706.561 230.654 541.87 225.997 410.242 320.198C278.615 414.4 229.895 571.788 301.423 671.735C372.952 771.682 537.643 776.34 669.271 682.138Z" fill="var(--fill-0, #1059F8)"/>
<path id="Vector_97" opacity="0.86" d="M669.079 681.224C800.465 587.196 849.337 430.436 778.239 331.091C707.141 231.745 542.996 227.435 411.611 321.463C280.226 415.491 231.353 572.251 302.451 671.596C373.549 770.941 537.694 775.252 669.079 681.224Z" fill="var(--fill-0, #1058F8)"/>
<path id="Vector_98" opacity="0.87" d="M668.9 680.325C800.043 586.471 849.065 430.336 778.395 331.588C707.724 232.84 544.122 228.873 412.98 322.728C281.837 416.582 232.814 572.717 303.485 671.465C374.155 770.213 537.757 774.18 668.9 680.325Z" fill="var(--fill-0, #1057F9)"/>
<path id="Vector_99" opacity="0.88" d="M668.709 679.4C799.609 585.719 848.784 430.213 778.545 332.067C708.305 233.921 545.248 230.301 414.348 323.982C283.448 417.663 234.273 573.169 304.513 671.315C374.752 769.461 537.809 773.081 668.709 679.4Z" fill="var(--fill-0, #1056F9)"/>
<path id="Vector_100" opacity="0.89" d="M668.526 678.48C799.184 584.972 848.511 430.095 778.702 332.55C708.893 235.006 546.383 231.734 415.725 325.241C285.067 418.748 235.74 573.626 305.549 671.17C375.358 768.714 537.868 771.987 668.526 678.48Z" fill="var(--fill-0, #1055FA)"/>
<path id="Vector_101" opacity="0.9" d="M668.335 677.565C798.75 584.231 848.23 429.982 778.852 333.039C709.473 236.097 547.509 233.172 417.094 326.505C286.678 419.839 237.198 574.088 306.576 671.031C375.955 767.973 537.919 770.899 668.335 677.565Z" fill="var(--fill-0, #1054FA)"/>
<path id="Vector_102" opacity="0.91" d="M668.149 676.648C798.322 583.488 847.955 429.867 779.007 333.527C710.06 237.186 548.641 234.608 418.468 327.768C288.295 420.928 238.662 574.549 307.61 670.89C376.558 767.23 537.977 769.808 668.149 676.648Z" fill="var(--fill-0, #1053FB)"/>
<path id="Vector_103" opacity="0.92" d="M667.964 675.742C797.894 582.755 847.677 429.759 779.157 334.016C710.637 238.273 549.761 236.038 419.831 329.025C289.9 422.011 240.118 575.007 308.638 670.75C377.158 766.493 538.034 768.728 667.964 675.742Z" fill="var(--fill-0, #1052FB)"/>
<path id="Vector_104" opacity="0.93" d="M667.773 674.827C797.461 582.014 847.396 429.646 779.306 334.505C711.217 239.364 550.887 237.476 421.199 330.289C291.512 423.102 241.576 575.469 309.666 670.611C377.755 765.752 538.085 767.64 667.773 674.827Z" fill="var(--fill-0, #1051FB)"/>
<path id="Vector_105" opacity="0.94" d="M667.588 673.91C797.033 581.271 847.121 429.532 779.462 334.992C711.803 240.453 552.019 238.912 422.574 331.552C293.129 424.191 243.041 575.93 310.699 670.47C378.358 765.009 538.143 766.549 667.588 673.91Z" fill="var(--fill-0, #1050FC)"/>
<path id="Vector_106" opacity="0.95" d="M667.405 672.989C796.607 580.523 846.848 429.413 779.62 335.476C712.391 241.538 553.153 240.345 423.95 332.811C294.748 425.276 244.507 576.387 311.735 670.324C378.964 764.262 538.202 765.455 667.405 672.989Z" fill="var(--fill-0, #104FFC)"/>
<path id="Vector_107" opacity="0.95" d="M667.214 672.075C796.174 579.782 846.567 429.301 779.769 335.965C712.972 242.629 554.279 241.783 425.319 334.075C296.359 426.367 245.966 576.849 312.763 670.185C379.561 763.521 538.253 764.367 667.214 672.075Z" fill="var(--fill-0, #104EFD)"/>
<path id="Vector_108" opacity="0.96" d="M667.028 671.158C795.746 579.039 846.289 429.183 779.919 336.444C713.549 243.705 555.399 243.203 426.682 335.322C297.964 427.44 247.421 577.297 313.791 670.036C380.161 762.774 538.311 763.277 667.028 671.158Z" fill="var(--fill-0, #104DFD)"/>
<path id="Vector_109" opacity="0.97" d="M666.843 670.251C795.318 578.306 846.013 429.078 780.074 336.941C714.135 244.804 556.531 244.649 428.056 336.594C299.581 428.539 248.886 577.767 314.825 669.904C380.764 762.041 538.368 762.196 666.843 670.251Z" fill="var(--fill-0, #104CFE)"/>
<path id="Vector_110" opacity="0.98" d="M666.652 669.336C794.884 577.565 845.732 428.965 780.224 337.43C714.715 245.895 557.657 246.087 429.425 337.859C301.192 429.63 250.344 578.23 315.853 669.765C381.361 761.3 538.419 761.108 666.652 669.336Z" fill="var(--fill-0, #104BFE)"/>
<path id="Vector_111" opacity="0.99" d="M666.461 668.412C794.451 576.814 845.451 428.843 780.373 337.91C715.296 246.976 558.783 247.515 430.793 339.113C302.803 430.711 251.803 578.682 316.881 669.615C381.958 760.549 538.471 760.01 666.461 668.412Z" fill="var(--fill-0, #104AFF)"/>
<path id="Vector_112" d="M666.284 667.499C794.031 576.075 845.184 428.732 780.537 338.401C715.89 248.07 559.923 248.956 432.176 340.38C304.428 431.805 253.275 579.147 317.922 669.478C382.569 759.81 538.536 758.924 666.284 667.499Z" fill="var(--fill-0, #1049FF)"/>
<path id="Vector_113" d="M666.527 667.066C793.605 576.121 844.499 429.564 780.203 339.722C715.906 249.88 560.766 250.775 433.688 341.72C306.609 432.666 255.715 579.223 320.012 669.065C384.308 758.907 539.448 758.012 666.527 667.066Z" fill="var(--fill-0, #1148FE)"/>
<path id="Vector_114" d="M322.106 668.658C258.166 579.308 308.806 433.548 435.216 343.088C561.626 252.628 715.926 251.728 779.866 341.078C843.806 430.428 793.166 576.198 666.756 666.648C540.346 757.108 386.036 758.008 322.096 668.658H322.106Z" fill="var(--fill-0, #1147FD)"/>
<path id="Vector_115" d="M324.206 668.238C260.616 579.378 310.996 434.408 436.736 344.428C562.476 254.448 715.946 253.548 779.536 342.398C843.126 431.258 792.746 576.228 667.006 666.208C541.266 756.188 387.796 757.088 324.206 668.238Z" fill="var(--fill-0, #1246FC)"/>
<path id="Vector_116" d="M326.316 667.818C263.086 579.448 313.206 435.268 438.266 345.768C563.326 256.268 715.976 255.358 779.206 343.718C842.446 432.088 792.326 576.268 667.256 665.768C542.196 755.268 389.546 756.178 326.316 667.818Z" fill="var(--fill-0, #1345FB)"/>
<path id="Vector_117" d="M328.416 667.408C265.536 579.538 315.396 436.138 439.786 347.118C564.176 258.098 715.986 257.178 778.876 345.048C841.756 432.928 791.896 576.318 667.506 665.328C543.116 754.348 391.296 755.268 328.416 667.398V667.408Z" fill="var(--fill-0, #1344FA)"/>
<path id="Vector_118" d="M330.516 666.988C267.986 579.608 317.586 436.998 441.306 348.468C565.026 259.938 716.006 258.998 778.536 346.378C841.066 433.758 791.466 576.368 667.746 664.898C544.026 753.438 393.046 754.368 330.516 666.988Z" fill="var(--fill-0, #1444F9)"/>
<path id="Vector_119" d="M332.616 666.578C270.436 579.688 319.776 437.868 442.826 349.818C565.876 261.768 716.026 260.828 778.206 347.708C840.386 434.598 791.046 576.418 667.996 664.468C544.946 752.518 394.796 753.468 332.616 666.578Z" fill="var(--fill-0, #1543F8)"/>
<path id="Vector_120" d="M334.716 666.158C272.896 579.758 321.976 438.728 444.346 351.158C566.716 263.588 716.046 262.638 777.866 349.028C839.696 435.428 790.606 576.458 668.236 664.028C545.866 751.598 396.536 752.548 334.716 666.158Z" fill="var(--fill-0, #1642F7)"/>
<path id="Vector_121" d="M336.816 665.738C275.346 579.838 324.166 439.598 445.866 352.508C567.566 265.418 716.056 264.458 777.526 350.358C839.006 436.268 790.176 576.498 668.476 663.588C546.776 750.678 398.286 751.638 336.806 665.738H336.816Z" fill="var(--fill-0, #1641F6)"/>
<path id="Vector_122" d="M338.926 665.328C277.806 579.918 326.366 440.468 447.396 353.858C568.426 267.248 716.086 266.278 777.206 351.688C838.326 437.098 789.766 576.548 668.736 663.158C547.706 749.768 400.046 750.738 338.926 665.328Z" fill="var(--fill-0, #1740F5)"/>
<path id="Vector_123" d="M341.026 664.908C280.256 579.988 328.566 441.328 448.916 355.198C569.276 269.068 716.106 268.088 776.866 353.008C837.636 437.928 789.336 576.588 668.976 662.718C548.616 748.848 401.786 749.828 341.016 664.908H341.026Z" fill="var(--fill-0, #183FF4)"/>
<path id="Vector_124" d="M343.126 664.498C282.706 580.068 330.756 442.198 450.436 356.548C570.116 270.898 716.116 269.918 776.536 354.338C836.956 438.768 788.906 576.638 669.226 662.278C549.536 747.928 403.546 748.918 343.126 664.488V664.498Z" fill="var(--fill-0, #183EF3)"/>
<path id="Vector_125" d="M345.226 664.078C285.166 580.148 332.946 443.058 451.956 357.898C570.966 272.728 716.136 271.738 776.196 355.668C836.266 439.608 788.476 576.688 669.466 661.848C550.456 747.018 405.286 748.008 345.216 664.078H345.226Z" fill="var(--fill-0, #193DF2)"/>
<path id="Vector_126" d="M347.326 663.658C287.616 580.218 335.136 443.918 453.476 359.238C571.816 274.558 716.156 273.548 775.866 356.988C835.576 440.428 788.056 576.728 669.716 661.408C551.376 746.098 407.036 747.098 347.326 663.658Z" fill="var(--fill-0, #1A3CF1)"/>
<path id="Vector_127" d="M349.426 663.248C290.066 580.298 337.336 444.798 454.996 360.588C572.666 276.388 716.166 275.368 775.526 358.318C834.886 441.268 787.616 576.778 669.956 660.978C552.286 745.188 408.776 746.198 349.426 663.248Z" fill="var(--fill-0, #1A3BF0)"/>
<path id="Vector_128" d="M351.526 662.828C292.516 580.368 339.526 445.658 456.516 361.928C573.506 278.208 716.186 277.178 775.196 359.638C834.206 442.098 787.196 576.808 670.206 660.528C553.206 744.248 410.536 745.278 351.526 662.818V662.828Z" fill="var(--fill-0, #1B3BEF)"/>
<path id="Vector_129" d="M353.636 662.418C294.986 580.448 341.726 446.528 458.046 363.288C574.366 280.048 716.216 279.018 774.866 360.978C833.526 442.948 786.776 576.868 670.456 660.108C554.136 743.348 412.286 744.378 353.636 662.418Z" fill="var(--fill-0, #1C3AEE)"/>
<path id="Vector_130" d="M355.736 661.998C297.436 580.528 343.926 447.388 459.576 364.628C575.226 281.868 716.236 280.828 774.546 362.298C832.846 443.768 786.366 576.908 670.716 659.668C555.066 742.428 414.046 743.468 355.746 661.998H355.736Z" fill="var(--fill-0, #1C39ED)"/>
<path id="Vector_131" d="M357.836 661.578C299.886 580.598 346.116 448.248 461.096 365.968C576.076 283.688 716.256 282.638 774.206 363.618C832.156 444.598 785.926 576.948 670.956 659.228C555.976 741.508 415.796 742.558 357.846 661.578H357.836Z" fill="var(--fill-0, #1D38EC)"/>
<path id="Vector_132" d="M359.936 661.168C302.336 580.678 348.306 449.118 462.616 367.328C576.916 285.528 716.276 284.468 773.866 364.958C831.466 445.448 785.496 577.008 671.196 658.798C556.886 740.598 417.536 741.658 359.936 661.168Z" fill="var(--fill-0, #1E37EB)"/>
<path id="Vector_133" d="M362.036 660.748C304.796 580.748 350.496 449.988 464.136 368.668C577.766 287.348 716.286 286.278 773.536 366.278C830.786 446.278 785.076 577.048 671.446 658.358C557.816 739.678 419.286 740.748 362.046 660.748H362.036Z" fill="var(--fill-0, #1F36EA)"/>
<path id="Vector_134" d="M364.136 660.328C307.246 580.828 352.696 450.848 465.656 370.008C578.616 289.178 716.306 288.098 773.196 367.598C830.086 447.108 784.636 577.078 671.686 657.918C558.726 738.758 421.036 739.828 364.136 660.328Z" fill="var(--fill-0, #1F35E9)"/>
<path id="Vector_135" d="M366.236 659.918C309.696 580.908 354.886 451.718 467.176 371.358C579.466 291.008 716.326 289.918 772.866 368.928C829.406 447.938 784.216 577.128 671.936 657.478C559.646 737.838 422.786 738.918 366.246 659.908L366.236 659.918Z" fill="var(--fill-0, #2034E8)"/>
<path id="Vector_136" d="M368.346 659.498C312.156 580.978 357.086 452.578 468.706 372.708C580.316 292.838 716.346 291.738 772.536 370.258C828.726 448.778 783.796 577.178 672.176 657.048C560.556 736.928 424.526 738.018 368.336 659.498H368.346Z" fill="var(--fill-0, #2133E7)"/>
<path id="Vector_137" d="M370.446 659.088C314.606 581.058 359.286 453.448 470.226 374.058C581.166 294.668 716.366 293.558 772.206 371.588C828.046 449.618 783.376 577.228 672.426 656.618C561.486 736.008 426.286 737.118 370.446 659.088Z" fill="var(--fill-0, #2132E6)"/>
<path id="Vector_138" d="M372.546 658.668C317.066 581.138 361.476 454.308 471.746 375.398C582.016 296.488 716.386 295.378 771.866 372.908C827.346 450.448 782.936 577.268 672.666 656.178C562.396 735.088 428.026 736.198 372.546 658.668Z" fill="var(--fill-0, #2232E5)"/>
<path id="Vector_139" d="M374.646 658.248C319.516 581.208 363.666 455.168 473.266 376.748C582.866 298.318 716.406 297.198 771.536 374.238C826.666 451.278 782.516 577.318 672.916 655.738C563.316 734.168 429.776 735.288 374.646 658.248Z" fill="var(--fill-0, #2331E4)"/>
<path id="Vector_140" d="M376.746 657.838C321.966 581.288 365.856 456.048 474.786 378.098C583.706 300.148 716.416 299.018 771.196 375.568C825.976 452.118 782.086 577.358 673.156 655.308C564.226 733.258 431.526 734.388 376.746 657.838Z" fill="var(--fill-0, #2330E3)"/>
<path id="Vector_141" d="M378.846 657.418C324.416 581.358 368.056 456.908 476.306 379.438C584.556 301.968 716.436 300.828 770.866 376.888C825.296 452.948 781.656 577.398 673.406 654.868C565.156 732.338 433.276 733.478 378.846 657.418Z" fill="var(--fill-0, #242FE2)"/>
<path id="Vector_142" d="M380.946 657.008C326.876 581.448 370.246 457.778 477.826 380.788C585.406 303.798 716.456 302.648 770.526 378.218C824.606 453.788 781.226 577.448 673.646 654.438C566.066 731.428 435.016 732.578 380.946 657.008Z" fill="var(--fill-0, #252EE1)"/>
<path id="Vector_143" d="M383.056 656.588C329.336 581.518 372.446 458.638 479.356 382.138C586.266 305.638 716.476 304.478 770.196 379.548C823.916 454.618 780.806 577.498 673.896 653.998C566.986 730.508 436.766 731.658 383.046 656.588H383.056Z" fill="var(--fill-0, #252DE0)"/>
<path id="Vector_144" d="M385.156 656.168C331.786 581.588 374.646 459.498 480.876 383.478C587.106 307.458 716.496 306.288 769.866 380.868C823.236 455.448 780.386 577.538 674.146 653.558C567.906 729.588 438.526 730.748 385.156 656.168Z" fill="var(--fill-0, #262CDF)"/>
<path id="Vector_145" d="M387.256 655.758C334.236 581.668 376.836 460.368 482.396 384.828C587.956 309.288 716.516 308.108 769.526 382.198C822.546 456.288 779.946 577.588 674.386 653.128C568.826 728.668 440.266 729.848 387.246 655.758H387.256Z" fill="var(--fill-0, #272BDE)"/>
<path id="Vector_146" d="M389.356 655.338C336.696 581.738 379.026 461.238 483.916 386.168C588.806 311.108 716.526 309.918 769.196 383.518C821.866 457.118 779.526 577.628 674.636 652.678C569.746 727.738 442.016 728.928 389.356 655.328V655.338Z" fill="var(--fill-0, #282ADD)"/>
<path id="Vector_147" d="M391.456 654.928C339.146 581.828 381.216 462.108 485.436 387.528C589.656 312.948 716.546 311.748 768.856 384.858C821.166 457.958 779.096 577.678 674.876 652.258C570.656 726.838 443.766 728.038 391.446 654.928H391.456Z" fill="var(--fill-0, #2829DC)"/>
<path id="Vector_148" d="M393.556 654.508C341.596 581.898 383.416 462.968 486.956 388.868C590.506 314.768 716.566 313.568 768.526 386.178C820.486 458.788 778.666 577.718 675.126 651.818C571.576 725.918 445.516 727.118 393.556 654.518V654.508Z" fill="var(--fill-0, #2929DB)"/>
<path id="Vector_149" d="M395.656 654.088C344.046 581.968 385.606 463.828 488.476 390.208C591.346 316.588 716.576 315.378 768.186 387.498C819.796 459.618 778.236 577.758 675.366 651.378C572.486 724.998 447.256 726.208 395.656 654.098V654.088Z" fill="var(--fill-0, #2A28DA)"/>
<path id="Vector_150" d="M397.766 653.678C346.506 582.048 387.806 464.698 490.006 391.568C592.206 318.428 716.606 317.208 767.866 388.838C819.126 460.468 777.826 577.818 675.626 650.948C573.426 724.088 449.026 725.308 397.766 653.688V653.678Z" fill="var(--fill-0, #2A27D9)"/>
<path id="Vector_151" d="M399.866 653.258C348.966 582.128 390.006 465.558 491.526 392.908C593.056 320.258 716.626 319.018 767.526 390.158C818.426 461.298 777.396 577.858 675.866 650.508C574.336 723.168 450.766 724.398 399.866 653.268V653.258Z" fill="var(--fill-0, #2B26D8)"/>
<path id="Vector_152" d="M401.966 652.848C351.416 582.208 392.196 466.438 493.056 394.258C593.916 322.088 716.646 320.848 767.206 391.488C817.756 462.128 776.976 577.908 676.126 650.078C575.266 722.258 452.526 723.488 401.976 652.858L401.966 652.848Z" fill="var(--fill-0, #2C25D7)"/>
<path id="Vector_153" d="M404.066 652.428C353.866 582.278 394.386 467.298 494.576 395.598C594.756 323.908 716.666 322.658 766.866 392.798C817.066 462.948 776.546 577.928 676.366 649.618C576.176 721.318 454.276 722.558 404.076 652.418L404.066 652.428Z" fill="var(--fill-0, #2C24D7)"/>
<path id="Vector_154" d="M406.166 652.008C356.316 582.348 396.576 468.158 496.096 396.948C595.606 325.738 716.686 324.478 766.526 394.128C816.376 463.788 776.116 577.978 676.606 649.188C577.096 720.398 456.016 721.658 406.166 652.008Z" fill="var(--fill-0, #2D23D6)"/>
<path id="Vector_155" d="M408.266 651.598C358.776 582.438 398.776 469.028 497.616 398.298C596.456 327.568 716.706 326.298 766.196 395.458C815.686 464.628 775.686 578.028 676.856 648.758C578.016 719.488 457.766 720.758 408.276 651.598H408.266Z" fill="var(--fill-0, #2E22D5)"/>
<path id="Vector_156" d="M410.366 651.178C361.226 582.508 400.966 469.888 499.136 399.638C597.306 329.388 716.716 328.108 765.856 396.778C814.996 465.448 775.256 578.068 677.096 648.318C578.926 718.568 459.506 719.848 410.366 651.178Z" fill="var(--fill-0, #2E21D4)"/>
<path id="Vector_157" d="M412.476 650.758C363.686 582.578 403.166 470.748 500.666 400.978C598.156 331.208 716.746 329.928 765.536 398.098C814.326 466.278 774.846 578.108 677.356 647.868C579.856 717.638 461.276 718.918 412.486 650.748L412.476 650.758Z" fill="var(--fill-0, #2F20D3)"/>
<path id="Vector_158" d="M414.576 650.348C366.136 582.658 405.366 471.618 502.186 402.338C599.006 333.048 716.766 331.758 765.196 399.438C813.636 467.128 774.416 578.168 677.596 647.448C580.776 716.738 463.016 718.028 414.576 650.348Z" fill="var(--fill-0, #3020D2)"/>
<path id="Vector_159" d="M416.676 649.928C368.596 582.728 407.556 472.488 503.706 403.678C599.856 334.868 716.776 333.568 764.866 400.758C812.956 467.958 773.986 578.208 677.836 647.008C581.686 715.818 464.756 717.118 416.676 649.928Z" fill="var(--fill-0, #301FD1)"/>
<path id="Vector_160" d="M418.776 649.518C371.046 582.818 409.746 473.358 505.226 405.028C600.706 336.708 716.796 335.388 764.526 402.088C812.256 468.788 773.556 578.248 678.076 646.578C582.596 714.908 466.506 716.218 418.776 649.518Z" fill="var(--fill-0, #311ED0)"/>
<path id="Vector_161" d="M420.876 649.098C373.496 582.888 411.936 474.218 506.746 406.378C601.546 338.538 716.816 337.208 764.196 403.418C811.576 469.628 773.136 578.298 678.326 646.138C583.516 713.988 468.256 715.308 420.876 649.098Z" fill="var(--fill-0, #321DCF)"/>
<path id="Vector_162" d="M422.976 648.678C375.946 582.958 414.136 475.078 508.266 407.718C602.396 340.358 716.826 339.028 763.856 404.738C810.886 470.458 772.696 578.338 678.566 645.698C584.436 713.068 469.996 714.388 422.976 648.678Z" fill="var(--fill-0, #331CCE)"/>
<path id="Vector_163" d="M425.076 648.268C378.406 583.038 416.326 475.948 509.786 409.068C603.246 342.188 716.846 340.848 763.526 406.068C810.206 471.298 772.276 578.388 678.816 645.268C585.356 712.148 471.756 713.488 425.076 648.268Z" fill="var(--fill-0, #331BCD)"/>
<path id="Vector_164" d="M427.186 647.848C380.866 583.118 418.526 476.808 511.316 410.408C604.106 344.008 716.876 342.658 763.196 407.388C809.516 472.118 771.856 578.428 679.066 644.818C586.276 711.218 473.506 712.568 427.186 647.838V647.848Z" fill="var(--fill-0, #341ACC)"/>
<path id="Vector_165" d="M429.286 647.438C383.316 583.198 420.726 477.688 512.836 411.768C604.946 345.848 716.886 344.488 762.856 408.728C808.826 472.968 771.426 578.488 679.306 644.398C587.186 710.318 475.246 711.678 429.276 647.438H429.286Z" fill="var(--fill-0, #3519CB)"/>
<path id="Vector_166" d="M431.386 647.018C385.766 583.268 422.916 478.548 514.356 413.108C605.796 347.668 716.906 346.298 762.526 410.048C808.146 473.798 770.996 578.518 679.556 643.958C588.116 709.398 477.006 710.758 431.386 647.018Z" fill="var(--fill-0, #3518CA)"/>
<path id="Vector_167" d="M433.486 646.598C388.216 583.338 425.106 479.408 515.876 414.448C606.646 349.488 716.926 348.118 762.186 411.368C807.456 474.628 770.566 578.558 679.796 643.518C589.026 708.478 478.746 709.848 433.476 646.598H433.486Z" fill="var(--fill-0, #3617C9)"/>
<path id="Vector_168" d="M435.586 646.188C390.676 583.428 427.296 480.278 517.396 415.808C607.496 351.338 716.936 349.948 761.856 412.708C806.766 475.478 770.146 578.618 680.046 643.088C589.946 707.568 480.496 708.948 435.586 646.188Z" fill="var(--fill-0, #3717C8)"/>
<path id="Vector_169" d="M437.686 645.768C393.126 583.498 429.496 481.138 518.916 417.148C608.336 353.158 716.956 351.758 761.516 414.028C806.076 476.298 769.706 578.658 680.286 642.648C590.856 706.648 482.236 708.038 437.676 645.768H437.686Z" fill="var(--fill-0, #3716C7)"/>
<path id="Vector_170" d="M439.786 645.358C395.576 583.578 431.686 482.008 520.436 418.498C609.186 354.988 716.976 353.578 761.186 415.358C805.396 477.138 769.286 578.708 680.536 642.218C591.776 705.738 483.996 707.138 439.786 645.358Z" fill="var(--fill-0, #3815C6)"/>
<path id="Vector_171" d="M441.896 644.938C398.036 583.648 433.886 482.878 521.966 419.838C610.046 356.808 716.996 355.398 760.856 416.678C804.716 477.968 768.866 578.748 680.786 641.778C592.706 704.808 485.746 706.218 441.896 644.938Z" fill="var(--fill-0, #3914C5)"/>
<path id="Vector_172" d="M443.996 644.518C400.496 583.718 436.086 483.738 523.486 421.188C610.896 358.638 717.016 357.218 760.526 418.008C804.026 478.808 768.446 578.798 681.036 641.338C593.626 703.888 487.496 705.308 443.996 644.518Z" fill="var(--fill-0, #3913C4)"/>
<path id="Vector_173" d="M446.096 644.108C402.946 583.808 438.276 484.608 525.016 422.538C611.746 360.468 717.046 359.038 760.196 419.338C803.346 479.638 768.016 578.838 681.286 640.908C594.546 702.978 489.256 704.408 446.106 644.108H446.096Z" fill="var(--fill-0, #3A12C3)"/>
<path id="Vector_174" d="M448.196 643.688C405.396 583.878 440.466 485.468 526.536 423.878C612.596 362.288 717.066 360.848 759.866 420.658C802.666 480.468 767.596 578.878 681.536 640.468C595.466 702.058 491.006 703.498 448.206 643.688H448.196Z" fill="var(--fill-0, #3B11C2)"/>
<path id="Vector_175" d="M450.296 643.278C407.846 583.958 442.656 486.338 528.056 425.228C613.446 364.118 717.076 362.668 759.526 421.988C801.976 481.308 767.166 578.928 681.776 640.028C596.386 701.138 492.746 702.588 450.306 643.268L450.296 643.278Z" fill="var(--fill-0, #3C10C1)"/>
<path id="Vector_176" d="M452.396 642.858C410.306 584.028 444.856 487.198 529.576 426.578C614.296 365.948 717.096 364.498 759.186 423.318C801.276 482.148 766.726 578.978 682.016 639.598C597.296 700.228 494.496 701.678 452.396 642.858Z" fill="var(--fill-0, #3C0FC0)"/>
<path id="Vector_177" d="M454.506 642.438C412.766 584.108 447.056 488.058 531.106 427.918C615.146 367.778 717.126 366.308 758.866 424.638C800.606 482.968 766.316 579.018 682.276 639.158C598.226 699.308 496.256 700.768 454.516 642.438H454.506Z" fill="var(--fill-0, #3D0EBF)"/>
<path id="Vector_178" d="M456.606 642.028C415.216 584.188 449.246 488.938 532.626 429.268C615.996 369.608 717.136 368.128 758.526 425.968C799.916 483.808 765.886 579.068 682.516 638.728C599.136 698.398 497.996 699.868 456.606 642.028Z" fill="var(--fill-0, #3E0EBE)"/>
<path id="Vector_179" d="M458.706 641.608C417.666 584.258 451.446 489.798 534.146 430.618C616.846 371.438 717.156 369.948 758.196 427.298C799.236 484.648 765.456 579.108 682.766 638.288C600.066 697.478 499.756 698.958 458.716 641.608H458.706Z" fill="var(--fill-0, #3E0DBD)"/>
<path id="Vector_180" d="M460.806 641.198C420.116 584.338 453.636 490.668 535.666 431.968C617.696 373.268 717.176 371.768 757.856 428.628C798.546 485.488 765.026 579.158 683.006 637.858C600.976 696.558 501.496 698.048 460.806 641.198Z" fill="var(--fill-0, #3F0CBC)"/>
<path id="Vector_181" d="M462.906 640.778C422.576 584.418 455.826 491.528 537.186 433.308C618.546 375.088 717.186 373.588 757.526 429.948C797.856 486.308 764.606 579.198 683.246 637.418C601.886 695.638 503.236 697.138 462.906 640.778Z" fill="var(--fill-0, #400BBB)"/>
<path id="Vector_182" d="M465.006 640.358C425.026 584.488 458.016 492.388 538.706 434.648C619.386 376.908 717.206 375.398 757.186 431.268C797.166 487.138 764.176 579.238 683.486 636.968C602.796 694.708 504.986 696.218 464.996 640.348L465.006 640.358Z" fill="var(--fill-0, #400ABA)"/>
<path id="Vector_183" d="M467.106 639.948C427.476 584.568 460.216 493.258 540.226 436.008C620.236 378.748 717.226 377.228 756.856 432.608C796.486 487.988 763.746 579.298 683.736 636.548C603.726 693.808 506.736 695.328 467.106 639.948Z" fill="var(--fill-0, #4109B9)"/>
<path id="Vector_184" d="M469.216 639.528C429.936 584.638 462.416 494.128 541.756 437.348C621.096 380.568 717.246 379.038 756.526 433.928C795.806 488.818 763.326 579.338 683.986 636.108C604.646 692.888 508.486 694.418 469.216 639.528Z" fill="var(--fill-0, #4208B8)"/>
<path id="Vector_185" d="M471.316 639.108C432.396 584.718 464.606 494.988 543.276 438.688C621.946 382.398 717.266 380.858 756.196 435.248C795.116 489.638 762.906 579.378 684.236 635.668C605.566 691.968 510.236 693.498 471.316 639.108Z" fill="var(--fill-0, #4207B7)"/>
<path id="Vector_186" d="M473.416 638.698C434.846 584.798 466.806 495.858 544.796 440.048C622.786 384.238 717.286 382.688 755.856 436.588C794.426 490.488 762.466 579.428 684.476 635.238C606.476 691.058 511.986 692.598 473.416 638.698Z" fill="var(--fill-0, #4306B6)"/>
<path id="Vector_187" d="M475.516 638.278C437.296 584.868 468.996 496.718 546.316 441.388C623.636 386.058 717.296 384.498 755.516 437.908C793.736 491.318 762.036 579.468 684.716 634.798C607.396 690.138 513.726 691.688 475.506 638.278H475.516Z" fill="var(--fill-0, #4405B5)"/>
<path id="Vector_188" d="M477.616 637.868C439.746 584.948 471.186 497.588 547.836 442.738C624.486 387.888 717.316 386.318 755.186 439.238C793.056 492.158 761.616 579.518 684.966 634.368C608.316 689.218 515.476 690.788 477.616 637.868Z" fill="var(--fill-0, #4505B4)"/>
<path id="Vector_189" d="M479.716 637.448C442.206 585.018 473.376 498.448 549.356 444.078C625.336 389.708 717.336 388.128 754.846 440.558C792.356 492.988 761.186 579.558 685.206 633.928C609.226 688.298 517.226 689.878 479.706 637.448H479.716Z" fill="var(--fill-0, #4504B3)"/>
<path id="Vector_190" d="M481.816 637.028C444.656 585.098 475.576 499.318 550.876 445.428C626.176 391.538 717.356 389.958 754.516 441.888C791.676 493.818 760.756 579.608 685.456 633.488C610.146 687.378 518.976 688.958 481.816 637.028Z" fill="var(--fill-0, #4603B2)"/>
<path id="Vector_191" d="M483.926 636.618C447.116 585.178 477.776 500.188 552.406 446.778C627.036 393.368 717.376 391.778 754.186 443.218C790.996 494.658 760.336 579.658 685.706 633.058C611.076 686.468 520.726 688.058 483.916 636.628L483.926 636.618Z" fill="var(--fill-0, #4702B1)"/>
<path id="Vector_192" d="M486.026 636.198C449.566 585.248 479.966 501.048 553.926 448.118C627.886 395.188 717.396 393.588 753.856 444.538C790.316 495.488 759.916 579.688 685.956 632.618C611.996 685.548 522.486 687.148 486.026 636.208V636.198Z" fill="var(--fill-0, #4701B0)"/>
<path id="Vector_193" d="M488.126 635.788C452.016 585.328 482.166 501.918 555.446 449.468C628.736 397.018 717.416 395.408 753.516 445.868C789.616 496.328 759.476 579.738 686.196 632.178C612.906 684.628 524.226 686.238 488.116 635.788H488.126Z" fill="var(--fill-0, #4800AF)"/>
</g>
</svg>
