<svg preserveAspectRatio="none" width="100%" height="100%" overflow="visible" style="display: block;" viewBox="0 0 1358.56 1352.63" fill="none" xmlns="http://www.w3.org/2000/svg">
<g id="Group" style="mix-blend-mode:normal">
<path id="Vector" opacity="0" d="M965.147 1073.01C1182.42 918.585 1230.57 615.789 1072.69 396.698C914.81 177.608 610.686 125.188 393.411 279.616C176.136 434.044 127.987 736.84 285.868 955.931C443.748 1175.02 747.872 1227.44 965.147 1073.01Z" fill="var(--fill-0, #0DB7CE)"/>
<path id="Vector_2" opacity="0" d="M964.878 1071.74C1181.81 917.551 1230.18 615.631 1072.9 397.381C915.625 179.13 612.268 127.195 395.334 281.38C178.399 435.566 130.036 737.485 287.312 955.736C444.587 1173.99 747.944 1225.92 964.878 1071.74Z" fill="var(--fill-0, #0DB6CE)"/>
<path id="Vector_3" opacity="0.02" d="M964.61 1070.46C1181.2 916.516 1229.78 615.474 1073.11 398.063C916.44 180.652 613.85 129.201 397.256 283.145C180.663 437.088 132.085 738.131 288.756 955.542C445.426 1172.95 748.016 1224.4 964.61 1070.46Z" fill="var(--fill-0, #0DB5CF)"/>
<path id="Vector_4" opacity="0.03" d="M964.361 1069.19C1180.61 915.486 1229.41 615.32 1073.34 398.749C917.275 182.177 615.451 131.211 399.198 284.912C182.946 438.614 134.154 738.779 290.219 955.35C446.284 1171.92 748.108 1222.89 964.361 1069.19Z" fill="var(--fill-0, #0DB4CF)"/>
<path id="Vector_5" opacity="0.04" d="M964.1 1067.92C1180.01 914.463 1229.01 615.169 1073.55 399.431C918.086 183.693 617.025 133.206 401.113 286.665C185.201 440.124 136.198 739.418 291.663 955.156C447.128 1170.89 748.188 1221.38 964.1 1067.92Z" fill="var(--fill-0, #0DB3D0)"/>
<path id="Vector_6" opacity="0.05" d="M963.832 1066.66C1179.4 913.443 1228.62 615.026 1073.76 400.127C918.901 185.229 618.607 135.226 403.035 288.443C187.464 441.66 138.247 740.077 293.107 954.975C447.966 1169.87 748.26 1219.88 963.832 1066.66Z" fill="var(--fill-0, #0DB2D0)"/>
<path id="Vector_7" opacity="0.05" d="M963.641 1065.28C1178.84 912.271 1228.22 614.723 1073.93 400.691C919.639 186.659 620.103 137.192 404.899 290.204C189.695 443.216 140.317 740.765 294.609 954.797C448.901 1168.83 748.437 1218.3 963.641 1065.28Z" fill="var(--fill-0, #0DB1D1)"/>
<path id="Vector_8" opacity="0.06" d="M963.163 1064.22C1178.11 911.562 1227.86 614.917 1074.28 401.644C920.707 188.372 621.964 139.234 407.02 291.893C192.076 444.551 142.326 741.196 295.901 954.469C449.475 1167.74 748.219 1216.88 963.163 1064.22Z" fill="var(--fill-0, #0DB0D1)"/>
<path id="Vector_9" opacity="0.07" d="M962.957 1062.9C1177.53 910.447 1227.45 614.67 1074.44 402.264C921.431 189.857 623.446 141.256 408.87 293.709C194.293 446.163 144.382 741.94 297.389 954.346C450.396 1166.75 748.381 1215.35 962.957 1062.9Z" fill="var(--fill-0, #0DAFD2)"/>
<path id="Vector_10" opacity="0.08" d="M962.8 1061.47C1177.01 909.223 1227.08 614.309 1074.63 402.763C922.191 191.216 624.96 143.146 410.751 295.394C196.542 447.643 146.472 742.557 298.916 954.103C451.36 1165.65 748.591 1213.72 962.8 1061.47Z" fill="var(--fill-0, #0DAED2)"/>
<path id="Vector_11" opacity="0.09" d="M962.531 1060.21C1176.4 908.203 1226.68 614.166 1074.84 403.459C923.006 192.752 626.542 145.166 412.674 297.173C198.806 449.179 148.521 743.216 300.36 953.923C452.199 1164.63 748.663 1212.22 962.531 1060.21Z" fill="var(--fill-0, #0DADD2)"/>
<path id="Vector_12" opacity="0.1" d="M962.271 1058.94C1175.8 907.18 1226.3 614.02 1075.06 404.153C923.829 194.286 628.132 147.184 414.604 298.948C201.077 450.712 150.578 743.872 301.812 953.739C453.046 1163.61 748.743 1210.71 962.271 1058.94Z" fill="var(--fill-0, #0DACD3)"/>
<path id="Vector_13" opacity="0.11" d="M962.002 1057.67C1175.19 906.146 1225.9 613.863 1075.27 404.835C924.644 195.808 629.714 149.19 416.527 300.712C203.34 452.234 152.627 744.518 303.256 953.545C453.885 1162.57 748.816 1209.19 962.002 1057.67Z" fill="var(--fill-0, #0DABD3)"/>
<path id="Vector_14" opacity="0.12" d="M961.734 1056.38C1174.58 905.098 1225.51 613.692 1075.48 405.504C925.46 197.316 631.296 151.183 418.45 302.463C205.604 453.743 154.676 745.149 304.7 953.337C454.724 1161.52 748.888 1207.66 961.734 1056.38Z" fill="var(--fill-0, #0DAAD4)"/>
<path id="Vector_15" opacity="0.13" d="M961.482 1055.12C1173.99 904.086 1225.13 613.552 1075.7 406.198C926.279 198.843 632.877 153.189 420.372 304.227C207.867 455.265 156.729 745.799 306.152 953.153C455.575 1160.51 748.976 1206.16 961.482 1055.12Z" fill="var(--fill-0, #0DA9D4)"/>
<path id="Vector_16" opacity="0.14" d="M961.225 1053.84C1173.39 903.044 1224.74 613.387 1075.92 406.872C927.105 200.357 634.471 155.188 422.306 305.983C210.142 456.779 158.789 746.436 307.607 952.951C456.426 1159.47 749.06 1204.64 961.225 1053.84Z" fill="var(--fill-0, #0DA8D5)"/>
<path id="Vector_17" opacity="0.14" d="M960.956 1052.56C1172.78 902.01 1224.35 613.229 1076.13 407.554C927.92 201.879 636.053 157.194 424.229 307.747C212.405 458.301 160.838 747.081 309.051 952.756C457.265 1158.43 749.132 1203.12 960.956 1052.56Z" fill="var(--fill-0, #0DA7D5)"/>
<path id="Vector_18" opacity="0.15" d="M960.674 1051.27C1172.16 900.962 1223.94 613.058 1076.33 408.223C928.721 203.387 637.62 159.186 426.137 309.498C214.654 459.809 162.873 747.712 310.481 952.548C458.089 1157.38 749.19 1201.58 960.674 1051.27Z" fill="var(--fill-0, #0DA6D6)"/>
<path id="Vector_19" opacity="0.16" d="M960.413 1050.01C1171.56 899.939 1223.55 612.912 1076.55 408.916C929.545 204.92 639.21 161.204 428.068 311.273C216.925 461.342 164.93 748.369 311.933 952.365C458.936 1156.36 749.271 1200.08 960.413 1050.01Z" fill="var(--fill-0, #0DA5D6)"/>
<path id="Vector_20" opacity="0.17" d="M960.153 1048.74C1170.95 898.916 1223.16 612.762 1076.76 409.599C930.355 206.436 640.784 163.199 429.982 313.026C219.181 462.853 166.975 749.008 313.377 952.17C459.78 1155.33 749.351 1198.57 960.153 1048.74Z" fill="var(--fill-0, #0EA4D6)"/>
<path id="Vector_21" opacity="0.18" d="M959.884 1047.45C1170.35 897.868 1222.77 612.59 1076.97 410.267C931.171 207.944 642.366 165.192 431.905 314.776C221.444 464.361 169.024 749.639 314.821 951.962C460.619 1154.28 749.423 1197.04 959.884 1047.45Z" fill="var(--fill-0, #0EA3D7)"/>
<path id="Vector_22" opacity="0.19" d="M959.636 1046.18C1169.76 896.837 1222.39 612.436 1077.2 410.953C932.005 209.47 643.967 167.201 433.847 316.544C223.727 465.887 171.092 750.287 316.285 951.771C461.477 1153.25 749.515 1195.52 959.636 1046.18Z" fill="var(--fill-0, #0EA2D7)"/>
<path id="Vector_23" opacity="0.2" d="M959.367 1044.9C1169.15 895.803 1222 612.279 1077.41 411.635C932.821 210.992 645.549 169.208 435.77 318.308C225.99 467.409 173.141 750.932 317.729 951.576C462.316 1152.22 749.587 1194 959.367 1044.9Z" fill="var(--fill-0, #0EA1D8)"/>
<path id="Vector_24" opacity="0.21" d="M959.099 1043.61C1168.54 894.755 1221.6 612.108 1077.62 412.304C933.636 212.5 647.131 171.2 437.692 320.058C228.253 468.917 175.19 751.564 319.173 951.368C463.155 1151.17 749.66 1192.47 959.099 1043.61Z" fill="var(--fill-0, #0EA0D8)"/>
<path id="Vector_25" opacity="0.22" d="M958.83 1042.34C1167.93 893.721 1221.21 611.951 1077.83 412.986C934.451 214.022 648.713 173.206 439.615 321.823C230.516 470.439 177.239 752.209 320.616 951.173C463.994 1150.14 749.732 1190.95 958.83 1042.34Z" fill="var(--fill-0, #0E9FD9)"/>
<path id="Vector_26" opacity="0.23" d="M958.578 1041.08C1167.34 892.709 1220.82 611.811 1078.05 413.68C935.27 215.549 650.295 175.213 441.537 323.587C232.78 471.961 179.292 752.859 322.069 950.99C464.845 1149.12 749.82 1189.46 958.578 1041.08Z" fill="var(--fill-0, #0E9ED9)"/>
<path id="Vector_27" opacity="0.23" d="M958.309 1039.79C1166.73 891.661 1220.43 611.64 1078.26 414.349C936.085 217.057 651.877 177.205 443.46 325.337C235.043 473.469 181.341 753.49 323.512 950.782C465.684 1148.07 749.893 1187.93 958.309 1039.79Z" fill="var(--fill-0, #0E9DD9)"/>
<path id="Vector_28" opacity="0.24" d="M958.052 1038.51C1166.13 890.619 1220.05 611.475 1078.48 415.023C936.912 218.571 653.47 179.203 445.394 327.093C237.318 474.983 183.401 754.127 324.968 950.579C466.534 1147.03 749.976 1186.4 958.052 1038.51Z" fill="var(--fill-0, #0E9CDA)"/>
<path id="Vector_29" opacity="0.25" d="M957.784 1037.23C1165.52 889.585 1219.65 611.318 1078.69 415.705C937.727 220.093 655.052 181.21 447.316 328.858C239.581 476.505 185.45 754.772 326.412 950.385C467.373 1146 750.048 1184.88 957.784 1037.23Z" fill="var(--fill-0, #0E9BDA)"/>
<path id="Vector_30" opacity="0.26" d="M957.524 1035.95C1164.92 888.548 1219.26 611.158 1078.91 416.385C938.55 221.612 656.642 183.214 449.247 330.619C241.852 478.025 187.507 755.415 327.864 950.188C468.22 1144.96 750.129 1183.36 957.524 1035.95Z" fill="var(--fill-0, #0E9ADB)"/>
<path id="Vector_31" opacity="0.27" d="M957.263 1034.69C1164.32 887.525 1218.87 611.007 1079.12 417.068C939.361 223.128 658.216 185.209 451.162 332.372C244.107 479.535 189.552 756.054 329.308 949.993C469.064 1143.93 750.209 1181.85 957.263 1034.69Z" fill="var(--fill-0, #0E99DB)"/>
<path id="Vector_32" opacity="0.28" d="M956.995 1033.41C1163.71 886.491 1218.48 610.85 1079.33 417.75C940.176 224.65 659.798 187.215 453.084 334.136C246.371 481.057 191.601 756.699 330.752 949.799C469.903 1142.9 750.281 1180.33 956.995 1033.41Z" fill="var(--fill-0, #0E98DC)"/>
<path id="Vector_33" opacity="0.29" d="M956.735 1032.13C1163.11 885.455 1218.09 610.69 1079.55 418.43C940.999 226.17 661.388 189.219 455.015 335.898C248.642 482.577 193.658 757.341 332.204 949.602C470.75 1141.86 750.362 1178.81 956.735 1032.13Z" fill="var(--fill-0, #0E97DC)"/>
<path id="Vector_34" opacity="0.3" d="M956.477 1030.85C1162.51 884.412 1217.71 610.525 1079.77 419.104C941.826 227.684 662.981 191.217 456.949 337.654C250.917 484.091 195.718 757.978 333.659 949.399C471.6 1140.82 750.445 1177.29 956.477 1030.85Z" fill="var(--fill-0, #0E96DD)"/>
<path id="Vector_35" opacity="0.31" d="M956.209 1029.57C1161.9 883.378 1217.31 610.367 1079.98 419.786C942.641 229.206 664.563 193.224 458.871 339.418C253.18 485.613 197.767 758.624 335.103 949.205C472.439 1139.79 750.518 1175.77 956.209 1029.57Z" fill="var(--fill-0, #0E95DD)"/>
<path id="Vector_36" opacity="0.32" d="M955.949 1028.29C1161.3 882.341 1216.92 610.203 1080.19 420.455C943.452 230.707 666.136 195.205 460.786 341.157C255.435 487.11 199.811 759.249 336.547 948.996C473.282 1138.74 750.598 1174.25 955.949 1028.29Z" fill="var(--fill-0, #0E94DD)"/>
<path id="Vector_37" opacity="0.32" d="M955.688 1027.03C1160.7 881.318 1216.54 610.057 1080.41 421.149C944.275 232.241 667.727 197.222 462.717 342.933C257.707 488.643 201.869 759.905 337.999 948.813C474.129 1137.72 750.678 1172.74 955.688 1027.03Z" fill="var(--fill-0, #0E93DE)"/>
<path id="Vector_38" opacity="0.33" d="M955.42 1025.75C1160.09 880.284 1216.14 609.9 1080.62 421.831C945.091 233.763 669.308 199.229 464.639 344.697C259.97 490.165 203.918 760.55 339.443 948.618C474.968 1136.69 750.75 1171.22 955.42 1025.75Z" fill="var(--fill-0, #0E92DE)"/>
<path id="Vector_39" opacity="0.34" d="M955.151 1024.46C1159.48 879.236 1215.75 609.728 1080.83 422.5C945.906 235.271 670.89 201.221 466.562 346.447C262.233 491.673 205.967 761.181 340.887 948.41C475.807 1135.64 750.823 1169.69 955.151 1024.46Z" fill="var(--fill-0, #0E91DF)"/>
<path id="Vector_40" opacity="0.35" d="M954.902 1023.19C1158.89 878.205 1215.37 609.574 1081.06 423.185C946.741 236.796 672.492 203.231 468.504 348.215C264.516 493.199 208.035 761.83 342.35 948.219C476.666 1134.61 750.914 1168.17 954.902 1023.19Z" fill="var(--fill-0, #0E90DF)"/>
<path id="Vector_41" opacity="0.36" d="M954.642 1021.92C1158.29 877.183 1214.98 609.423 1081.27 423.868C947.551 238.312 674.065 205.226 470.418 349.968C266.771 494.709 210.08 762.469 343.794 948.024C477.509 1133.58 750.995 1166.67 954.642 1021.92Z" fill="var(--fill-0, #0E8FE0)"/>
<path id="Vector_42" opacity="0.37" d="M954.373 1020.63C1157.68 876.134 1214.59 609.252 1081.48 424.536C948.366 239.82 675.647 207.218 472.341 351.718C269.034 496.218 212.128 763.1 345.238 947.816C478.348 1132.53 751.067 1165.13 954.373 1020.63Z" fill="var(--fill-0, #0E8EE0)"/>
<path id="Vector_43" opacity="0.38" d="M954.105 1019.36C1157.07 875.1 1214.19 609.095 1081.69 425.219C949.182 241.342 677.229 209.225 474.263 353.482C271.298 497.74 214.177 763.745 346.682 947.621C479.187 1131.5 751.139 1163.62 954.105 1019.36Z" fill="var(--fill-0, #0E8DE1)"/>
<path id="Vector_44" opacity="0.39" d="M953.845 1018.09C1156.47 874.077 1213.8 608.949 1081.9 425.912C950.005 242.876 678.819 211.242 476.194 355.258C273.569 499.273 216.235 764.401 348.134 947.438C480.034 1130.48 751.22 1162.11 953.845 1018.09Z" fill="var(--fill-0, #0E8CE1)"/>
<path id="Vector_45" opacity="0.4" d="M953.576 1016.8C1155.86 873.029 1213.41 608.778 1082.11 426.581C950.82 244.384 680.401 213.235 478.117 357.008C275.832 500.781 218.284 765.033 349.578 947.23C480.873 1129.43 751.292 1160.58 953.576 1016.8Z" fill="var(--fill-0, #0E8BE1)"/>
<path id="Vector_46" opacity="0.41" d="M953.327 1015.53C1155.27 871.999 1213.03 608.619 1082.34 427.255C951.642 245.891 681.986 215.222 480.042 358.753C278.099 502.284 220.339 765.663 351.033 947.027C481.727 1128.39 751.384 1159.06 953.327 1015.53Z" fill="var(--fill-0, #0E8AE2)"/>
<path id="Vector_47" opacity="0.41" d="M953.059 1014.25C1154.66 870.964 1212.64 608.462 1082.55 427.937C952.458 247.413 683.568 217.228 481.965 360.517C280.362 503.806 222.388 766.308 352.477 946.833C482.566 1127.36 751.456 1157.54 953.059 1014.25Z" fill="var(--fill-0, #0E89E2)"/>
<path id="Vector_48" opacity="0.42" d="M952.798 1012.97C1154.06 869.928 1212.25 608.302 1082.76 428.617C953.281 248.933 685.158 219.232 483.896 362.279C282.633 505.325 224.446 766.951 353.929 946.636C483.413 1126.32 751.536 1156.02 952.798 1012.97Z" fill="var(--fill-0, #0E88E3)"/>
<path id="Vector_49" opacity="0.43" d="M952.53 1011.7C1153.45 868.893 1211.85 608.145 1082.97 429.3C954.096 250.455 686.74 221.238 485.818 364.043C284.897 506.848 226.494 767.596 355.373 946.441C484.252 1125.29 751.608 1154.5 952.53 1011.7Z" fill="var(--fill-0, #0E87E3)"/>
<path id="Vector_50" opacity="0.44" d="M952.262 1010.42C1152.84 867.859 1211.46 607.988 1083.19 429.982C954.911 251.977 688.322 223.245 487.741 365.807C287.16 508.37 228.543 768.241 356.817 946.247C485.091 1124.25 751.681 1152.98 952.262 1010.42Z" fill="var(--fill-0, #0E86E4)"/>
<path id="Vector_51" opacity="0.45" d="M952.009 1009.15C1152.25 866.834 1211.08 607.834 1083.4 430.662C955.73 253.49 689.904 225.237 489.663 367.558C289.423 509.878 230.596 768.878 358.269 946.05C485.943 1123.22 751.769 1151.47 952.009 1009.15Z" fill="var(--fill-0, #0E85E4)"/>
<path id="Vector_52" opacity="0.46" d="M951.752 1007.87C1151.65 865.792 1210.69 607.669 1083.63 431.336C956.557 255.004 691.497 227.235 491.597 369.314C291.698 511.392 232.656 769.515 359.725 945.847C486.793 1122.18 751.853 1149.95 951.752 1007.87Z" fill="var(--fill-0, #0E84E5)"/>
<path id="Vector_53" opacity="0.47" d="M951.484 1006.59C1151.04 864.758 1210.3 607.512 1083.84 432.019C957.372 256.526 693.079 229.242 493.52 371.078C293.961 512.914 234.705 770.16 361.169 945.653C487.632 1121.15 751.925 1148.43 951.484 1006.59Z" fill="var(--fill-0, #0E83E5)"/>
<path id="Vector_54" opacity="0.48" d="M951.215 1005.3C1150.43 863.709 1209.9 607.34 1084.05 432.687C958.187 258.034 694.661 231.234 495.443 372.828C296.224 514.422 236.754 770.791 362.613 945.444C488.471 1120.1 751.997 1146.9 951.215 1005.3Z" fill="var(--fill-0, #0E82E5)"/>
<path id="Vector_55" opacity="0.49" d="M950.955 1004.04C1149.83 862.687 1209.52 607.195 1084.26 433.381C959.011 259.567 696.251 233.252 497.373 374.604C298.496 515.956 238.811 771.448 364.065 945.261C489.318 1119.07 752.078 1145.39 950.955 1004.04Z" fill="var(--fill-0, #0E81E6)"/>
<path id="Vector_56" opacity="0.5" d="M950.686 1002.76C1149.22 861.652 1209.12 607.037 1084.47 434.063C959.826 261.09 697.833 235.258 499.296 376.368C300.759 517.478 240.86 772.093 365.509 945.067C490.157 1118.04 752.15 1143.87 950.686 1002.76Z" fill="var(--fill-0, #0E80E6)"/>
<path id="Vector_57" opacity="0.5" d="M950.426 1001.48C1148.62 860.616 1208.73 606.873 1084.68 434.732C960.636 262.591 699.406 237.239 501.21 378.107C303.014 518.974 242.905 772.718 366.952 944.858C491 1117 752.23 1142.35 950.426 1001.48Z" fill="var(--fill-0, #0F80E7)"/>
<path id="Vector_58" opacity="0.51" d="M950.177 1000.21C1148.03 859.585 1208.36 606.719 1084.91 435.418C961.471 264.117 701.008 239.249 503.152 379.874C305.297 520.5 244.973 773.366 368.416 944.667C491.858 1115.97 752.322 1140.84 950.177 1000.21Z" fill="var(--fill-0, #0F7FE7)"/>
<path id="Vector_59" opacity="0.52" d="M949.909 998.934C1147.42 858.551 1207.96 606.561 1085.12 436.1C962.286 265.639 702.59 241.255 505.075 381.639C307.56 522.022 247.022 774.011 369.86 944.472C492.697 1114.93 752.394 1139.32 949.909 998.934Z" fill="var(--fill-0, #0F7EE8)"/>
<path id="Vector_60" opacity="0.53" d="M949.64 997.644C1146.81 857.503 1207.57 606.39 1085.33 436.768C963.102 267.147 704.172 243.248 506.998 383.389C309.824 523.53 249.071 774.642 371.304 944.264C493.536 1113.89 752.466 1137.78 949.64 997.644Z" fill="var(--fill-0, #0F7DE8)"/>
<path id="Vector_61" opacity="0.54" d="M949.372 996.367C1146.21 856.468 1207.17 606.233 1085.54 437.451C963.917 268.669 705.753 245.254 508.92 385.153C312.087 525.052 251.12 775.287 372.748 944.07C494.375 1112.85 752.538 1136.27 949.372 996.367Z" fill="var(--fill-0, #0F7CE8)"/>
<path id="Vector_62" opacity="0.55" d="M949.12 995.114C1145.61 855.457 1206.79 606.093 1085.76 438.145C964.736 270.196 707.335 247.261 510.843 386.917C314.35 526.574 253.173 775.938 374.2 943.886C495.227 1111.84 752.627 1134.77 949.12 995.114Z" fill="var(--fill-0, #0F7BE9)"/>
<path id="Vector_63" opacity="0.56" d="M948.851 993.823C1145 854.409 1206.39 605.922 1085.97 438.813C965.551 271.704 708.917 249.253 512.765 388.668C316.613 528.082 255.222 776.569 375.644 943.678C496.065 1110.79 752.699 1133.24 948.851 993.823Z" fill="var(--fill-0, #0F7AE9)"/>
<path id="Vector_64" opacity="0.57" d="M948.594 992.539C1144.41 853.367 1206.01 605.757 1086.19 439.487C966.378 273.218 710.51 251.251 514.699 390.424C318.888 529.596 257.282 777.206 377.099 943.475C496.916 1109.74 752.783 1131.71 948.594 992.539Z" fill="var(--fill-0, #0F79EA)"/>
<path id="Vector_65" opacity="0.58" d="M948.326 991.263C1143.8 852.332 1205.62 605.6 1086.4 440.17C967.193 274.74 712.092 253.258 516.622 392.188C321.151 531.118 259.331 777.851 378.543 943.281C497.755 1108.71 752.855 1130.19 948.326 991.263Z" fill="var(--fill-0, #0F78EA)"/>
<path id="Vector_66" opacity="0.59" d="M948.065 989.984C1143.2 851.296 1205.23 605.44 1086.62 440.85C968.016 276.259 713.682 255.261 518.553 393.95C323.423 532.638 261.388 778.494 379.995 943.084C498.602 1107.67 752.935 1128.67 948.065 989.984Z" fill="var(--fill-0, #0F77EB)"/>
<path id="Vector_67" opacity="0.59" d="M947.805 988.719C1142.59 850.273 1204.84 605.289 1086.83 441.532C968.827 277.775 715.256 257.257 520.467 395.703C325.678 534.149 263.433 779.132 381.439 942.889C499.445 1106.65 753.016 1127.16 947.805 988.719Z" fill="var(--fill-0, #0F76EB)"/>
<path id="Vector_68" opacity="0.6" d="M947.536 987.443C1141.98 849.239 1204.44 605.132 1087.04 442.215C969.642 279.297 716.838 259.263 522.389 397.467C327.941 535.671 265.482 779.778 382.883 942.695C500.284 1105.61 753.088 1125.65 947.536 987.443Z" fill="var(--fill-0, #0F75EC)"/>
<path id="Vector_69" opacity="0.61" d="M947.276 986.164C1141.38 848.202 1204.06 604.972 1087.26 442.894C970.465 280.817 718.428 261.267 524.32 399.228C330.212 537.19 267.539 780.42 384.335 942.498C501.131 1104.58 753.168 1124.13 947.276 986.164Z" fill="var(--fill-0, #0F74EC)"/>
<path id="Vector_70" opacity="0.62" d="M947.019 984.879C1140.79 847.16 1203.67 604.807 1087.48 443.569C971.292 282.331 720.021 263.265 526.254 400.985C332.487 538.704 269.599 781.057 385.79 942.295C501.981 1103.53 753.252 1122.6 947.019 984.879Z" fill="var(--fill-0, #0F73EC)"/>
<path id="Vector_71" opacity="0.63" d="M946.751 983.603C1140.18 846.126 1203.28 604.649 1087.69 444.251C972.107 283.852 721.603 265.271 528.177 402.749C334.75 540.226 271.648 781.702 387.234 942.101C502.82 1102.5 753.324 1121.08 946.751 983.603Z" fill="var(--fill-0, #0F72ED)"/>
<path id="Vector_72" opacity="0.64" d="M946.49 982.324C1139.58 845.089 1202.89 604.485 1087.9 444.92C972.918 285.354 723.177 267.252 530.091 404.488C337.005 541.723 273.693 782.327 388.678 941.892C503.664 1101.46 753.405 1119.56 946.49 982.324Z" fill="var(--fill-0, #0F71ED)"/>
<path id="Vector_73" opacity="0.65" d="M946.23 981.059C1138.97 844.066 1202.5 604.339 1088.12 445.613C973.741 286.888 724.767 269.27 532.022 406.263C339.277 543.256 275.75 782.984 390.13 941.709C504.511 1100.43 753.485 1118.05 946.23 981.059Z" fill="var(--fill-0, #0F70EE)"/>
<path id="Vector_74" opacity="0.66" d="M945.961 979.783C1138.37 843.032 1202.11 604.182 1088.33 446.296C974.556 288.41 726.349 271.277 533.944 408.027C341.54 544.778 277.799 783.629 391.574 941.515C505.35 1099.4 753.557 1116.53 945.961 979.783Z" fill="var(--fill-0, #0F6FEE)"/>
<path id="Vector_75" opacity="0.67" d="M945.693 978.493C1137.76 841.984 1201.71 604.01 1088.54 446.964C975.372 289.918 727.931 273.269 535.867 409.778C343.803 546.287 279.848 784.26 393.018 941.306C506.188 1098.35 753.629 1115 945.693 978.493Z" fill="var(--fill-0, #0F6EEF)"/>
<path id="Vector_76" opacity="0.68" d="M945.444 977.22C1137.17 840.953 1201.34 603.856 1088.77 447.65C976.206 291.443 729.532 275.279 537.809 411.545C346.086 547.812 281.916 784.908 394.482 941.115C507.047 1097.32 753.721 1113.49 945.444 977.22Z" fill="var(--fill-0, #0F6DEF)"/>
<path id="Vector_77" opacity="0.68" d="M945.184 975.955C1136.57 839.93 1200.95 603.706 1088.98 448.332C977.017 292.959 731.106 277.274 539.724 413.298C348.341 549.323 283.961 785.547 395.926 940.921C507.89 1096.29 753.802 1111.98 945.184 975.955Z" fill="var(--fill-0, #0F6CF0)"/>
<path id="Vector_78" opacity="0.69" d="M944.915 974.664C1135.96 838.882 1200.55 603.534 1089.19 449.001C977.832 294.467 732.688 279.266 541.646 415.048C350.605 550.831 286.01 786.178 397.369 940.712C508.729 1095.25 753.874 1110.45 944.915 974.664Z" fill="var(--fill-0, #0F6BF0)"/>
<path id="Vector_79" opacity="0.7" d="M944.647 973.388C1135.35 837.848 1200.16 603.377 1089.4 449.683C978.647 295.989 734.269 281.272 543.569 416.813C352.868 552.353 288.059 786.824 398.813 940.518C509.568 1094.21 753.946 1108.93 944.647 973.388Z" fill="var(--fill-0, #0F6AF0)"/>
<path id="Vector_80" opacity="0.71" d="M944.386 972.123C1134.75 836.825 1199.77 603.231 1089.62 450.377C979.471 297.522 735.86 283.29 545.499 418.588C355.139 553.886 290.116 787.48 400.265 940.335C510.415 1093.19 754.026 1107.42 944.386 972.123Z" fill="var(--fill-0, #0F69F1)"/>
<path id="Vector_81" opacity="0.72" d="M944.118 970.833C1134.14 835.777 1199.38 603.06 1089.83 451.045C980.286 299.031 737.441 285.283 547.422 420.339C357.403 555.395 292.165 788.111 401.709 940.126C511.254 1092.14 754.099 1105.89 944.118 970.833Z" fill="var(--fill-0, #0F68F1)"/>
<path id="Vector_82" opacity="0.73" d="M943.869 969.56C1133.55 834.746 1199 602.901 1090.05 451.72C981.108 300.538 739.027 287.27 549.348 422.083C359.669 556.897 294.221 788.742 403.165 939.924C512.109 1091.11 754.19 1104.37 943.869 969.56Z" fill="var(--fill-0, #0F67F2)"/>
<path id="Vector_83" opacity="0.74" d="M943.601 968.284C1132.94 833.712 1198.6 602.744 1090.26 452.402C981.923 302.06 740.608 289.276 551.27 423.848C361.932 558.419 296.27 789.387 404.609 939.729C512.948 1090.07 754.263 1102.86 943.601 968.284Z" fill="var(--fill-0, #0F66F2)"/>
<path id="Vector_84" opacity="0.75" d="M943.34 967.005C1132.34 832.675 1198.21 602.584 1090.48 453.082C982.747 303.58 742.198 291.28 553.201 425.609C364.204 559.939 298.327 790.03 406.061 939.532C513.795 1089.03 754.343 1101.33 943.34 967.005Z" fill="var(--fill-0, #0F65F3)"/>
<path id="Vector_85" opacity="0.76" d="M943.072 965.728C1131.73 831.641 1197.82 602.427 1090.69 453.764C983.562 305.102 743.78 293.286 555.124 427.373C366.467 561.461 300.376 790.675 407.505 939.338C514.634 1088 754.415 1099.82 943.072 965.728Z" fill="var(--fill-0, #0F64F3)"/>
<path id="Vector_86" opacity="0.77" d="M942.803 964.452C1131.12 830.607 1197.42 602.27 1090.9 454.447C984.377 306.624 745.362 295.293 557.046 429.138C368.73 562.983 302.425 791.32 408.949 939.143C515.472 1086.97 754.487 1098.3 942.803 964.452Z" fill="var(--fill-0, #0F63F4)"/>
<path id="Vector_87" opacity="0.77" d="M942.543 963.173C1130.52 829.57 1197.04 602.11 1091.12 455.127C985.2 308.143 746.952 297.296 558.977 430.899C371.002 564.502 304.482 791.963 410.401 938.946C516.319 1085.93 754.568 1096.78 942.543 963.173Z" fill="var(--fill-0, #0F62F4)"/>
<path id="Vector_88" opacity="0.78" d="M942.294 961.9C1129.93 828.539 1196.66 601.951 1091.34 455.801C986.023 309.651 748.537 299.283 560.903 432.644C373.268 566.005 306.538 792.593 411.856 938.743C517.174 1084.89 754.659 1095.26 942.294 961.9Z" fill="var(--fill-0, #0F61F4)"/>
<path id="Vector_89" opacity="0.79" d="M942.026 960.624C1129.32 827.505 1196.26 601.794 1091.55 456.483C986.838 311.173 750.119 301.29 562.825 434.408C375.531 567.527 308.587 793.238 413.3 938.549C518.013 1083.86 754.732 1093.74 942.026 960.624Z" fill="var(--fill-0, #0F60F5)"/>
<path id="Vector_90" opacity="0.8" d="M941.757 959.334C1128.71 826.457 1195.87 601.622 1091.76 457.152C987.653 312.681 751.701 303.282 564.748 436.159C377.795 569.035 310.636 793.87 414.744 938.34C518.852 1082.81 754.804 1092.21 941.757 959.334Z" fill="var(--fill-0, #0F5FF5)"/>
<path id="Vector_91" opacity="0.81" d="M941.497 958.069C1128.11 825.434 1195.48 601.477 1091.98 457.846C988.476 314.214 753.291 305.3 566.679 437.934C380.066 570.569 312.693 794.526 416.196 938.157C519.699 1081.79 754.884 1090.7 941.497 958.069Z" fill="var(--fill-0, #0F5EF6)"/>
<path id="Vector_92" opacity="0.82" d="M941.228 956.792C1127.5 824.4 1195.09 601.319 1092.19 458.528C989.292 315.736 754.873 307.306 568.601 439.698C382.329 572.091 314.742 795.171 417.64 937.963C520.538 1080.75 754.956 1089.18 941.228 956.792Z" fill="var(--fill-0, #0F5DF6)"/>
<path id="Vector_93" opacity="0.83" d="M940.968 955.514C1126.9 823.363 1194.7 601.155 1092.4 459.196C990.102 317.238 756.447 309.287 570.516 441.437C384.585 573.588 316.786 795.796 419.084 937.754C521.381 1079.71 755.037 1087.66 940.968 955.514Z" fill="var(--fill-0, #0F5CF7)"/>
<path id="Vector_94" opacity="0.84" d="M940.719 954.24C1126.31 822.332 1194.32 601.001 1092.63 459.882C990.937 318.763 758.048 311.297 572.458 443.205C386.867 575.113 318.855 796.445 420.547 937.563C522.24 1078.68 755.129 1086.15 940.719 954.24Z" fill="var(--fill-0, #105BF7)"/>
<path id="Vector_95" opacity="0.85" d="M940.451 952.964C1125.7 821.298 1193.93 600.843 1092.84 460.564C991.752 320.286 759.63 313.303 574.38 444.969C389.131 576.635 320.904 797.09 421.991 937.369C523.079 1077.65 755.201 1084.63 940.451 952.964Z" fill="var(--fill-0, #105AF7)"/>
<path id="Vector_96" opacity="0.86" d="M940.182 951.674C1125.09 820.25 1193.53 600.672 1093.05 461.233C992.567 321.794 761.212 315.296 576.303 446.719C391.394 578.143 322.953 797.721 423.435 937.16C523.918 1076.6 755.273 1083.1 940.182 951.674Z" fill="var(--fill-0, #1059F8)"/>
<path id="Vector_97" opacity="0.86" d="M939.914 950.398C1124.48 819.216 1193.14 600.515 1093.26 461.915C993.382 323.316 762.794 317.302 578.225 448.484C393.657 579.665 325.002 798.366 424.879 936.966C524.756 1075.57 755.345 1081.58 939.914 950.398Z" fill="var(--fill-0, #1058F8)"/>
<path id="Vector_98" opacity="0.87" d="M939.661 949.144C1123.89 818.205 1192.76 600.376 1093.48 462.609C994.201 324.843 764.376 319.308 580.148 450.248C395.92 581.187 327.054 799.016 426.331 936.783C525.608 1074.55 755.434 1080.08 939.661 949.144Z" fill="var(--fill-0, #1057F9)"/>
<path id="Vector_99" opacity="0.88" d="M939.393 947.854C1123.28 817.157 1192.36 600.204 1093.69 463.278C995.017 326.351 765.957 321.301 582.071 451.998C398.184 582.695 329.103 799.648 427.775 936.574C526.447 1073.5 755.506 1078.55 939.393 947.854Z" fill="var(--fill-0, #1056F9)"/>
<path id="Vector_100" opacity="0.89" d="M939.136 946.569C1122.68 816.114 1191.98 600.039 1093.91 463.952C995.843 327.865 767.551 323.299 584.005 453.754C400.458 584.209 331.164 800.285 429.23 936.372C527.297 1072.46 755.59 1077.02 939.136 946.569Z" fill="var(--fill-0, #1055FA)"/>
<path id="Vector_101" opacity="0.9" d="M938.867 945.293C1122.07 815.08 1191.58 599.882 1094.12 464.634C996.658 329.387 769.133 325.305 585.927 455.518C402.722 585.731 333.213 800.93 430.674 936.177C528.136 1071.42 755.662 1075.51 938.867 945.293Z" fill="var(--fill-0, #1054FA)"/>
<path id="Vector_102" opacity="0.91" d="M938.607 944.014C1121.47 814.043 1191.2 599.722 1094.34 465.314C997.482 330.906 770.723 327.309 587.858 457.28C404.993 587.251 335.27 801.572 432.126 935.98C528.983 1070.39 755.742 1073.98 938.607 944.014Z" fill="var(--fill-0, #1053FB)"/>
<path id="Vector_103" opacity="0.92" d="M938.347 942.749C1120.87 813.021 1190.8 599.571 1094.55 465.997C998.292 332.422 772.296 329.304 589.772 459.033C407.248 588.762 337.314 802.211 433.57 935.786C529.826 1069.36 755.823 1072.48 938.347 942.749Z" fill="var(--fill-0, #1052FB)"/>
<path id="Vector_104" opacity="0.93" d="M938.078 941.473C1120.26 811.986 1190.41 599.414 1094.76 466.679C999.108 333.944 773.878 331.311 591.695 460.797C409.511 590.284 339.363 802.856 435.014 935.591C530.665 1068.33 755.895 1070.96 938.078 941.473Z" fill="var(--fill-0, #1051FB)"/>
<path id="Vector_105" opacity="0.94" d="M937.818 940.194C1119.66 810.95 1190.02 599.254 1094.98 467.359C999.931 335.463 775.468 333.314 593.626 462.559C411.783 591.803 341.42 803.499 436.466 935.394C531.512 1067.29 755.975 1069.44 937.818 940.194Z" fill="var(--fill-0, #1050FC)"/>
<path id="Vector_106" opacity="0.95" d="M937.561 938.91C1119.06 809.907 1189.64 599.089 1095.2 468.033C1000.76 336.977 777.062 335.313 595.56 464.315C414.058 593.317 343.481 804.136 437.922 935.191C532.363 1066.25 756.059 1067.91 937.561 938.91Z" fill="var(--fill-0, #104FFC)"/>
<path id="Vector_107" opacity="0.95" d="M937.292 937.633C1118.45 808.873 1189.24 598.932 1095.41 468.715C1001.57 338.499 778.644 337.319 597.482 466.079C416.321 594.839 345.53 804.781 439.366 934.997C533.202 1065.21 756.131 1066.39 937.292 937.633Z" fill="var(--fill-0, #104EFD)"/>
<path id="Vector_108" opacity="0.96" d="M937.032 936.355C1117.85 807.837 1188.85 598.767 1095.62 469.384C1002.38 340.001 780.217 339.3 599.396 467.818C418.576 596.336 347.574 805.406 440.81 934.789C534.045 1064.17 756.211 1064.87 937.032 936.355Z" fill="var(--fill-0, #104DFD)"/>
<path id="Vector_109" opacity="0.97" d="M936.772 935.09C1117.25 806.814 1188.47 598.621 1095.84 470.078C1003.21 341.535 781.807 341.318 601.327 469.594C420.847 597.87 349.631 806.062 442.262 934.605C534.892 1063.15 756.292 1063.37 936.772 935.09Z" fill="var(--fill-0, #104CFE)"/>
<path id="Vector_110" opacity="0.98" d="M936.503 933.813C1116.64 805.78 1188.07 598.464 1096.05 470.76C1004.02 343.057 783.389 343.324 603.25 471.358C423.111 599.392 351.68 806.708 443.705 934.411C535.731 1062.11 756.364 1061.85 936.503 933.813Z" fill="var(--fill-0, #104BFE)"/>
<path id="Vector_111" opacity="0.99" d="M936.235 932.523C1116.03 804.732 1187.68 598.293 1096.26 471.429C1004.84 344.565 784.971 345.317 605.172 473.108C425.374 600.9 353.729 807.339 445.149 934.203C536.57 1061.07 756.436 1060.31 936.235 932.523Z" fill="var(--fill-0, #104AFF)"/>
<path id="Vector_112" d="M935.986 931.25C1115.44 803.701 1187.3 598.139 1096.49 472.114C1005.67 346.09 786.572 347.326 607.115 474.876C427.657 602.425 355.798 807.987 446.613 934.011C537.428 1060.04 756.528 1058.8 935.986 931.25Z" fill="var(--fill-0, #1049FF)"/>
<path id="Vector_113" d="M936.327 930.646C1114.85 803.765 1186.34 599.299 1096.02 473.957C1005.69 348.616 787.756 349.864 609.238 476.745C430.721 603.627 359.225 808.093 449.548 933.435C539.871 1058.78 757.81 1057.53 936.327 930.646Z" fill="var(--fill-0, #1148FE)"/>
<path id="Vector_114" d="M452.49 932.867C362.668 808.212 433.806 604.857 611.385 478.653C788.964 352.45 1005.72 351.194 1095.54 475.849C1185.37 600.504 1114.23 803.873 936.649 930.063C759.07 1056.27 542.298 1057.52 452.476 932.867H452.49Z" fill="var(--fill-0, #1147FD)"/>
<path id="Vector_115" d="M455.44 932.281C366.11 808.309 436.883 606.057 613.52 480.523C790.158 354.989 1005.75 353.733 1095.08 477.691C1184.41 601.662 1113.64 803.915 937 929.449C760.363 1054.98 544.77 1056.24 455.44 932.281Z" fill="var(--fill-0, #1246FC)"/>
<path id="Vector_116" d="M458.404 931.695C369.579 808.407 439.987 607.257 615.67 482.392C791.352 357.528 1005.79 356.258 1094.62 479.532C1183.46 602.82 1113.05 803.97 937.352 928.835C761.669 1053.7 547.229 1054.97 458.404 931.695Z" fill="var(--fill-0, #1345FB)"/>
<path id="Vector_117" d="M461.354 931.123C373.021 808.532 443.064 608.47 617.805 484.276C792.546 360.081 1005.81 358.797 1094.15 481.388C1182.49 603.992 1112.44 804.04 937.703 928.221C762.962 1052.42 549.687 1053.7 461.354 931.109V931.123Z" fill="var(--fill-0, #1344FA)"/>
<path id="Vector_118" d="M464.304 930.537C376.463 808.63 446.14 609.67 619.94 486.159C793.74 362.648 1005.84 361.337 1093.68 483.243C1181.52 605.15 1111.84 804.11 938.04 927.621C764.24 1051.15 552.145 1052.44 464.304 930.537Z" fill="var(--fill-0, #1444F9)"/>
<path id="Vector_119" d="M467.254 929.965C379.905 808.742 449.217 610.884 622.076 488.043C794.935 365.201 1005.86 363.89 1093.21 485.099C1180.56 606.322 1111.25 804.18 938.391 927.021C765.532 1049.86 554.604 1051.19 467.254 929.965Z" fill="var(--fill-0, #1543F8)"/>
<path id="Vector_120" d="M470.204 929.379C383.36 808.839 452.307 612.084 624.211 489.912C796.115 367.74 1005.89 366.415 1092.74 486.94C1179.59 607.48 1110.63 804.235 938.728 926.407C766.825 1048.58 557.048 1049.9 470.204 929.379Z" fill="var(--fill-0, #1642F7)"/>
<path id="Vector_121" d="M473.154 928.793C386.802 808.951 455.384 613.298 626.346 491.795C797.309 370.293 1005.91 368.954 1092.26 488.796C1178.62 608.652 1110.03 804.291 939.066 925.793C768.103 1047.3 559.506 1048.63 473.14 928.793H473.154Z" fill="var(--fill-0, #1641F6)"/>
<path id="Vector_122" d="M476.118 928.221C390.258 809.063 458.474 614.511 628.495 493.679C798.517 372.846 1005.95 371.493 1091.81 490.651C1177.67 609.81 1109.45 804.361 939.431 925.194C769.41 1046.03 561.979 1047.38 476.118 928.221Z" fill="var(--fill-0, #1740F5)"/>
<path id="Vector_123" d="M479.068 927.635C393.7 809.16 461.565 615.711 630.631 495.548C799.711 375.386 1005.98 374.018 1091.33 492.493C1176.7 610.968 1108.85 804.417 939.768 924.58C770.688 1044.74 564.423 1046.11 479.054 927.635H479.068Z" fill="var(--fill-0, #183FF4)"/>
<path id="Vector_124" d="M482.018 927.063C397.141 809.272 464.641 616.925 632.766 497.432C800.891 377.939 1005.99 376.571 1090.87 494.349C1175.74 612.14 1108.24 804.487 940.119 923.966C771.98 1043.46 566.896 1044.84 482.018 927.049V927.063Z" fill="var(--fill-0, #183EF3)"/>
<path id="Vector_125" d="M484.969 926.477C400.597 809.384 467.718 618.125 634.901 499.315C802.085 380.492 1006.02 379.111 1090.39 496.204C1174.77 613.312 1107.64 804.556 940.456 923.366C773.273 1042.19 569.34 1043.57 484.954 926.477H484.969Z" fill="var(--fill-0, #193DF2)"/>
<path id="Vector_126" d="M487.919 925.891C404.039 809.481 470.794 619.325 637.037 501.185C803.279 383.045 1006.05 381.636 1089.93 498.046C1173.81 614.456 1107.05 804.612 940.808 922.752C774.565 1040.91 571.798 1042.3 487.919 925.891Z" fill="var(--fill-0, #1A3CF1)"/>
<path id="Vector_127" d="M490.869 925.319C407.481 809.593 473.885 620.552 639.172 503.068C804.473 385.598 1006.06 384.175 1089.45 499.901C1172.84 615.627 1106.43 804.682 941.145 922.152C775.843 1039.64 574.243 1041.05 490.869 925.319Z" fill="var(--fill-0, #1A3BF0)"/>
<path id="Vector_128" d="M493.819 924.733C410.922 809.691 476.961 621.752 641.307 504.938C805.653 388.137 1006.09 386.7 1088.98 501.743C1171.88 616.785 1105.84 804.724 941.496 921.524C777.136 1038.32 576.715 1039.76 493.819 924.719V924.733Z" fill="var(--fill-0, #1B3BEF)"/>
<path id="Vector_129" d="M496.783 924.161C414.392 809.802 480.052 622.966 643.457 506.835C806.861 390.704 1006.13 389.267 1088.52 503.612C1170.93 617.971 1105.25 804.808 941.847 920.938C778.442 1037.07 579.173 1038.51 496.783 924.161Z" fill="var(--fill-0, #1C3AEE)"/>
<path id="Vector_130" d="M499.733 923.575C417.834 809.914 483.142 624.166 645.606 508.705C808.069 393.243 1006.16 391.792 1088.07 505.454C1169.97 619.115 1104.68 804.863 942.212 920.324C779.749 1035.79 581.646 1037.24 499.747 923.575H499.733Z" fill="var(--fill-0, #1C39ED)"/>
<path id="Vector_131" d="M502.683 922.989C421.276 810.011 486.219 625.365 647.741 510.574C809.263 395.782 1006.19 394.318 1087.59 507.295C1169 620.273 1104.06 804.919 942.549 919.711C781.027 1034.5 584.104 1035.97 502.697 922.989H502.683Z" fill="var(--fill-0, #1D38EC)"/>
<path id="Vector_132" d="M505.633 922.417C424.717 810.123 489.295 626.579 649.876 512.471C810.443 398.349 1006.21 396.871 1087.12 509.165C1168.03 621.459 1103.45 805.003 942.887 919.111C782.306 1033.23 586.549 1034.71 505.633 922.417Z" fill="var(--fill-0, #1E37EB)"/>
<path id="Vector_133" d="M508.583 921.831C428.173 810.221 492.372 627.793 652.012 514.341C811.637 400.889 1006.23 399.396 1086.65 511.006C1167.08 622.617 1102.86 805.059 943.238 918.497C783.612 1031.95 589.007 1033.44 508.597 921.831H508.583Z" fill="var(--fill-0, #1F36EA)"/>
<path id="Vector_134" d="M511.533 921.245C431.615 810.332 495.462 628.993 654.147 516.21C812.832 403.442 1006.26 401.935 1086.17 512.848C1166.09 623.775 1102.25 805.1 943.575 917.883C784.89 1030.67 591.465 1032.16 511.533 921.245Z" fill="var(--fill-0, #1F35E9)"/>
<path id="Vector_135" d="M514.483 920.673C435.056 810.444 498.539 630.207 656.282 518.094C814.026 405.995 1006.28 404.474 1085.71 514.704C1165.14 624.933 1101.66 805.17 943.926 917.269C786.183 1029.38 593.924 1030.89 514.497 920.659L514.483 920.673Z" fill="var(--fill-0, #2034E8)"/>
<path id="Vector_136" d="M517.447 920.087C438.512 810.541 501.629 631.406 658.432 519.977C815.22 408.548 1006.31 407.013 1085.25 516.559C1164.18 626.105 1101.07 805.24 944.263 916.669C787.461 1028.11 596.368 1029.63 517.433 920.087H517.447Z" fill="var(--fill-0, #2133E7)"/>
<path id="Vector_137" d="M520.397 919.515C441.954 810.653 504.72 632.62 660.567 521.861C816.414 411.101 1006.34 409.552 1084.78 518.415C1163.23 627.277 1100.48 805.31 944.615 916.069C788.768 1026.83 598.841 1028.38 520.397 919.515Z" fill="var(--fill-0, #2132E6)"/>
<path id="Vector_138" d="M523.347 918.929C445.41 810.765 507.796 633.82 662.702 523.73C817.608 413.64 1006.37 412.092 1084.31 520.256C1162.24 628.435 1099.86 805.366 944.952 915.455C790.046 1025.55 601.285 1027.09 523.347 918.929Z" fill="var(--fill-0, #2232E5)"/>
<path id="Vector_139" d="M526.297 918.343C448.851 810.862 510.873 635.02 664.837 525.614C818.802 416.193 1006.4 414.631 1083.84 522.112C1161.29 629.593 1099.27 805.435 945.303 914.842C791.338 1024.26 603.743 1025.82 526.297 918.343Z" fill="var(--fill-0, #2331E4)"/>
<path id="Vector_140" d="M529.247 917.771C452.293 810.974 513.949 636.248 666.973 527.497C819.982 418.746 1006.41 417.17 1083.37 523.967C1160.32 630.765 1098.66 805.491 945.64 914.242C792.617 1022.99 606.202 1024.57 529.247 917.771Z" fill="var(--fill-0, #2330E3)"/>
<path id="Vector_141" d="M532.197 917.186C455.735 811.072 517.04 637.447 669.108 529.366C821.176 421.285 1006.44 419.695 1082.9 525.809C1159.36 631.923 1098.06 805.547 945.991 913.628C793.923 1021.71 608.66 1023.3 532.197 917.186Z" fill="var(--fill-0, #242FE2)"/>
<path id="Vector_142" d="M535.147 916.613C459.191 811.197 520.116 638.661 671.243 531.25C822.37 423.839 1006.47 422.234 1082.42 527.664C1158.39 633.095 1097.46 805.617 946.328 913.028C795.201 1020.44 611.104 1022.04 535.147 916.613Z" fill="var(--fill-0, #252EE1)"/>
<path id="Vector_143" d="M538.112 916.028C462.646 811.295 523.207 639.861 673.393 533.133C823.578 426.406 1006.5 424.787 1081.96 529.52C1157.43 634.252 1096.87 805.686 946.68 912.414C796.494 1019.16 613.563 1020.76 538.098 916.028H538.112Z" fill="var(--fill-0, #252DE0)"/>
<path id="Vector_144" d="M541.062 915.442C466.088 811.393 526.297 641.061 675.528 535.003C824.758 428.945 1006.52 427.312 1081.5 531.361C1156.47 635.41 1096.28 805.742 947.031 911.8C797.786 1017.87 616.035 1019.49 541.062 915.442Z" fill="var(--fill-0, #262CDF)"/>
<path id="Vector_145" d="M544.012 914.87C469.53 811.504 529.374 642.274 677.663 536.886C825.952 431.498 1006.55 429.852 1081.02 533.217C1155.5 636.582 1095.66 805.812 947.368 911.2C799.079 1016.59 618.479 1018.23 543.998 914.87H544.012Z" fill="var(--fill-0, #272BDE)"/>
<path id="Vector_146" d="M546.962 914.284C472.986 811.602 532.45 643.488 679.798 538.756C827.146 434.037 1006.57 432.377 1080.56 535.059C1154.55 637.74 1095.07 805.868 947.719 910.573C800.371 1015.29 620.938 1016.95 546.962 914.27V914.284Z" fill="var(--fill-0, #282ADD)"/>
<path id="Vector_147" d="M549.912 913.712C476.427 811.727 535.527 644.702 681.934 540.653C828.34 436.604 1006.59 434.93 1080.08 536.928C1153.56 638.912 1094.46 805.938 948.056 909.987C801.649 1014.04 623.396 1015.71 549.898 913.712H549.912Z" fill="var(--fill-0, #2829DC)"/>
<path id="Vector_148" d="M552.862 913.126C479.869 811.825 538.617 645.902 684.069 542.523C829.534 439.143 1006.62 437.469 1079.61 538.77C1152.61 640.07 1093.86 805.993 948.407 909.373C802.942 1012.75 625.854 1014.43 552.862 913.14V913.126Z" fill="var(--fill-0, #2929DB)"/>
<path id="Vector_149" d="M555.812 912.54C483.311 811.923 541.694 647.102 686.204 544.392C830.714 441.682 1006.64 439.994 1079.14 540.611C1151.64 641.228 1093.25 806.049 948.745 908.759C804.22 1011.47 628.299 1013.16 555.812 912.554V912.54Z" fill="var(--fill-0, #2A28DA)"/>
<path id="Vector_150" d="M558.776 911.968C486.767 812.034 544.784 648.315 688.353 546.289C831.923 444.249 1006.68 442.547 1078.69 542.481C1150.7 642.414 1092.68 806.133 949.11 908.159C805.541 1010.2 630.785 1011.9 558.776 911.982V911.968Z" fill="var(--fill-0, #2A27D9)"/>
<path id="Vector_151" d="M561.726 911.382C490.222 812.146 547.875 649.515 690.489 548.159C833.117 446.802 1006.71 445.073 1078.21 544.322C1149.71 643.572 1092.07 806.189 949.447 907.545C806.819 1008.92 633.23 1010.63 561.726 911.396V911.382Z" fill="var(--fill-0, #2B26D8)"/>
<path id="Vector_152" d="M564.676 910.81C493.664 812.258 550.951 650.743 692.638 550.042C834.325 449.356 1006.73 447.626 1077.76 546.178C1148.77 644.73 1091.48 806.258 949.812 906.945C808.126 1007.65 635.702 1009.36 564.69 910.824L564.676 910.81Z" fill="var(--fill-0, #2C25D7)"/>
<path id="Vector_153" d="M567.626 910.224C497.106 812.355 554.028 651.943 694.773 551.912C835.505 451.895 1006.76 450.151 1077.28 548.005C1147.8 645.874 1090.88 806.286 950.149 906.303C809.404 1006.33 638.16 1008.06 567.64 910.21L567.626 910.224Z" fill="var(--fill-0, #2C24D7)"/>
<path id="Vector_154" d="M570.576 909.638C500.548 812.453 557.104 653.143 696.909 553.795C836.699 454.448 1006.79 452.69 1076.8 549.861C1146.83 647.046 1090.28 806.356 950.486 905.704C810.696 1005.05 640.605 1006.81 570.576 909.638Z" fill="var(--fill-0, #2D23D6)"/>
<path id="Vector_155" d="M573.526 909.066C504.003 812.578 560.195 654.356 699.044 555.679C837.893 457.001 1006.82 455.229 1076.34 551.716C1145.86 648.218 1089.67 806.426 950.838 905.104C811.989 1003.78 643.063 1005.55 573.54 909.066H573.526Z" fill="var(--fill-0, #2E22D5)"/>
<path id="Vector_156" d="M576.476 908.48C507.445 812.676 563.271 655.556 701.179 557.548C839.087 459.54 1006.83 457.754 1075.86 553.558C1144.89 649.362 1089.07 806.482 951.175 904.49C813.267 1002.5 645.507 1004.28 576.476 908.48Z" fill="var(--fill-0, #2E21D4)"/>
<path id="Vector_157" d="M579.44 907.894C510.901 812.774 566.362 656.756 703.328 559.418C840.281 462.079 1006.87 460.293 1075.41 555.4C1143.95 650.52 1088.49 806.537 951.54 903.862C814.573 1001.2 647.994 1002.99 579.454 907.88L579.44 907.894Z" fill="var(--fill-0, #2F20D3)"/>
<path id="Vector_158" d="M582.39 907.322C514.343 812.885 569.452 657.97 705.464 561.315C841.475 464.646 1006.9 462.846 1074.94 557.269C1142.98 651.706 1087.89 806.621 951.877 903.276C815.866 999.945 650.438 1001.74 582.39 907.322Z" fill="var(--fill-0, #3020D2)"/>
<path id="Vector_159" d="M585.34 906.736C517.798 812.983 572.529 659.184 707.599 563.184C842.669 467.185 1006.92 465.372 1074.47 559.111C1142.03 652.864 1087.28 806.677 952.214 902.662C817.144 998.661 652.883 1000.47 585.34 906.736Z" fill="var(--fill-0, #301FD1)"/>
<path id="Vector_160" d="M588.291 906.164C521.24 813.109 575.605 660.397 709.734 565.068C843.863 469.752 1006.94 467.911 1074 560.966C1141.05 654.022 1086.68 806.733 952.551 902.062C818.423 997.392 655.341 999.219 588.291 906.164Z" fill="var(--fill-0, #311ED0)"/>
<path id="Vector_161" d="M591.241 905.578C524.682 813.206 578.682 661.597 711.87 566.951C845.043 472.305 1006.97 470.45 1073.53 562.822C1140.09 655.193 1086.09 806.803 952.903 901.448C819.715 996.108 657.799 997.95 591.241 905.578Z" fill="var(--fill-0, #321DCF)"/>
<path id="Vector_162" d="M594.191 904.992C528.124 813.304 581.772 662.797 714.005 568.821C846.237 474.845 1006.99 472.989 1073.05 564.663C1139.12 656.351 1085.47 806.858 953.24 900.835C821.007 994.825 660.244 996.666 594.191 904.992Z" fill="var(--fill-0, #331CCE)"/>
<path id="Vector_163" d="M597.141 904.42C531.579 813.415 584.849 664.011 716.14 570.704C847.431 477.398 1007.02 475.528 1072.59 566.519C1138.17 657.523 1084.88 806.928 953.591 900.235C822.3 993.541 662.716 995.411 597.141 904.42Z" fill="var(--fill-0, #331BCD)"/>
<path id="Vector_164" d="M600.105 903.834C535.035 813.527 587.939 665.21 718.289 572.574C848.64 479.937 1007.06 478.053 1072.13 568.36C1137.2 658.667 1084.29 806.984 953.942 899.607C823.592 992.244 665.174 994.127 600.105 903.82V903.834Z" fill="var(--fill-0, #341ACC)"/>
<path id="Vector_165" d="M603.055 903.262C538.477 813.639 591.03 666.438 720.425 574.471C849.82 482.504 1007.07 480.607 1071.65 570.23C1136.23 659.853 1083.69 807.068 954.279 899.021C824.871 990.988 667.619 992.885 603.041 903.262H603.055Z" fill="var(--fill-0, #3519CB)"/>
<path id="Vector_166" d="M606.005 902.676C541.919 813.736 594.106 667.638 722.56 576.341C851.014 485.043 1007.1 483.132 1071.19 572.071C1135.27 661.011 1083.08 807.109 954.631 898.407C826.177 989.704 670.091 991.602 606.005 902.676Z" fill="var(--fill-0, #3518CA)"/>
<path id="Vector_167" d="M608.955 902.09C545.36 813.834 597.183 668.838 724.695 578.21C852.208 487.582 1007.13 485.671 1070.71 573.913C1134.3 662.169 1082.48 807.165 954.968 897.793C827.455 988.421 672.536 990.332 608.941 902.09H608.955Z" fill="var(--fill-0, #3617C9)"/>
<path id="Vector_168" d="M611.905 901.518C548.816 813.96 600.259 670.052 726.831 580.107C853.402 490.163 1007.14 488.224 1070.24 575.782C1133.33 663.355 1081.89 807.249 955.319 897.193C828.748 987.151 674.994 989.077 611.905 901.518Z" fill="var(--fill-0, #3717C8)"/>
<path id="Vector_169" d="M614.855 900.932C552.258 814.057 603.35 671.251 728.966 581.977C854.582 492.702 1007.17 490.749 1069.77 577.624C1132.36 664.499 1081.27 807.305 955.656 896.579C830.026 985.868 677.438 987.807 614.841 900.932H614.855Z" fill="var(--fill-0, #3716C7)"/>
<path id="Vector_170" d="M617.805 900.36C555.7 814.169 606.426 672.465 731.101 583.86C855.776 495.255 1007.2 493.288 1069.3 579.48C1131.41 665.671 1080.68 807.374 956.007 895.979C831.319 984.598 679.911 986.551 617.805 900.36Z" fill="var(--fill-0, #3815C6)"/>
<path id="Vector_171" d="M620.769 899.774C559.155 814.266 609.517 673.679 733.25 585.73C856.984 497.795 1007.23 495.827 1068.84 581.321C1130.45 666.829 1080.09 807.43 956.359 895.366C832.625 983.301 682.369 985.268 620.769 899.774Z" fill="var(--fill-0, #3914C5)"/>
<path id="Vector_172" d="M623.719 899.188C562.611 814.364 612.607 674.879 735.386 587.613C858.178 500.348 1007.25 498.367 1068.38 583.177C1129.48 668.001 1079.5 807.5 956.71 894.752C833.917 982.017 684.827 983.998 623.719 899.188Z" fill="var(--fill-0, #3913C4)"/>
<path id="Vector_173" d="M626.669 898.616C566.053 814.49 615.684 676.093 737.535 589.497C859.372 502.901 1007.3 500.906 1067.91 585.032C1128.53 669.159 1078.9 807.556 957.061 894.152C835.21 980.748 687.3 982.743 626.683 898.616H626.669Z" fill="var(--fill-0, #3A12C3)"/>
<path id="Vector_174" d="M629.619 898.03C569.495 814.587 618.76 677.292 739.67 591.366C860.566 505.44 1007.32 503.431 1067.45 586.874C1127.57 670.317 1078.31 807.612 957.412 893.538C836.502 979.464 689.758 981.473 629.633 898.03H629.619Z" fill="var(--fill-0, #3B11C2)"/>
<path id="Vector_175" d="M632.569 897.458C572.936 814.699 621.837 678.506 741.806 593.25C861.76 507.993 1007.34 505.97 1066.97 588.729C1126.6 671.489 1077.7 807.681 957.749 892.924C837.795 978.181 692.203 980.204 632.583 897.444L632.569 897.458Z" fill="var(--fill-0, #3C10C1)"/>
<path id="Vector_176" d="M635.519 896.872C576.392 814.797 624.927 679.706 743.941 595.133C862.954 510.546 1007.37 508.523 1066.49 590.585C1125.62 672.661 1077.09 807.751 958.086 892.324C839.073 976.911 694.661 978.934 635.519 896.872Z" fill="var(--fill-0, #3C0FC0)"/>
<path id="Vector_177" d="M638.484 896.286C579.848 814.908 628.018 680.906 746.09 597.002C864.148 513.099 1007.41 511.048 1066.04 592.426C1124.68 673.805 1076.51 807.807 958.452 891.71C840.379 975.628 697.133 977.664 638.498 896.286H638.484Z" fill="var(--fill-0, #3D0EBF)"/>
<path id="Vector_178" d="M641.434 895.714C583.289 815.02 631.094 682.133 748.225 598.886C865.342 515.652 1007.42 513.587 1065.57 594.282C1123.71 674.976 1075.91 807.877 958.789 891.11C841.658 974.358 699.578 976.409 641.434 895.714Z" fill="var(--fill-0, #3E0EBE)"/>
<path id="Vector_179" d="M644.384 895.128C586.731 815.117 634.185 683.333 750.361 600.769C866.536 518.205 1007.45 516.127 1065.1 596.137C1122.76 676.148 1075.3 807.933 959.14 890.496C842.964 973.074 702.05 975.139 644.398 895.128H644.384Z" fill="var(--fill-0, #3E0DBD)"/>
<path id="Vector_180" d="M647.334 894.556C590.173 815.229 637.261 684.547 752.496 602.653C867.731 520.758 1007.48 518.666 1064.63 597.993C1121.79 677.32 1074.7 808.002 959.477 889.897C844.242 971.791 704.494 973.87 647.334 894.556Z" fill="var(--fill-0, #3F0CBC)"/>
<path id="Vector_181" d="M650.284 893.97C593.629 815.341 640.338 685.747 754.631 604.522C868.925 523.298 1007.49 521.205 1064.16 599.835C1120.82 678.464 1074.11 808.058 959.814 889.283C845.521 970.507 706.939 972.6 650.284 893.97Z" fill="var(--fill-0, #400BBB)"/>
<path id="Vector_182" d="M653.234 893.384C597.07 815.438 643.414 686.947 756.766 606.392C870.105 525.837 1007.52 523.73 1063.68 601.676C1119.85 679.622 1073.5 808.114 960.151 888.655C846.799 969.21 709.397 971.317 653.22 893.371L653.234 893.384Z" fill="var(--fill-0, #400ABA)"/>
<path id="Vector_183" d="M656.184 892.813C600.512 815.55 646.505 688.16 758.902 608.289C871.299 528.404 1007.55 526.283 1063.22 603.546C1118.89 680.808 1072.9 808.198 960.503 888.069C848.106 967.954 711.856 970.075 656.184 892.813Z" fill="var(--fill-0, #4109B9)"/>
<path id="Vector_184" d="M659.148 892.227C603.968 815.648 649.595 689.374 761.051 610.159C872.507 530.943 1007.58 528.808 1062.76 605.387C1117.94 681.966 1072.31 808.253 960.854 887.455C849.398 966.671 714.314 968.805 659.148 892.227Z" fill="var(--fill-0, #4208B8)"/>
<path id="Vector_185" d="M662.098 891.641C607.424 815.759 652.672 690.574 763.186 612.028C873.701 533.496 1007.61 531.347 1062.29 607.229C1116.97 683.11 1071.72 808.309 961.205 886.841C850.691 965.387 716.772 967.522 662.098 891.641Z" fill="var(--fill-0, #4207B7)"/>
<path id="Vector_186" d="M665.048 891.069C610.865 815.871 655.762 691.788 765.322 613.925C874.881 536.063 1007.63 533.901 1061.82 609.098C1116 684.296 1071.1 808.379 961.542 886.241C851.969 964.118 719.231 966.266 665.048 891.069Z" fill="var(--fill-0, #4306B6)"/>
<path id="Vector_187" d="M667.998 890.483C614.307 815.969 658.839 692.988 767.457 615.795C876.075 538.602 1007.65 536.426 1061.34 610.94C1115.03 685.454 1070.5 808.435 961.879 885.628C853.261 962.834 721.675 964.997 667.984 890.483H667.998Z" fill="var(--fill-0, #4405B5)"/>
<path id="Vector_188" d="M670.948 889.911C617.749 816.08 661.915 694.201 769.592 617.678C877.269 541.155 1007.68 538.965 1060.87 612.795C1114.07 686.626 1069.91 808.505 962.23 885.028C854.554 961.551 724.133 963.741 670.948 889.911Z" fill="var(--fill-0, #4505B4)"/>
<path id="Vector_189" d="M673.898 889.325C621.205 816.178 664.992 695.401 771.727 619.548C878.463 543.694 1007.7 541.49 1060.4 614.637C1113.09 687.784 1069.3 808.56 962.568 884.414C855.832 960.267 726.592 962.471 673.884 889.325H673.898Z" fill="var(--fill-0, #4504B3)"/>
<path id="Vector_190" d="M676.848 888.739C624.646 816.289 668.082 696.615 773.863 621.431C879.643 546.247 1007.73 544.043 1059.93 616.492C1112.14 688.942 1068.7 808.63 962.919 883.8C857.124 958.984 729.05 961.188 676.848 888.739Z" fill="var(--fill-0, #4603B2)"/>
<path id="Vector_191" d="M679.812 888.167C628.102 816.401 671.173 697.829 776.012 623.315C880.851 548.801 1007.76 546.582 1059.47 618.348C1111.18 690.114 1068.11 808.7 963.27 883.2C858.431 957.714 731.508 959.932 679.798 888.181L679.812 888.167Z" fill="var(--fill-0, #4702B1)"/>
<path id="Vector_192" d="M682.762 887.581C631.544 816.499 674.249 699.029 778.147 625.184C882.045 551.34 1007.79 549.108 1059.01 620.19C1110.22 691.272 1067.52 808.742 963.621 882.586C859.723 956.431 733.981 958.663 682.762 887.595V887.581Z" fill="var(--fill-0, #4701B0)"/>
<path id="Vector_193" d="M685.712 887.009C634.986 816.61 677.34 700.242 780.283 627.068C883.239 553.893 1007.82 551.647 1058.53 622.045C1109.24 692.443 1066.9 808.812 963.958 881.972C861.002 955.147 736.425 957.393 685.698 887.009H685.712Z" fill="var(--fill-0, #4800AF)"/>
</g>
</svg>
