<svg xmlns="http://www.w3.org/2000/svg" viewBox="0 0 1000 1000" width="1000" height="1000">
<defs>
<linearGradient id="paint0_linear_0_465_0" x1="172.126" y1="1347.5" x2="895.259" y2="95.19" gradientUnits="userSpaceOnUse">
<stop stop-color="#FAFFFF"/>
<stop offset="1" stop-color="#FEFFFB"/>
</linearGradient>
<linearGradient id="paint0_linear_0_362_1" x1="172.294" y1="1337.71" x2="890.476" y2="93.9824" gradientUnits="userSpaceOnUse">
<stop stop-color="#F6FFFF"/>
<stop offset="1" stop-color="#FEFFF6"/>
</linearGradient>
<linearGradient id="paint0_linear_0_369_2" x1="172.545" y1="1327.8" x2="885.627" y2="92.9045" gradientUnits="userSpaceOnUse">
<stop stop-color="#F1FFFE"/>
<stop offset="1" stop-color="#FDFFF2"/>
</linearGradient>
<linearGradient id="paint0_linear_0_459_3" x1="172.605" y1="1317.91" x2="880.675" y2="91.6914" gradientUnits="userSpaceOnUse">
<stop stop-color="#ECFFFE"/>
<stop offset="1" stop-color="#FCFFEE"/>
</linearGradient>
<linearGradient id="paint0_linear_0_464_4" x1="172.758" y1="1308.11" x2="875.843" y2="90.5221" gradientUnits="userSpaceOnUse">
<stop stop-color="#E8FFFE"/>
<stop offset="1" stop-color="#FCFFEA"/>
</linearGradient>
<linearGradient id="paint0_linear_0_415_5" x1="172.894" y1="1298.32" x2="871.002" y2="89.3603" gradientUnits="userSpaceOnUse">
<stop stop-color="#E3FFFE"/>
<stop offset="1" stop-color="#FBFFE5"/>
</linearGradient>
<linearGradient id="paint0_linear_0_447_6" x1="173.032" y1="1288.55" x2="866.172" y2="88.1891" gradientUnits="userSpaceOnUse">
<stop stop-color="#DFFFFD"/>
<stop offset="1" stop-color="#FBFFE1"/>
</linearGradient>
<linearGradient id="paint0_linear_0_337_7" x1="173.168" y1="1278.8" x2="861.349" y2="87.0265" gradientUnits="userSpaceOnUse">
<stop stop-color="#DAFFFD"/>
<stop offset="1" stop-color="#FAFFDD"/>
</linearGradient>
<linearGradient id="paint0_linear_0_453_8" x1="173.298" y1="1269.06" x2="856.529" y2="85.8635" gradientUnits="userSpaceOnUse">
<stop stop-color="#D5FFFD"/>
<stop offset="1" stop-color="#F9FFD9"/>
</linearGradient>
<linearGradient id="paint0_linear_0_358_9" x1="173.416" y1="1259.35" x2="851.704" y2="84.7088" gradientUnits="userSpaceOnUse">
<stop stop-color="#D1FFFD"/>
<stop offset="1" stop-color="#F9FFD4"/>
</linearGradient>
<linearGradient id="paint0_linear_0_449_10" x1="173.525" y1="1249.65" x2="846.881" y2="83.5447" gradientUnits="userSpaceOnUse">
<stop stop-color="#CCFFFD"/>
<stop offset="1" stop-color="#F8FFD0"/>
</linearGradient>
<linearGradient id="paint0_linear_0_437_11" x1="173.638" y1="1239.97" x2="842.069" y2="82.3886" gradientUnits="userSpaceOnUse">
<stop stop-color="#C7FFFC"/>
<stop offset="1" stop-color="#F7FFCC"/>
</linearGradient>
<linearGradient id="paint0_linear_0_243_12" x1="174.173" y1="1230.55" x2="838.583" y2="79.9362" gradientUnits="userSpaceOnUse">
<stop stop-color="#C3FFFC"/>
<stop offset="1" stop-color="#F7FFC8"/>
</linearGradient>
<linearGradient id="paint0_linear_0_394_13" x1="174.292" y1="1220.95" x2="833.856" y2="78.7339" gradientUnits="userSpaceOnUse">
<stop stop-color="#BEFFFC"/>
<stop offset="1" stop-color="#F6FFC3"/>
</linearGradient>
<linearGradient id="paint0_linear_0_374_14" x1="174.393" y1="1211.37" x2="829.129" y2="77.5184" gradientUnits="userSpaceOnUse">
<stop stop-color="#BAFFFC"/>
<stop offset="1" stop-color="#F6FFBF"/>
</linearGradient>
<linearGradient id="paint0_linear_0_443_15" x1="174.487" y1="1201.8" x2="824.395" y2="76.3162" gradientUnits="userSpaceOnUse">
<stop stop-color="#B5FFFC"/>
<stop offset="1" stop-color="#F5FFBB"/>
</linearGradient>
<linearGradient id="paint0_linear_0_440_16" x1="174.583" y1="1192.25" x2="819.664" y2="75.1097" gradientUnits="userSpaceOnUse">
<stop stop-color="#B0FFFB"/>
<stop offset="1" stop-color="#F4FFB7"/>
</linearGradient>
<linearGradient id="paint0_linear_0_381_17" x1="174.666" y1="1182.71" x2="814.945" y2="73.8994" gradientUnits="userSpaceOnUse">
<stop stop-color="#ACFFFB"/>
<stop offset="1" stop-color="#F4FFB2"/>
</linearGradient>
<linearGradient id="paint0_linear_0_456_18" x1="174.73" y1="1173.19" x2="810.208" y2="72.693" gradientUnits="userSpaceOnUse">
<stop stop-color="#A7FFFB"/>
<stop offset="1" stop-color="#F3FFAE"/>
</linearGradient>
<linearGradient id="paint0_linear_0_325_19" x1="174.801" y1="1163.69" x2="805.486" y2="71.4826" gradientUnits="userSpaceOnUse">
<stop stop-color="#A2FFFB"/>
<stop offset="1" stop-color="#F2FFAA"/>
</linearGradient>
<linearGradient id="paint0_linear_0_451_20" x1="174.309" y1="1153.63" x2="798.931" y2="71.9316" gradientUnits="userSpaceOnUse">
<stop stop-color="#9EFFFA"/>
<stop offset="1" stop-color="#F2FFA6"/>
</linearGradient>
<linearGradient id="paint0_linear_0_367_21" x1="174.348" y1="1144.12" x2="794.159" y2="70.7468" gradientUnits="userSpaceOnUse">
<stop stop-color="#99FFFA"/>
<stop offset="1" stop-color="#F1FFA1"/>
</linearGradient>
<linearGradient id="paint0_linear_0_434_22" x1="174.385" y1="1134.63" x2="789.394" y2="69.5566" gradientUnits="userSpaceOnUse">
<stop stop-color="#95FFFA"/>
<stop offset="1" stop-color="#F1FF9D"/>
</linearGradient>
<linearGradient id="paint0_linear_0_330_23" x1="174.603" y1="1125.1" x2="784.838" y2="68.2996" gradientUnits="userSpaceOnUse">
<stop stop-color="#90FFFA"/>
<stop offset="1" stop-color="#F0FF99"/>
</linearGradient>
<linearGradient id="paint0_linear_0_290_24" x1="174.618" y1="1115.64" x2="780.095" y2="67.099" gradientUnits="userSpaceOnUse">
<stop stop-color="#8BFFFA"/>
<stop offset="1" stop-color="#EFFF95"/>
</linearGradient>
<linearGradient id="paint0_linear_0_427_25" x1="174.617" y1="1106.2" x2="775.336" y2="65.8935" gradientUnits="userSpaceOnUse">
<stop stop-color="#87FFF9"/>
<stop offset="1" stop-color="#EFFF90"/>
</linearGradient>
<linearGradient id="paint0_linear_0_421_26" x1="174.62" y1="1096.78" x2="770.598" y2="64.6829" gradientUnits="userSpaceOnUse">
<stop stop-color="#82FFF9"/>
<stop offset="1" stop-color="#EEFF8C"/>
</linearGradient>
<linearGradient id="paint0_linear_0_382_27" x1="174.603" y1="1087.38" x2="765.859" y2="63.4683" gradientUnits="userSpaceOnUse">
<stop stop-color="#7DFFF9"/>
<stop offset="1" stop-color="#EDFF88"/>
</linearGradient>
<linearGradient id="paint0_linear_0_355_28" x1="174.578" y1="1078.01" x2="761.12" y2="62.2403" gradientUnits="userSpaceOnUse">
<stop stop-color="#79FFF9"/>
<stop offset="1" stop-color="#EDFF84"/>
</linearGradient>
<linearGradient id="paint0_linear_0_351_29" x1="174.542" y1="1068.65" x2="756.397" y2="61.0168" gradientUnits="userSpaceOnUse">
<stop stop-color="#74FFF9"/>
<stop offset="1" stop-color="#ECFF7F"/>
</linearGradient>
<linearGradient id="paint0_linear_0_244_30" x1="174.504" y1="1059.32" x2="751.679" y2="59.781" gradientUnits="userSpaceOnUse">
<stop stop-color="#70FFF8"/>
<stop offset="1" stop-color="#ECFF7B"/>
</linearGradient>
<linearGradient id="paint0_linear_0_430_31" x1="174.443" y1="1050.02" x2="746.957" y2="58.5418" gradientUnits="userSpaceOnUse">
<stop stop-color="#6BFFF8"/>
<stop offset="1" stop-color="#EBFF77"/>
</linearGradient>
<linearGradient id="paint0_linear_0_452_32" x1="174.386" y1="1040.73" x2="742.256" y2="57.299" gradientUnits="userSpaceOnUse">
<stop stop-color="#66FFF8"/>
<stop offset="1" stop-color="#EAFF73"/>
</linearGradient>
<linearGradient id="paint0_linear_0_401_33" x1="174.312" y1="1031.47" x2="737.556" y2="56.0535" gradientUnits="userSpaceOnUse">
<stop stop-color="#62FFF8"/>
<stop offset="1" stop-color="#EAFF6E"/>
</linearGradient>
<linearGradient id="paint0_linear_0_334_34" x1="174.221" y1="1022.23" x2="732.856" y2="54.7971" gradientUnits="userSpaceOnUse">
<stop stop-color="#5DFFF7"/>
<stop offset="1" stop-color="#E9FF6A"/>
</linearGradient>
<linearGradient id="paint0_linear_0_416_35" x1="174.124" y1="1013.03" x2="728.176" y2="53.5383" gradientUnits="userSpaceOnUse">
<stop stop-color="#58FFF7"/>
<stop offset="1" stop-color="#E8FF66"/>
</linearGradient>
<linearGradient id="paint0_linear_0_277_36" x1="173.842" y1="1003.89" x2="723.321" y2="52.3299" gradientUnits="userSpaceOnUse">
<stop stop-color="#54FFF7"/>
<stop offset="1" stop-color="#E8FF62"/>
</linearGradient>
<linearGradient id="paint0_linear_0_248_37" x1="173.739" y1="994.735" x2="718.662" y2="51.05" gradientUnits="userSpaceOnUse">
<stop stop-color="#4FFFF7"/>
<stop offset="1" stop-color="#E7FF5D"/>
</linearGradient>
<linearGradient id="paint0_linear_0_414_38" x1="173.617" y1="985.606" x2="714.01" y2="49.7696" gradientUnits="userSpaceOnUse">
<stop stop-color="#4BFFF7"/>
<stop offset="1" stop-color="#E7FF59"/>
</linearGradient>
<linearGradient id="paint0_linear_0_365_39" x1="173.476" y1="976.51" x2="709.357" y2="48.4797" gradientUnits="userSpaceOnUse">
<stop stop-color="#46FFF6"/>
<stop offset="1" stop-color="#E6FF55"/>
</linearGradient>
<linearGradient id="paint0_linear_0_396_40" x1="173.329" y1="967.45" x2="704.724" y2="47.199" gradientUnits="userSpaceOnUse">
<stop stop-color="#41FFF6"/>
<stop offset="1" stop-color="#E5FF51"/>
</linearGradient>
<linearGradient id="paint0_linear_0_412_41" x1="173.16" y1="958.425" x2="700.094" y2="45.9009" gradientUnits="userSpaceOnUse">
<stop stop-color="#3DFFF6"/>
<stop offset="1" stop-color="#E5FF4C"/>
</linearGradient>
<linearGradient id="paint0_linear_0_356_42" x1="172.998" y1="949.437" x2="695.482" y2="44.6051" gradientUnits="userSpaceOnUse">
<stop stop-color="#38FFF6"/>
<stop offset="1" stop-color="#E4FF48"/>
</linearGradient>
<linearGradient id="paint0_linear_0_231_43" x1="172.806" y1="940.477" x2="690.882" y2="43.3014" gradientUnits="userSpaceOnUse">
<stop stop-color="#33FFF6"/>
<stop offset="1" stop-color="#E3FF44"/>
</linearGradient>
<linearGradient id="paint0_linear_0_425_44" x1="172.607" y1="931.554" x2="686.284" y2="41.9912" gradientUnits="userSpaceOnUse">
<stop stop-color="#2FFFF5"/>
<stop offset="1" stop-color="#E3FF40"/>
</linearGradient>
<linearGradient id="paint0_linear_0_408_45" x1="172.405" y1="922.679" x2="681.71" y2="40.6765" gradientUnits="userSpaceOnUse">
<stop stop-color="#2AFFF5"/>
<stop offset="1" stop-color="#E2FF3B"/>
</linearGradient>
<linearGradient id="paint0_linear_0_407_46" x1="172.181" y1="913.835" x2="677.15" y2="39.3576" gradientUnits="userSpaceOnUse">
<stop stop-color="#26FFF5"/>
<stop offset="1" stop-color="#E2FF37"/>
</linearGradient>
<linearGradient id="paint0_linear_0_404_47" x1="171.951" y1="905.038" x2="672.591" y2="38.034" gradientUnits="userSpaceOnUse">
<stop stop-color="#21FFF5"/>
<stop offset="1" stop-color="#E1FF33"/>
</linearGradient>
<linearGradient id="paint0_linear_0_428_48" x1="171.699" y1="896.284" x2="668.054" y2="36.709" gradientUnits="userSpaceOnUse">
<stop stop-color="#1CFFF4"/>
<stop offset="1" stop-color="#E0FF2F"/>
</linearGradient>
<linearGradient id="paint0_linear_0_413_49" x1="171.474" y1="887.653" x2="663.658" y2="35.2966" gradientUnits="userSpaceOnUse">
<stop stop-color="#18FFF4"/>
<stop offset="1" stop-color="#E0FF2A"/>
</linearGradient>
<linearGradient id="paint0_linear_0_398_50" x1="171.154" y1="878.903" x2="659.01" y2="34.0536" gradientUnits="userSpaceOnUse">
<stop stop-color="#13FFF4"/>
<stop offset="1" stop-color="#DFFF26"/>
</linearGradient>
<linearGradient id="paint0_linear_0_397_51" x1="171.246" y1="873.927" x2="656.211" y2="34.0713" gradientUnits="userSpaceOnUse">
<stop stop-color="#18FCF3"/>
<stop offset="0.51" stop-color="#7DFE8C"/>
<stop offset="1" stop-color="#DBFF2A"/>
</linearGradient>
<linearGradient id="paint0_linear_0_392_52" x1="171.331" y1="868.961" x2="653.422" y2="34.0903" gradientUnits="userSpaceOnUse">
<stop stop-color="#1CF9F2"/>
<stop offset="0.51" stop-color="#7EFC8E"/>
<stop offset="1" stop-color="#D7FF2E"/>
</linearGradient>
<linearGradient id="paint0_linear_0_375_53" x1="171.438" y1="863.997" x2="650.646" y2="34.1106" gradientUnits="userSpaceOnUse">
<stop stop-color="#21F6F1"/>
<stop offset="0.51" stop-color="#7FFB8F"/>
<stop offset="1" stop-color="#D3FF32"/>
</linearGradient>
<linearGradient id="paint0_linear_0_426_54" x1="171.527" y1="859.008" x2="647.861" y2="34.1071" gradientUnits="userSpaceOnUse">
<stop stop-color="#26F4F0"/>
<stop offset="0.51" stop-color="#80F991"/>
<stop offset="1" stop-color="#CFFF36"/>
</linearGradient>
<linearGradient id="paint0_linear_0_387_55" x1="171.622" y1="854.055" x2="645.083" y2="34.1302" gradientUnits="userSpaceOnUse">
<stop stop-color="#2AF1EF"/>
<stop offset="0.51" stop-color="#81F893"/>
<stop offset="1" stop-color="#CBFF3A"/>
</linearGradient>
<linearGradient id="paint0_linear_0_377_56" x1="171.717" y1="849.104" x2="642.304" y2="34.1545" gradientUnits="userSpaceOnUse">
<stop stop-color="#2FEEEF"/>
<stop offset="0.51" stop-color="#82F695"/>
<stop offset="1" stop-color="#C7FF3E"/>
</linearGradient>
<linearGradient id="paint0_linear_0_411_57" x1="171.827" y1="844.146" x2="639.54" y2="34.1639" gradientUnits="userSpaceOnUse">
<stop stop-color="#33EBEE"/>
<stop offset="0.51" stop-color="#83F597"/>
<stop offset="1" stop-color="#C3FF42"/>
</linearGradient>
<linearGradient id="paint0_linear_0_409_58" x1="171.928" y1="839.197" x2="636.776" y2="34.1911" gradientUnits="userSpaceOnUse">
<stop stop-color="#38E8ED"/>
<stop offset="0.51" stop-color="#84F398"/>
<stop offset="1" stop-color="#BFFF46"/>
</linearGradient>
<linearGradient id="paint0_linear_0_383_59" x1="172.047" y1="834.168" x2="633.924" y2="34.2952" gradientUnits="userSpaceOnUse">
<stop stop-color="#3DE5EC"/>
<stop offset="0.51" stop-color="#85F29A"/>
<stop offset="1" stop-color="#BBFF4A"/>
</linearGradient>
<linearGradient id="paint0_linear_0_370_60" x1="172.148" y1="829.216" x2="631.16" y2="34.3109" gradientUnits="userSpaceOnUse">
<stop stop-color="#41E3EB"/>
<stop offset="0.51" stop-color="#86F09C"/>
<stop offset="1" stop-color="#B7FF4E"/>
</linearGradient>
<linearGradient id="paint0_linear_0_315_61" x1="172.267" y1="824.276" x2="628.396" y2="34.3559" gradientUnits="userSpaceOnUse">
<stop stop-color="#46E0EA"/>
<stop offset="0.51" stop-color="#87EF9E"/>
<stop offset="1" stop-color="#B3FF52"/>
</linearGradient>
<linearGradient id="paint0_linear_0_340_62" x1="172.258" y1="819.338" x2="625.505" y2="34.4112" gradientUnits="userSpaceOnUse">
<stop stop-color="#4BDDE9"/>
<stop offset="0.51" stop-color="#88EEA0"/>
<stop offset="1" stop-color="#AFFF56"/>
</linearGradient>
<linearGradient id="paint0_linear_0_380_63" x1="172.362" y1="814.394" x2="622.743" y2="34.4432" gradientUnits="userSpaceOnUse">
<stop stop-color="#4FDAE8"/>
<stop offset="0.51" stop-color="#8AECA1"/>
<stop offset="1" stop-color="#ABFF5A"/>
</linearGradient>
<linearGradient id="paint0_linear_0_258_64" x1="172.454" y1="809.442" x2="619.97" y2="34.4496" gradientUnits="userSpaceOnUse">
<stop stop-color="#54D7E7"/>
<stop offset="0.51" stop-color="#8BEBA3"/>
<stop offset="1" stop-color="#A7FF5E"/>
</linearGradient>
<linearGradient id="paint0_linear_0_378_65" x1="172.57" y1="804.511" x2="617.212" y2="34.4775" gradientUnits="userSpaceOnUse">
<stop stop-color="#58D4E6"/>
<stop offset="0.51" stop-color="#8CE9A5"/>
<stop offset="1" stop-color="#A3FF62"/>
</linearGradient>
<linearGradient id="paint0_linear_0_331_66" x1="172.672" y1="799.582" x2="614.467" y2="34.4974" gradientUnits="userSpaceOnUse">
<stop stop-color="#5DD2E6"/>
<stop offset="0.51" stop-color="#8DE8A7"/>
<stop offset="1" stop-color="#9FFF66"/>
</linearGradient>
<linearGradient id="paint0_linear_0_410_67" x1="172.783" y1="794.655" x2="611.722" y2="34.5201" gradientUnits="userSpaceOnUse">
<stop stop-color="#62CFE5"/>
<stop offset="0.51" stop-color="#8EE6A9"/>
<stop offset="1" stop-color="#9BFF6A"/>
</linearGradient>
<linearGradient id="paint0_linear_0_402_68" x1="172.895" y1="789.72" x2="608.977" y2="34.5263" gradientUnits="userSpaceOnUse">
<stop stop-color="#66CCE4"/>
<stop offset="0.51" stop-color="#8FE5AA"/>
<stop offset="1" stop-color="#97FF6E"/>
</linearGradient>
<linearGradient id="paint0_linear_0_438_69" x1="173.017" y1="784.798" x2="606.243" y2="34.5449" gradientUnits="userSpaceOnUse">
<stop stop-color="#6BC9E3"/>
<stop offset="0.51" stop-color="#90E3AC"/>
<stop offset="1" stop-color="#93FF72"/>
</linearGradient>
<linearGradient id="paint0_linear_0_457_70" x1="173.137" y1="779.868" x2="603.523" y2="34.5471" gradientUnits="userSpaceOnUse">
<stop stop-color="#70C6E2"/>
<stop offset="0.51" stop-color="#91E2AE"/>
<stop offset="1" stop-color="#8FFF76"/>
</linearGradient>
<linearGradient id="paint0_linear_0_372_71" x1="173.26" y1="774.949" x2="600.79" y2="34.5609" gradientUnits="userSpaceOnUse">
<stop stop-color="#74C3E1"/>
<stop offset="0.51" stop-color="#92E1B0"/>
<stop offset="1" stop-color="#8BFF7A"/>
</linearGradient>
<linearGradient id="paint0_linear_0_371_72" x1="173.381" y1="770.06" x2="598.073" y2="34.5862" gradientUnits="userSpaceOnUse">
<stop stop-color="#79C0E0"/>
<stop offset="0.51" stop-color="#93DFB2"/>
<stop offset="1" stop-color="#87FF7E"/>
</linearGradient>
<linearGradient id="paint0_linear_0_366_73" x1="173.503" y1="765.128" x2="595.356" y2="34.5776" gradientUnits="userSpaceOnUse">
<stop stop-color="#7DBEDF"/>
<stop offset="0.51" stop-color="#94DEB3"/>
<stop offset="1" stop-color="#83FF82"/>
</linearGradient>
<linearGradient id="paint0_linear_0_360_74" x1="173.642" y1="760.225" x2="592.655" y2="34.5806" gradientUnits="userSpaceOnUse">
<stop stop-color="#82BBDE"/>
<stop offset="0.51" stop-color="#95DCB5"/>
<stop offset="1" stop-color="#7FFF86"/>
</linearGradient>
<linearGradient id="paint0_linear_0_454_75" x1="173.769" y1="755.333" x2="589.952" y2="34.5944" gradientUnits="userSpaceOnUse">
<stop stop-color="#87B8DD"/>
<stop offset="0.51" stop-color="#96DBB7"/>
<stop offset="1" stop-color="#7BFF8A"/>
</linearGradient>
<linearGradient id="paint0_linear_0_455_76" x1="173.897" y1="750.426" x2="587.26" y2="34.5846" gradientUnits="userSpaceOnUse">
<stop stop-color="#8BB5DD"/>
<stop offset="0.51" stop-color="#97D9B9"/>
<stop offset="1" stop-color="#77FF8D"/>
</linearGradient>
<linearGradient id="paint0_linear_0_359_77" x1="174.024" y1="745.547" x2="584.565" y2="34.5945" gradientUnits="userSpaceOnUse">
<stop stop-color="#90B2DC"/>
<stop offset="0.51" stop-color="#98D8BB"/>
<stop offset="1" stop-color="#73FF91"/>
</linearGradient>
<linearGradient id="paint0_linear_0_357_78" x1="174.175" y1="740.645" x2="581.886" y2="34.5801" gradientUnits="userSpaceOnUse">
<stop stop-color="#95AFDB"/>
<stop offset="0.51" stop-color="#99D6BD"/>
<stop offset="1" stop-color="#6FFF95"/>
</linearGradient>
<linearGradient id="paint0_linear_0_335_79" x1="174.313" y1="735.762" x2="579.211" y2="34.5686" gradientUnits="userSpaceOnUse">
<stop stop-color="#99ADDA"/>
<stop offset="0.51" stop-color="#9AD5BE"/>
<stop offset="1" stop-color="#6BFF99"/>
</linearGradient>
<linearGradient id="paint0_linear_0_363_80" x1="174.447" y1="730.882" x2="576.532" y2="34.5679" gradientUnits="userSpaceOnUse">
<stop stop-color="#9EAAD9"/>
<stop offset="0.51" stop-color="#9BD3C0"/>
<stop offset="1" stop-color="#67FF9D"/>
</linearGradient>
<linearGradient id="paint0_linear_0_352_81" x1="174.585" y1="726.004" x2="573.867" y2="34.5437" gradientUnits="userSpaceOnUse">
<stop stop-color="#A2A7D8"/>
<stop offset="0.51" stop-color="#9CD2C2"/>
<stop offset="1" stop-color="#63FFA1"/>
</linearGradient>
<linearGradient id="paint0_linear_0_395_82" x1="174.73" y1="721.147" x2="571.199" y2="34.5479" gradientUnits="userSpaceOnUse">
<stop stop-color="#A7A4D7"/>
<stop offset="0.51" stop-color="#9DD1C4"/>
<stop offset="1" stop-color="#5FFFA5"/>
</linearGradient>
<linearGradient id="paint0_linear_0_364_83" x1="174.88" y1="716.273" x2="568.554" y2="34.5192" gradientUnits="userSpaceOnUse">
<stop stop-color="#ACA1D6"/>
<stop offset="0.51" stop-color="#9ECFC6"/>
<stop offset="1" stop-color="#5BFFA9"/>
</linearGradient>
<linearGradient id="paint0_linear_0_347_84" x1="175.019" y1="711.403" x2="565.898" y2="34.4933" gradientUnits="userSpaceOnUse">
<stop stop-color="#B09ED5"/>
<stop offset="0.51" stop-color="#9FCEC7"/>
<stop offset="1" stop-color="#57FFAD"/>
</linearGradient>
<linearGradient id="paint0_linear_0_353_85" x1="175.164" y1="706.561" x2="563.256" y2="34.4783" gradientUnits="userSpaceOnUse">
<stop stop-color="#B59BD4"/>
<stop offset="0.51" stop-color="#A0CCC9"/>
<stop offset="1" stop-color="#53FFB1"/>
</linearGradient>
<linearGradient id="paint0_linear_0_346_86" x1="175.312" y1="701.695" x2="560.61" y2="34.4486" gradientUnits="userSpaceOnUse">
<stop stop-color="#BA99D4"/>
<stop offset="0.51" stop-color="#A1CBCB"/>
<stop offset="1" stop-color="#4FFFB5"/>
</linearGradient>
<linearGradient id="paint0_linear_0_344_87" x1="175.478" y1="696.858" x2="557.998" y2="34.4211" gradientUnits="userSpaceOnUse">
<stop stop-color="#BE96D3"/>
<stop offset="0.51" stop-color="#A2C9CD"/>
<stop offset="1" stop-color="#4BFFB9"/>
</linearGradient>
<linearGradient id="paint0_linear_0_343_88" x1="175.633" y1="692.015" x2="555.375" y2="34.3783" gradientUnits="userSpaceOnUse">
<stop stop-color="#C393D2"/>
<stop offset="0.51" stop-color="#A3C8CF"/>
<stop offset="1" stop-color="#47FFBD"/>
</linearGradient>
<linearGradient id="paint0_linear_0_341_89" x1="175.782" y1="687.174" x2="552.756" y2="34.3471" gradientUnits="userSpaceOnUse">
<stop stop-color="#C790D1"/>
<stop offset="0.51" stop-color="#A5C6D0"/>
<stop offset="1" stop-color="#43FFC1"/>
</linearGradient>
<linearGradient id="paint0_linear_0_339_90" x1="175.938" y1="682.344" x2="550.143" y2="34.3093" gradientUnits="userSpaceOnUse">
<stop stop-color="#CC8DD0"/>
<stop offset="0.51" stop-color="#A6C5D2"/>
<stop offset="1" stop-color="#3FFFC5"/>
</linearGradient>
<linearGradient id="paint0_linear_0_333_91" x1="176.111" y1="677.526" x2="547.556" y2="34.2654" gradientUnits="userSpaceOnUse">
<stop stop-color="#D18ACF"/>
<stop offset="0.51" stop-color="#A7C4D4"/>
<stop offset="1" stop-color="#3BFFC9"/>
</linearGradient>
<linearGradient id="paint0_linear_0_446_92" x1="176.263" y1="672.701" x2="544.957" y2="34.2151" gradientUnits="userSpaceOnUse">
<stop stop-color="#D588CE"/>
<stop offset="0.51" stop-color="#A8C2D6"/>
<stop offset="1" stop-color="#37FFCD"/>
</linearGradient>
<linearGradient id="paint0_linear_0_338_93" x1="176.431" y1="667.887" x2="542.374" y2="34.1587" gradientUnits="userSpaceOnUse">
<stop stop-color="#DA85CD"/>
<stop offset="0.51" stop-color="#A9C1D8"/>
<stop offset="1" stop-color="#33FFD1"/>
</linearGradient>
<linearGradient id="paint0_linear_0_271_94" x1="176.596" y1="663.085" x2="539.787" y2="34.1046" gradientUnits="userSpaceOnUse">
<stop stop-color="#DF82CC"/>
<stop offset="0.51" stop-color="#AABFD9"/>
<stop offset="1" stop-color="#2FFFD5"/>
</linearGradient>
<linearGradient id="paint0_linear_0_304_95" x1="176.795" y1="658.285" x2="537.279" y2="34.0093" gradientUnits="userSpaceOnUse">
<stop stop-color="#E37FCB"/>
<stop offset="0.51" stop-color="#ABBEDB"/>
<stop offset="1" stop-color="#2BFFD9"/>
</linearGradient>
<linearGradient id="paint0_linear_0_261_96" x1="176.955" y1="653.488" x2="534.705" y2="33.9515" gradientUnits="userSpaceOnUse">
<stop stop-color="#E87CCB"/>
<stop offset="0.51" stop-color="#ACBCDD"/>
<stop offset="1" stop-color="#27FFDD"/>
</linearGradient>
<linearGradient id="paint0_linear_0_326_97" x1="177.106" y1="648.69" x2="532.183" y2="33.7704" gradientUnits="userSpaceOnUse">
<stop stop-color="#EC79CA"/>
<stop offset="0.51" stop-color="#ADBBDF"/>
<stop offset="1" stop-color="#23FFE1"/>
</linearGradient>
<linearGradient id="paint0_linear_0_320_98" x1="177.26" y1="643.913" x2="529.604" y2="33.724" gradientUnits="userSpaceOnUse">
<stop stop-color="#F177C9"/>
<stop offset="0.51" stop-color="#AEB9E1"/>
<stop offset="1" stop-color="#1FFFE5"/>
</linearGradient>
<linearGradient id="paint0_linear_0_317_99" x1="177.432" y1="639.148" x2="527.051" y2="33.6893" gradientUnits="userSpaceOnUse">
<stop stop-color="#F674C8"/>
<stop offset="0.51" stop-color="#AFB8E2"/>
<stop offset="1" stop-color="#1BFFE9"/>
</linearGradient>
<linearGradient id="paint0_linear_0_424_100" x1="177.599" y1="634.377" x2="524.502" y2="33.6229" gradientUnits="userSpaceOnUse">
<stop stop-color="#FA71C7"/>
<stop offset="0.51" stop-color="#B0B6E4"/>
<stop offset="1" stop-color="#17FFED"/>
</linearGradient>
<linearGradient id="paint0_linear_0_386_101" x1="177.773" y1="629.618" x2="521.96" y2="33.5683" gradientUnits="userSpaceOnUse">
<stop stop-color="#FF6EC6"/>
<stop offset="0.51" stop-color="#B1B5E6"/>
<stop offset="1" stop-color="#13FFF1"/>
</linearGradient>
<linearGradient id="paint0_linear_0_442_102" x1="176.7" y1="626.543" x2="519.056" y2="33.6645" gradientUnits="userSpaceOnUse">
<stop stop-color="#FA6DC6"/>
<stop offset="0.51" stop-color="#AFB3E6"/>
<stop offset="1" stop-color="#16FCF1"/>
</linearGradient>
<linearGradient id="paint0_linear_0_328_103" x1="175.635" y1="623.468" x2="516.159" y2="33.7606" gradientUnits="userSpaceOnUse">
<stop stop-color="#F56CC7"/>
<stop offset="0.51" stop-color="#ADB1E6"/>
<stop offset="1" stop-color="#19F9F2"/>
</linearGradient>
<linearGradient id="paint0_linear_0_368_104" x1="174.561" y1="620.392" x2="513.263" y2="33.8479" gradientUnits="userSpaceOnUse">
<stop stop-color="#F06BC7"/>
<stop offset="0.51" stop-color="#ACAFE7"/>
<stop offset="1" stop-color="#1CF6F2"/>
</linearGradient>
<linearGradient id="paint0_linear_0_433_105" x1="173.484" y1="617.326" x2="510.329" y2="33.9878" gradientUnits="userSpaceOnUse">
<stop stop-color="#EB6AC8"/>
<stop offset="0.51" stop-color="#AAAEE7"/>
<stop offset="1" stop-color="#1EF4F2"/>
</linearGradient>
<linearGradient id="paint0_linear_0_314_106" x1="172.414" y1="614.242" x2="507.427" y2="34.0839" gradientUnits="userSpaceOnUse">
<stop stop-color="#E669C8"/>
<stop offset="0.51" stop-color="#A8ACE7"/>
<stop offset="1" stop-color="#21F1F2"/>
</linearGradient>
<linearGradient id="paint0_linear_0_311_107" x1="171.354" y1="611.175" x2="504.527" y2="34.18" gradientUnits="userSpaceOnUse">
<stop stop-color="#E168C9"/>
<stop offset="0.51" stop-color="#A6AAE7"/>
<stop offset="1" stop-color="#24EEF3"/>
</linearGradient>
<linearGradient id="paint0_linear_0_305_108" x1="170.287" y1="608.092" x2="501.637" y2="34.2675" gradientUnits="userSpaceOnUse">
<stop stop-color="#DC67C9"/>
<stop offset="0.51" stop-color="#A4A8E7"/>
<stop offset="1" stop-color="#27EBF3"/>
</linearGradient>
<linearGradient id="paint0_linear_0_252_109" x1="169.223" y1="605.025" x2="498.751" y2="34.3547" gradientUnits="userSpaceOnUse">
<stop stop-color="#D766CA"/>
<stop offset="0.51" stop-color="#A3A6E7"/>
<stop offset="1" stop-color="#2AE8F3"/>
</linearGradient>
<linearGradient id="paint0_linear_0_240_110" x1="168.171" y1="601.959" x2="495.876" y2="34.4509" gradientUnits="userSpaceOnUse">
<stop stop-color="#D265CA"/>
<stop offset="0.51" stop-color="#A1A4E8"/>
<stop offset="1" stop-color="#2DE5F3"/>
</linearGradient>
<linearGradient id="paint0_linear_0_302_111" x1="167.112" y1="598.883" x2="492.995" y2="34.5383" gradientUnits="userSpaceOnUse">
<stop stop-color="#CD64CB"/>
<stop offset="0.51" stop-color="#9FA2E8"/>
<stop offset="1" stop-color="#30E3F4"/>
</linearGradient>
<linearGradient id="paint0_linear_0_256_112" x1="166.054" y1="595.826" x2="490.115" y2="34.6257" gradientUnits="userSpaceOnUse">
<stop stop-color="#C863CB"/>
<stop offset="0.51" stop-color="#9DA1E8"/>
<stop offset="1" stop-color="#32E0F4"/>
</linearGradient>
<linearGradient id="paint0_linear_0_379_113" x1="164.993" y1="592.751" x2="487.24" y2="34.7042" gradientUnits="userSpaceOnUse">
<stop stop-color="#C362CC"/>
<stop offset="0.51" stop-color="#9B9FE8"/>
<stop offset="1" stop-color="#35DDF4"/>
</linearGradient>
<linearGradient id="paint0_linear_0_300_114" x1="163.951" y1="589.675" x2="484.384" y2="34.774" gradientUnits="userSpaceOnUse">
<stop stop-color="#BE61CC"/>
<stop offset="0.51" stop-color="#9A9DE8"/>
<stop offset="1" stop-color="#38DAF5"/>
</linearGradient>
<linearGradient id="paint0_linear_0_422_115" x1="162.911" y1="586.627" x2="481.53" y2="34.8526" gradientUnits="userSpaceOnUse">
<stop stop-color="#B960CD"/>
<stop offset="0.51" stop-color="#989BE8"/>
<stop offset="1" stop-color="#3BD7F5"/>
</linearGradient>
<linearGradient id="paint0_linear_0_458_116" x1="161.865" y1="583.56" x2="478.671" y2="34.9313" gradientUnits="userSpaceOnUse">
<stop stop-color="#B45FCD"/>
<stop offset="0.51" stop-color="#9699E9"/>
<stop offset="1" stop-color="#3ED4F5"/>
</linearGradient>
<linearGradient id="paint0_linear_0_431_117" x1="160.824" y1="580.485" x2="475.816" y2="34.9923" gradientUnits="userSpaceOnUse">
<stop stop-color="#AF5ECE"/>
<stop offset="0.51" stop-color="#9497E9"/>
<stop offset="1" stop-color="#41D2F5"/>
</linearGradient>
<linearGradient id="paint0_linear_0_342_118" x1="159.784" y1="577.427" x2="472.971" y2="35.0534" gradientUnits="userSpaceOnUse">
<stop stop-color="#AA5DCE"/>
<stop offset="0.51" stop-color="#9295E9"/>
<stop offset="1" stop-color="#44CFF6"/>
</linearGradient>
<linearGradient id="paint0_linear_0_298_119" x1="158.748" y1="574.352" x2="470.13" y2="35.1057" gradientUnits="userSpaceOnUse">
<stop stop-color="#A55CCF"/>
<stop offset="0.51" stop-color="#9193E9"/>
<stop offset="1" stop-color="#47CCF6"/>
</linearGradient>
<linearGradient id="paint0_linear_0_297_120" x1="157.714" y1="571.294" x2="467.3" y2="35.1668" gradientUnits="userSpaceOnUse">
<stop stop-color="#A05BCF"/>
<stop offset="0.51" stop-color="#8F92E9"/>
<stop offset="1" stop-color="#49C9F6"/>
</linearGradient>
<linearGradient id="paint0_linear_0_296_121" x1="156.685" y1="568.245" x2="464.466" y2="35.2279" gradientUnits="userSpaceOnUse">
<stop stop-color="#9B5AD0"/>
<stop offset="0.51" stop-color="#8D90EA"/>
<stop offset="1" stop-color="#4CC6F6"/>
</linearGradient>
<linearGradient id="paint0_linear_0_420_122" x1="155.658" y1="565.179" x2="461.642" y2="35.2802" gradientUnits="userSpaceOnUse">
<stop stop-color="#9659D0"/>
<stop offset="0.51" stop-color="#8B8EEA"/>
<stop offset="1" stop-color="#4FC3F7"/>
</linearGradient>
<linearGradient id="paint0_linear_0_295_123" x1="154.618" y1="562.113" x2="458.815" y2="35.315" gradientUnits="userSpaceOnUse">
<stop stop-color="#9158D1"/>
<stop offset="0.51" stop-color="#898CEA"/>
<stop offset="1" stop-color="#52C0F7"/>
</linearGradient>
<linearGradient id="paint0_linear_0_272_124" x1="153.598" y1="559.046" x2="455.999" y2="35.3498" gradientUnits="userSpaceOnUse">
<stop stop-color="#8C57D1"/>
<stop offset="0.51" stop-color="#888AEA"/>
<stop offset="1" stop-color="#55BEF7"/>
</linearGradient>
<linearGradient id="paint0_linear_0_308_125" x1="152.574" y1="555.997" x2="453.196" y2="35.4021" gradientUnits="userSpaceOnUse">
<stop stop-color="#8756D2"/>
<stop offset="0.51" stop-color="#8688EA"/>
<stop offset="1" stop-color="#58BBF8"/>
</linearGradient>
<linearGradient id="paint0_linear_0_316_126" x1="151.58" y1="552.948" x2="450.406" y2="35.4369" gradientUnits="userSpaceOnUse">
<stop stop-color="#8255D2"/>
<stop offset="0.51" stop-color="#8486EA"/>
<stop offset="1" stop-color="#5BB8F8"/>
</linearGradient>
<linearGradient id="paint0_linear_0_288_127" x1="150.563" y1="549.882" x2="447.619" y2="35.4542" gradientUnits="userSpaceOnUse">
<stop stop-color="#7D55D3"/>
<stop offset="0.51" stop-color="#8285EB"/>
<stop offset="1" stop-color="#5DB5F8"/>
</linearGradient>
<linearGradient id="paint0_linear_0_390_128" x1="149.55" y1="546.833" x2="444.827" y2="35.4802" gradientUnits="userSpaceOnUse">
<stop stop-color="#7854D3"/>
<stop offset="0.51" stop-color="#8083EB"/>
<stop offset="1" stop-color="#60B2F8"/>
</linearGradient>
<linearGradient id="paint0_linear_0_286_129" x1="148.542" y1="543.767" x2="442.049" y2="35.4887" gradientUnits="userSpaceOnUse">
<stop stop-color="#7353D4"/>
<stop offset="0.51" stop-color="#7E81EB"/>
<stop offset="1" stop-color="#63AFF9"/>
</linearGradient>
<linearGradient id="paint0_linear_0_423_130" x1="147.545" y1="540.718" x2="439.274" y2="35.506" gradientUnits="userSpaceOnUse">
<stop stop-color="#6E52D4"/>
<stop offset="0.51" stop-color="#7D7FEB"/>
<stop offset="1" stop-color="#66ADF9"/>
</linearGradient>
<linearGradient id="paint0_linear_0_284_131" x1="146.555" y1="537.677" x2="436.514" y2="35.5233" gradientUnits="userSpaceOnUse">
<stop stop-color="#6951D5"/>
<stop offset="0.51" stop-color="#7B7DEB"/>
<stop offset="1" stop-color="#69AAF9"/>
</linearGradient>
<linearGradient id="paint0_linear_0_393_132" x1="145.56" y1="534.62" x2="433.758" y2="35.523" gradientUnits="userSpaceOnUse">
<stop stop-color="#6450D5"/>
<stop offset="0.51" stop-color="#797BEB"/>
<stop offset="1" stop-color="#6CA7FA"/>
</linearGradient>
<linearGradient id="paint0_linear_0_349_133" x1="144.561" y1="531.562" x2="430.997" y2="35.5141" gradientUnits="userSpaceOnUse">
<stop stop-color="#5F4FD6"/>
<stop offset="0.51" stop-color="#7779EC"/>
<stop offset="1" stop-color="#6FA4FA"/>
</linearGradient>
<linearGradient id="paint0_linear_0_283_134" x1="143.574" y1="528.522" x2="428.259" y2="35.505" gradientUnits="userSpaceOnUse">
<stop stop-color="#5A4ED6"/>
<stop offset="0.51" stop-color="#7578EC"/>
<stop offset="1" stop-color="#71A1FA"/>
</linearGradient>
<linearGradient id="paint0_linear_0_399_135" x1="142.586" y1="525.473" x2="425.527" y2="35.4961" gradientUnits="userSpaceOnUse">
<stop stop-color="#554DD7"/>
<stop offset="0.51" stop-color="#7476EC"/>
<stop offset="1" stop-color="#749EFA"/>
</linearGradient>
<linearGradient id="paint0_linear_0_282_136" x1="141.619" y1="522.424" x2="422.808" y2="35.4695" gradientUnits="userSpaceOnUse">
<stop stop-color="#504CD7"/>
<stop offset="0.51" stop-color="#7274EC"/>
<stop offset="1" stop-color="#779BFB"/>
</linearGradient>
<linearGradient id="paint0_linear_0_385_137" x1="140.659" y1="519.375" x2="420.103" y2="35.4342" gradientUnits="userSpaceOnUse">
<stop stop-color="#4B4BD8"/>
<stop offset="0.51" stop-color="#7072EC"/>
<stop offset="1" stop-color="#7A99FB"/>
</linearGradient>
<linearGradient id="paint0_linear_0_280_138" x1="139.686" y1="516.326" x2="417.395" y2="35.3989" gradientUnits="userSpaceOnUse">
<stop stop-color="#464AD8"/>
<stop offset="0.51" stop-color="#6E70ED"/>
<stop offset="1" stop-color="#7D96FB"/>
</linearGradient>
<linearGradient id="paint0_linear_0_279_139" x1="138.729" y1="513.286" x2="414.704" y2="35.3636" gradientUnits="userSpaceOnUse">
<stop stop-color="#4149D9"/>
<stop offset="0.51" stop-color="#6C6EED"/>
<stop offset="1" stop-color="#8093FB"/>
</linearGradient>
<linearGradient id="paint0_linear_0_306_140" x1="137.769" y1="510.237" x2="412.018" y2="35.3021" gradientUnits="userSpaceOnUse">
<stop stop-color="#3C48D9"/>
<stop offset="0.51" stop-color="#6B6CED"/>
<stop offset="1" stop-color="#8390FC"/>
</linearGradient>
<linearGradient id="paint0_linear_0_276_141" x1="136.816" y1="507.197" x2="409.339" y2="35.2493" gradientUnits="userSpaceOnUse">
<stop stop-color="#3747DA"/>
<stop offset="0.51" stop-color="#696AED"/>
<stop offset="1" stop-color="#868DFC"/>
</linearGradient>
<linearGradient id="paint0_linear_0_274_142" x1="135.879" y1="504.157" x2="406.685" y2="35.1789" gradientUnits="userSpaceOnUse">
<stop stop-color="#3246DA"/>
<stop offset="0.51" stop-color="#6769ED"/>
<stop offset="1" stop-color="#888AFC"/>
</linearGradient>
<linearGradient id="paint0_linear_0_324_143" x1="134.932" y1="501.126" x2="404.029" y2="35.1174" gradientUnits="userSpaceOnUse">
<stop stop-color="#2D45DB"/>
<stop offset="0.51" stop-color="#6567ED"/>
<stop offset="1" stop-color="#8B88FD"/>
</linearGradient>
<linearGradient id="paint0_linear_0_273_144" x1="134.002" y1="498.085" x2="401.391" y2="35.0383" gradientUnits="userSpaceOnUse">
<stop stop-color="#2844DB"/>
<stop offset="0.51" stop-color="#6365EE"/>
<stop offset="1" stop-color="#8E85FD"/>
</linearGradient>
<linearGradient id="paint0_linear_0_292_145" x1="133.08" y1="495.045" x2="398.769" y2="34.9416" gradientUnits="userSpaceOnUse">
<stop stop-color="#2343DC"/>
<stop offset="0.51" stop-color="#6263EE"/>
<stop offset="1" stop-color="#9182FD"/>
</linearGradient>
<linearGradient id="paint0_linear_0_269_146" x1="132.168" y1="491.996" x2="396.157" y2="34.8275" gradientUnits="userSpaceOnUse">
<stop stop-color="#1E42DC"/>
<stop offset="0.51" stop-color="#6061EE"/>
<stop offset="1" stop-color="#947FFD"/>
</linearGradient>
<linearGradient id="paint0_linear_0_267_147" x1="131.266" y1="488.965" x2="393.563" y2="34.7221" gradientUnits="userSpaceOnUse">
<stop stop-color="#1941DD"/>
<stop offset="0.51" stop-color="#5E5FEE"/>
<stop offset="1" stop-color="#977CFE"/>
</linearGradient>
<linearGradient id="paint0_linear_0_419_148" x1="130.374" y1="485.934" x2="390.989" y2="34.6081" gradientUnits="userSpaceOnUse">
<stop stop-color="#1440DD"/>
<stop offset="0.51" stop-color="#5C5DEE"/>
<stop offset="1" stop-color="#9A79FE"/>
</linearGradient>
<linearGradient id="paint0_linear_0_265_149" x1="129.493" y1="482.893" x2="388.435" y2="34.4764" gradientUnits="userSpaceOnUse">
<stop stop-color="#0F3FDE"/>
<stop offset="0.51" stop-color="#5A5CEE"/>
<stop offset="1" stop-color="#9C77FE"/>
</linearGradient>
<linearGradient id="paint0_linear_0_262_150" x1="128.616" y1="479.853" x2="385.884" y2="34.3272" gradientUnits="userSpaceOnUse">
<stop stop-color="#0A3EDE"/>
<stop offset="0.51" stop-color="#595AEF"/>
<stop offset="1" stop-color="#9F74FE"/>
</linearGradient>
<linearGradient id="paint0_linear_0_260_151" x1="127.72" y1="476.822" x2="383.332" y2="34.1518" gradientUnits="userSpaceOnUse">
<stop stop-color="#053DDF"/>
<stop offset="0.51" stop-color="#5758EF"/>
<stop offset="1" stop-color="#A271FF"/>
</linearGradient>
<linearGradient id="paint0_linear_0_435_152" x1="126.904" y1="473.799" x2="380.851" y2="34.0201" gradientUnits="userSpaceOnUse">
<stop stop-color="#003CDF"/>
<stop offset="1" stop-color="#A56EFF"/>
</linearGradient>

</defs>
  <svg x="3.3" y="3.8" width="994.6" height="993.1" viewBox="0 0 1175.61 1421.09" preserveAspectRatio="none">
    <path d="M1164.94 722.351C1266.42 1147.41 620.069 1555.17 231.028 1379.06C-56.1287 1249.58 146.749 990.769 52.4933 723.069C-131.989 198.744 193.588 -15.9242 657.535 0.914893C965.733 11.6211 1099.69 447.519 1164.94 722.359V722.351Z" fill="url(#paint0_linear_0_465_0)" opacity="0.02"/>
  </svg>
  <svg x="6.7" y="7.7" width="989.2" height="986.1" viewBox="0 0 1169.22 1411.2" preserveAspectRatio="none">
    <path d="M1158.85 717.333C1258.3 1138.22 619.177 1542.98 233.578 1370.4C-52.1765 1243.51 146.383 985.033 52.1532 718.761C-131.733 198.387 194.781 -15.1334 653.753 0.829569C961.626 10.5896 1094.91 443.658 1158.85 717.333Z" fill="url(#paint0_linear_0_362_1)" opacity="0.04"/>
  </svg>
  <svg x="10.0" y="11.5" width="983.8" height="979.0" viewBox="0 0 1162.84 1400.94" preserveAspectRatio="none">
    <path d="M1152.76 712.217C1250.18 1128.95 618.657 1529.87 236.132 1361.63C-47.9316 1236.71 146.029 979.189 51.8254 714.363C-131.483 197.94 195.934 -13.3983 649.956 0.654754C957.488 10.1695 1090.11 439.707 1152.75 712.217H1152.76Z" fill="url(#paint0_linear_0_369_2)" opacity="0.06"/>
  </svg>
  <svg x="13.3" y="15.4" width="978.3" height="972.0" viewBox="0 0 1156.28 1390.98" preserveAspectRatio="none">
    <path d="M1146.68 707.184C1241.06 1119.98 617.876 1517.4 238.689 1352.96C-43.8861 1230.41 145.668 973.43 51.491 710.04C-131.23 197.569 197.123 -12.3064 646.179 0.555089C953.378 9.35138 1084.67 435.989 1146.68 707.184Z" fill="url(#paint0_linear_0_459_3)" opacity="0.08"/>
  </svg>
  <svg x="16.7" y="19.2" width="972.8" height="965.1" viewBox="0 0 1149.87 1381.03" preserveAspectRatio="none">
    <path d="M1140.6 702.152C1232.72 1110.83 617.092 1504.94 241.243 1344.29C-39.843 1224.14 145.305 967.688 51.1541 705.735C-130.972 197.206 198.311 -11.2236 642.399 0.463939C949.274 8.53304 1079.74 432.157 1140.6 702.152Z" fill="url(#paint0_linear_0_464_4)" opacity="0.1"/>
  </svg>
  <svg x="20.0" y="23.0" width="967.4" height="958.2" viewBox="0 0 1143.45 1371.09" preserveAspectRatio="none">
    <path d="M1134.51 697.136C1224.36 1101.7 616.299 1492.51 243.796 1335.63C-35.8092 1217.88 144.95 961.945 50.8257 701.429C-130.722 196.851 199.498 -10.1416 638.602 0.380633C945.153 7.72255 1074.79 428.324 1134.5 697.136H1134.51Z" fill="url(#paint0_linear_0_415_5)" opacity="0.12"/>
  </svg>
  <svg x="23.3" y="26.8" width="962.0" height="951.2" viewBox="0 0 1137.04 1361.17" preserveAspectRatio="none">
    <path d="M1128.41 692.119C1216.03 1092.55 615.491 1480.08 246.343 1326.97C-31.7732 1211.61 144.589 956.201 50.4905 697.131C-130.462 196.505 200.687 -9.0605 634.824 0.305266C941.051 6.91124 1069.87 424.507 1128.42 692.119H1128.41Z" fill="url(#paint0_linear_0_447_6)" opacity="0.14"/>
  </svg>
  <svg x="26.7" y="30.7" width="956.5" height="944.2" viewBox="0 0 1130.63 1351.28" preserveAspectRatio="none">
    <path d="M1122.33 687.12C1207.71 1083.43 614.691 1467.68 248.906 1318.32C-27.7385 1205.36 144.226 950.483 50.1628 692.841C-130.211 196.157 201.883 -7.98837 631.036 0.238436C936.939 6.10847 1064.94 420.69 1122.33 687.12Z" fill="url(#paint0_linear_0_337_7)" opacity="0.16"/>
  </svg>
  <svg x="30.0" y="34.5" width="951.1" height="937.4" viewBox="0 0 1124.23 1341.4" preserveAspectRatio="none">
    <path d="M1116.25 682.12C1199.4 1074.3 613.883 1455.28 251.462 1309.68C-23.7104 1199.13 143.874 944.756 49.8285 688.56C-129.95 195.827 203.082 -6.92532 627.26 0.180043C932.838 5.29661 1060.02 416.882 1116.25 682.12Z" fill="url(#paint0_linear_0_453_8)" opacity="0.18"/>
  </svg>
  <svg x="33.3" y="38.3" width="945.7" height="930.5" viewBox="0 0 1117.84 1331.55" preserveAspectRatio="none">
    <path d="M1110.17 677.137C1191.09 1065.18 613.072 1442.91 254.024 1301.06C-19.686 1192.93 143.519 939.055 49.4992 684.295C-129.692 195.506 204.277 -5.87143 623.47 0.130018C928.724 4.50188 1055.1 413.082 1110.17 677.137Z" fill="url(#paint0_linear_0_358_9)" opacity="0.2"/>
  </svg>
  <svg x="36.7" y="42.1" width="940.3" height="923.6" viewBox="0 0 1111.45 1321.71" preserveAspectRatio="none">
    <path d="M1104.08 672.154C1182.8 1056.06 612.244 1430.54 256.577 1292.43C-15.6696 1186.71 143.155 933.353 49.1707 680.031C-129.434 195.192 205.473 -4.81833 619.69 0.0879665C924.629 3.6976 1050.18 409.282 1104.08 672.154Z" fill="url(#paint0_linear_0_449_10)" opacity="0.22"/>
  </svg>
  <svg x="40.0" y="45.9" width="934.9" height="916.7" viewBox="0 0 1105.06 1311.91" preserveAspectRatio="none">
    <path d="M1098 667.188C1174.51 1046.96 611.42 1418.21 259.143 1283.82C-11.6498 1180.53 142.812 927.659 48.8456 675.774C-129.181 194.887 206.68 -3.76592 615.914 0.0539838C920.537 2.90139 1045.29 405.489 1098.01 667.179L1098 667.188Z" fill="url(#paint0_linear_0_437_11)" opacity="0.24"/>
  </svg>
  <svg x="43.3" y="49.6" width="929.5" height="910.0" viewBox="0 0 1098.68 1302.11" preserveAspectRatio="none">
    <path d="M1091.92 662.213C1166.24 1037.84 610.597 1405.87 261.702 1275.2C-7.63721 1174.33 142.454 921.957 48.5133 671.517C-128.917 194.581 207.899 4.43596 612.13 0.0202895C916.421 -3.30022 1040.38 401.697 1091.92 662.213Z" fill="url(#paint0_linear_0_243_12)" opacity="0.25"/>
  </svg>
  <svg x="46.6" y="53.4" width="924.2" height="903.1" viewBox="0 0 1092.3 1292.38" preserveAspectRatio="none">
    <path d="M1085.84 657.287C1157.98 1028.77 609.752 1393.59 264.255 1266.64C-3.63803 1168.2 142.091 916.322 48.1852 667.31C-128.658 194.326 209.121 5.86255 608.351 0.0363245C912.308 -4.39686 1035.49 397.954 1085.84 657.287Z" fill="url(#paint0_linear_0_394_13)" opacity="0.27"/>
  </svg>
  <svg x="50.0" y="57.1" width="918.7" height="896.4" viewBox="0 0 1085.93 1282.67" preserveAspectRatio="none">
    <path d="M1079.76 652.375C1149.72 1019.71 608.907 1381.34 266.818 1258.08C0.370173 1162.09 141.736 910.683 47.8573 663.117C-128.399 194.066 210.352 7.2499 604.562 0.0569197C908.178 -5.48019 1030.59 394.216 1079.76 652.375Z" fill="url(#paint0_linear_0_374_14)" opacity="0.29"/>
  </svg>
  <svg x="53.3" y="60.9" width="913.3" height="889.6" viewBox="0 0 1079.56 1272.98" preserveAspectRatio="none">
    <path d="M1073.68 647.459C1141.48 1010.64 608.055 1369.09 269.373 1249.52C4.36169 1155.97 141.383 905.048 47.5302 658.91C-128.14 193.819 211.584 8.59796 600.784 0.0820322C904.067 -6.55023 1025.71 390.474 1073.68 647.459Z" fill="url(#paint0_linear_0_443_15)" opacity="0.31"/>
  </svg>
  <svg x="56.6" y="64.6" width="908.0" height="882.9" viewBox="0 0 1073.2 1263.31" preserveAspectRatio="none">
    <path d="M1067.6 642.556C1133.24 1001.58 607.197 1356.86 271.94 1240.98C8.36539 1149.87 141.033 899.418 47.2066 654.725C-127.885 193.577 212.829 9.90669 597 0.111618C899.942 -7.60704 1020.82 386.737 1067.59 642.556H1067.6Z" fill="url(#paint0_linear_0_440_16)" opacity="0.33"/>
  </svg>
  <svg x="60.0" y="68.4" width="902.5" height="876.1" viewBox="0 0 1066.85 1253.66" preserveAspectRatio="none">
    <path d="M1061.52 637.649C1125.02 992.514 606.342 1344.64 274.502 1232.42C12.3547 1143.78 140.678 893.784 46.8773 650.528C-127.619 193.34 214.068 11.1763 593.228 0.145919C895.837 -8.65913 1015.95 383.003 1061.52 637.649Z" fill="url(#paint0_linear_0_381_17)" opacity="0.35"/>
  </svg>
  <svg x="63.3" y="72.1" width="897.2" height="869.4" viewBox="0 0 1060.49 1244.05" preserveAspectRatio="none">
    <path d="M1055.44 632.755C1116.81 983.459 605.469 1332.45 277.063 1223.89C16.3435 1137.71 140.33 888.18 46.5562 646.361C-127.362 193.107 215.306 12.4151 589.447 0.184361C891.714 -9.68956 1011.08 379.275 1055.44 632.746V632.755Z" fill="url(#paint0_linear_0_456_18)" opacity="0.37"/>
  </svg>
  <svg x="66.6" y="75.9" width="891.8" height="862.6" viewBox="0 0 1054.14 1234.43" preserveAspectRatio="none">
    <path d="M1049.36 627.848C1108.6 974.39 604.594 1320.25 279.621 1215.34C20.3213 1131.63 139.972 882.546 46.2241 642.164C-127.089 192.87 216.559 13.5972 585.673 0.227512C887.598 -10.7153 1006.22 375.542 1049.36 627.857V627.848Z" fill="url(#paint0_linear_0_325_19)" opacity="0.39"/>
  </svg>
  <svg x="69.9" y="79.8" width="886.5" height="855.7" viewBox="0 0 1047.83 1224.62" preserveAspectRatio="none">
    <path d="M1043.3 622.725C1100.43 965.106 603.734 1307.85 282.213 1206.57C24.3233 1125.35 139.647 876.696 45.925 637.76C-126.81 192.408 217.574 5.29439 581.922 0.0376412C883.716 -4.32546 1001.4 371.584 1043.31 622.725H1043.3Z" fill="url(#paint0_linear_0_451_20)" opacity="0.41"/>
  </svg>
  <svg x="73.2" y="83.5" width="881.2" height="849.1" viewBox="0 0 1041.5 1215.03" preserveAspectRatio="none">
    <path d="M1037.23 617.8C1092.27 956.011 602.853 1295.66 284.775 1198C28.2954 1119.27 139.3 871.053 45.6049 633.544C-126.543 192.153 218.796 6.24807 578.142 0.053876C879.629 -5.1503 996.547 367.825 1037.23 617.809V617.8Z" fill="url(#paint0_linear_0_367_21)" opacity="0.43"/>
  </svg>
  <svg x="76.6" y="87.3" width="875.7" height="842.4" viewBox="0 0 1035.18 1205.47" preserveAspectRatio="none">
    <path d="M1031.16 612.887C1084.1 946.918 601.97 1283.49 287.343 1189.46C32.2739 1113.22 138.951 865.421 45.2823 629.358C-126.27 191.892 220.015 7.19624 574.377 0.0733505C875.549 -5.98067 991.722 364.059 1031.16 612.887Z" fill="url(#paint0_linear_0_434_22)" opacity="0.45"/>
  </svg>
  <svg x="79.6" y="91.0" width="870.7" height="835.7" viewBox="0 0 1029.18 1195.93" preserveAspectRatio="none">
    <path d="M1025.4 607.969C1076.27 937.83 601.392 1271.34 290.233 1180.89C36.5659 1107.16 138.452 859.968 45.2907 625.15C-126.569 191.994 221.556 8.12151 570.916 0.0962082C871.782 -6.81641 987.21 360.306 1025.4 607.978V607.969Z" fill="url(#paint0_linear_0_330_23)" opacity="0.47"/>
  </svg>
  <svg x="82.9" y="94.8" width="865.4" height="829.0" viewBox="0 0 1022.87 1186.42" preserveAspectRatio="none">
    <path d="M1019.34 603.063C1068.14 928.744 600.504 1259.2 292.806 1172.34C40.5314 1101.12 138.107 854.344 44.9726 620.962C-126.3 191.749 222.78 9.04182 567.155 0.122875C867.714 -7.66587 982.398 356.548 1019.34 603.063Z" fill="url(#paint0_linear_0_290_24)" opacity="0.49"/>
  </svg>
  <svg x="86.3" y="98.5" width="860.0" height="822.5" viewBox="0 0 1016.57 1176.93" preserveAspectRatio="none">
    <path d="M1013.27 598.152C1060.02 919.655 599.592 1247.08 295.38 1163.79C44.4986 1095.1 137.756 848.706 44.6562 616.761C-126.029 191.516 223.996 9.95712 563.379 0.15329C863.622 -8.52034 977.588 352.802 1013.27 598.161V598.152Z" fill="url(#paint0_linear_0_427_25)" opacity="0.51"/>
  </svg>
  <svg x="89.6" y="102.2" width="854.7" height="815.9" viewBox="0 0 1010.27 1167.47" preserveAspectRatio="none">
    <path d="M1007.2 593.254C1051.91 910.577 598.692 1234.98 297.949 1155.24C48.4516 1089.1 137.408 843.089 44.3432 612.581C-125.764 191.279 225.225 10.8501 559.614 0.187622C859.551 -9.37966 972.79 349.052 1007.2 593.254Z" fill="url(#paint0_linear_0_421_26)" opacity="0.53"/>
  </svg>
  <svg x="92.9" y="106.0" width="849.4" height="809.2" viewBox="0 0 1003.98 1158.04" preserveAspectRatio="none">
    <path d="M1001.13 588.351C1043.81 901.487 597.773 1222.9 300.525 1146.71C52.4118 1083.11 137.076 837.468 44.0286 608.397C-125.492 191.046 226.444 11.7387 555.848 0.226402C855.479 -10.252 967.999 345.297 1001.13 588.351Z" fill="url(#paint0_linear_0_382_27)" opacity="0.55"/>
  </svg>
  <svg x="96.2" y="109.7" width="844.1" height="802.7" viewBox="0 0 997.695 1148.65" preserveAspectRatio="none">
    <path d="M995.059 583.462C1035.72 892.409 596.863 1210.85 303.093 1138.17C56.3636 1077.13 136.726 831.86 43.7144 604.226C-125.219 190.818 227.671 12.6228 552.074 0.269488C851.389 -11.1289 963.217 341.555 995.059 583.462Z" fill="url(#paint0_linear_0_355_28)" opacity="0.57"/>
  </svg>
  <svg x="99.5" y="113.4" width="838.8" height="796.2" viewBox="0 0 991.415 1139.27" preserveAspectRatio="none">
    <path d="M988.988 578.568C1027.65 883.328 595.934 1198.79 305.668 1129.63C60.3137 1071.17 136.393 826.239 43.3985 600.042C-124.939 190.594 228.888 13.4852 548.307 0.317063C847.315 -12.01 958.443 337.809 988.988 578.568Z" fill="url(#paint0_linear_0_351_29)" opacity="0.59"/>
  </svg>
  <svg x="102.8" y="117.2" width="833.5" height="789.6" viewBox="0 0 985.148 1129.94" preserveAspectRatio="none">
    <path d="M982.923 573.688C1019.59 874.26 595.011 1186.78 308.24 1121.11C64.2523 1065.24 136.048 820.632 43.0797 595.871C-124.654 190.366 230.111 14.3439 544.537 0.369761C843.238 -12.9035 953.682 334.077 982.914 573.688H982.923Z" fill="url(#paint0_linear_0_244_30)" opacity="0.61"/>
  </svg>
  <svg x="106.2" y="120.9" width="828.1" height="783.1" viewBox="0 0 978.883 1120.63" preserveAspectRatio="none">
    <path d="M976.853 568.805C1011.54 865.18 594.083 1174.78 310.807 1112.59C68.1949 1059.32 135.707 815.039 42.7651 591.715C-124.373 190.153 231.338 15.1906 540.771 0.427885C839.157 -13.8091 948.935 330.341 976.853 568.805Z" fill="url(#paint0_linear_0_430_31)" opacity="0.63"/>
  </svg>
  <svg x="109.5" y="124.6" width="822.8" height="776.7" viewBox="0 0 972.621 1111.37" preserveAspectRatio="none">
    <path d="M970.778 563.935C1003.5 856.114 593.141 1162.81 313.378 1104.07C72.1235 1053.43 135.378 809.443 42.4452 587.556C-124.079 189.936 232.56 16.0336 536.999 0.491179C835.079 -14.7183 944.192 326.611 970.778 563.935Z" fill="url(#paint0_linear_0_452_32)" opacity="0.65"/>
  </svg>
  <svg x="112.8" y="128.3" width="817.6" height="770.2" viewBox="0 0 966.375 1102.13" preserveAspectRatio="none">
    <path d="M964.712 559.063C995.494 847.045 592.209 1150.85 315.95 1095.56C76.0619 1047.54 135.042 803.844 42.1262 583.402C-123.785 189.724 233.783 16.8563 533.238 0.560414C831.002 -15.6391 939.475 322.886 964.712 559.063Z" fill="url(#paint0_linear_0_401_33)" opacity="0.67"/>
  </svg>
  <svg x="116.1" y="132.1" width="812.3" height="763.7" viewBox="0 0 960.128 1092.93" preserveAspectRatio="none">
    <path d="M958.638 554.207C987.484 837.992 591.259 1138.93 318.522 1087.06C79.9913 1041.69 134.705 798.26 41.8159 579.255C-123.5 189.52 234.997 17.6771 529.467 0.636518C826.916 -16.5793 934.759 319.169 958.647 554.207H958.638Z" fill="url(#paint0_linear_0_334_34)" opacity="0.69"/>
  </svg>
  <svg x="119.4" y="135.8" width="807.1" height="757.3" viewBox="0 0 953.901 1083.77" preserveAspectRatio="none">
    <path d="M952.575 549.348C979.503 828.936 590.321 1127.03 321.096 1078.55C83.9236 1035.85 134.38 792.674 41.4997 575.114C-123.203 189.322 236.213 18.4864 525.7 0.718623C822.833 -17.5223 930.054 315.449 952.575 549.348Z" fill="url(#paint0_linear_0_416_35)" opacity="0.71"/>
  </svg>
  <svg x="123.0" y="139.5" width="801.5" height="751.0" viewBox="0 0 947.401 1074.66" preserveAspectRatio="none">
    <path d="M946.232 544.504C971.25 819.896 589.102 1115.16 323.399 1070.07C87.5752 1030.06 134.204 786.928 40.9203 570.989C-122.424 188.806 237.158 19.2938 521.66 0.807602C818.479 -18.4759 925.095 311.744 946.232 544.495V544.504Z" fill="url(#paint0_linear_0_277_36)" opacity="0.73"/>
  </svg>
  <svg x="126.3" y="143.2" width="796.3" height="744.6" viewBox="0 0 941.201 1065.58" preserveAspectRatio="none">
    <path d="M940.181 539.659C963.307 810.854 588.176 1103.3 325.985 1061.58C91.5193 1024.27 133.882 781.355 40.6159 566.863C-122.142 188.631 238.387 20.0909 517.904 0.903822C814.399 -19.4398 920.428 308.038 940.181 539.659Z" fill="url(#paint0_linear_0_248_37)" opacity="0.75"/>
  </svg>
  <svg x="129.6" y="146.9" width="791.0" height="738.3" viewBox="0 0 935.008 1056.54" preserveAspectRatio="none">
    <path d="M934.128 534.822C955.38 801.821 587.239 1091.49 328.569 1053.1C95.4526 1018.51 133.549 775.791 40.3094 562.735C-121.853 188.455 239.613 20.8701 514.155 1.00836C810.334 -20.4216 915.785 304.349 934.128 534.822Z" fill="url(#paint0_linear_0_414_38)" opacity="0.76"/>
  </svg>
  <svg x="132.9" y="150.5" width="785.8" height="732.1" viewBox="0 0 928.815 1047.55" preserveAspectRatio="none">
    <path d="M928.066 529.993C947.452 792.787 586.301 1079.69 331.153 1044.63C99.3944 1012.78 133.216 770.244 40.0115 558.625C-121.573 188.296 240.831 21.6485 510.388 1.12091C806.243 -21.413 911.142 300.659 928.066 530.002V529.993Z" fill="url(#paint0_linear_0_365_39)" opacity="0.78"/>
  </svg>
  <svg x="136.2" y="154.2" width="780.6" height="725.8" viewBox="0 0 922.643 1038.62" preserveAspectRatio="none">
    <path d="M922.015 525.182C939.561 783.779 585.375 1067.93 333.74 1036.18C103.33 1007.1 132.894 764.715 39.7069 554.533C-121.281 188.146 242.059 22.4273 506.641 1.24263C802.163 -22.4215 906.537 296.987 922.015 525.182Z" fill="url(#paint0_linear_0_396_40)" opacity="0.8"/>
  </svg>
  <svg x="139.5" y="157.9" width="775.4" height="719.6" viewBox="0 0 916.474 1029.72" preserveAspectRatio="none">
    <path d="M915.959 520.372C931.674 774.772 584.443 1056.2 336.329 1027.73C107.268 1001.43 132.567 759.177 39.4146 550.44C-121.004 188.005 243.274 23.1974 502.889 1.37318C798.087 -23.4387 901.935 293.315 915.959 520.38V520.372Z" fill="url(#paint0_linear_0_412_41)" opacity="0.82"/>
  </svg>
  <svg x="142.8" y="161.6" width="770.2" height="713.4" viewBox="0 0 910.323 1020.88" preserveAspectRatio="none">
    <path d="M909.911 515.581C923.812 765.784 583.519 1044.51 338.918 1019.29C111.215 995.811 132.238 753.667 39.1126 546.359C-120.711 187.875 244.496 23.9611 499.136 1.51476C794 -24.4798 897.358 289.663 909.911 515.581Z" fill="url(#paint0_linear_0_356_42)" opacity="0.84"/>
  </svg>
  <svg x="146.1" y="165.2" width="765.0" height="707.3" viewBox="0 0 904.179 1012.09" preserveAspectRatio="none">
    <path d="M903.858 510.791C915.964 756.798 582.591 1032.84 341.512 1010.86C115.166 990.215 131.915 748.15 38.8154 542.287C-120.421 187.755 245.714 24.7169 495.387 1.66609C789.91 -25.5288 892.803 286.012 903.858 510.799V510.791Z" fill="url(#paint0_linear_0_231_43)" opacity="0.86"/>
  </svg>
  <svg x="149.4" y="168.9" width="759.8" height="701.1" viewBox="0 0 898.046 1003.36" preserveAspectRatio="none">
    <path d="M897.808 506.021C908.127 747.84 581.674 1021.22 344.098 1002.44C119.11 984.665 131.593 742.653 38.5199 538.227C-120.13 187.637 246.925 25.4751 491.631 1.82853C785.813 -26.5929 888.259 282.381 897.799 506.021H897.808Z" fill="url(#paint0_linear_0_425_44)" opacity="0.88"/>
  </svg>
  <svg x="152.7" y="172.5" width="754.6" height="695.1" viewBox="0 0 891.922 994.681" preserveAspectRatio="none">
    <path d="M891.754 501.254C900.312 738.886 580.762 1009.62 346.69 994.039C123.069 979.154 131.269 737.177 38.2216 534.188C-119.832 187.541 248.142 26.2286 487.89 2.00373C781.722 -27.6794 883.747 278.763 891.763 501.254H891.754Z" fill="url(#paint0_linear_0_408_45)" opacity="0.9"/>
  </svg>
  <svg x="156.0" y="176.2" width="749.4" height="689.0" viewBox="0 0 885.823 986.066" preserveAspectRatio="none">
    <path d="M885.714 496.51C892.529 729.954 579.873 998.065 349.288 985.651C127.033 973.683 130.949 731.706 37.9279 530.154C-119.539 187.458 249.355 26.9779 484.145 2.19236C777.626 -28.7874 879.258 275.158 885.714 496.51Z" fill="url(#paint0_linear_0_407_46)" opacity="0.92"/>
  </svg>
  <svg x="159.3" y="179.8" width="744.3" height="683.1" viewBox="0 0 879.729 977.503" preserveAspectRatio="none">
    <path d="M879.667 491.771C884.747 721.026 578.976 986.544 351.878 977.266C130.998 968.242 130.63 726.239 37.6359 526.132C-119.244 187.387 250.561 27.7227 480.402 2.3939C773.524 -29.9088 874.787 271.574 879.667 491.771Z" fill="url(#paint0_linear_0_404_47)" opacity="0.94"/>
  </svg>
  <svg x="162.6" y="183.4" width="739.1" height="677.1" viewBox="0 0 873.653 969.013" preserveAspectRatio="none">
    <path d="M873.625 487.056C876.997 712.132 578.103 975.066 354.482 968.906C134.986 962.861 130.317 720.806 37.3492 522.127C-118.953 187.333 251.755 28.4746 476.655 2.61141C769.409 -31.058 870.34 268.007 873.625 487.056Z" fill="url(#paint0_linear_0_428_48)" opacity="0.96"/>
  </svg>
  <svg x="165.9" y="186.9" width="734.0" height="671.4" viewBox="0 0 867.594 960.653" preserveAspectRatio="none">
    <path d="M867.583 482.411C869.615 703.308 577.229 963.692 357.077 960.626C138.975 957.586 129.996 715.442 37.0627 518.209C-118.652 187.359 252.914 28.9202 472.917 2.9168C765.233 -32.6451 866.278 264.528 867.583 482.42V482.411Z" fill="url(#paint0_linear_0_413_49)" opacity="0.98"/>
  </svg>
  <svg x="169.2" y="190.6" width="728.9" height="665.4" viewBox="0 0 861.534 952.234" preserveAspectRatio="none">
    <path d="M861.534 477.664C861.534 694.4 576.366 952.234 359.674 952.234C142.982 952.234 129.684 709.977 36.7688 514.172C-118.35 187.273 254.144 29.982 469.172 3.09376C761.164 -33.4143 861.534 260.928 861.534 477.664Z" fill="url(#paint0_linear_0_398_50)" opacity="1"/>
  </svg>
  <svg x="171.4" y="192.2" width="725.6" height="661.4" viewBox="0 0 857.755 946.575" preserveAspectRatio="none">
    <path d="M857.755 476.123C857.755 691.868 574.322 946.575 358.611 946.575C142.9 946.575 128.157 706.281 36.1346 511.203C-117.233 186.415 254.009 29.343 468.073 2.98923C757.604 -32.8004 857.755 260.377 857.755 476.123Z" fill="url(#paint0_linear_0_397_51)" opacity="1"/>
  </svg>
  <svg x="173.5" y="193.7" width="722.5" height="657.6" viewBox="0 0 853.985 940.926" preserveAspectRatio="none">
    <path d="M853.976 474.591C853.976 689.347 572.268 940.926 357.547 940.926C142.826 940.926 126.638 702.603 35.5006 508.234C-116.106 185.567 253.866 28.7141 466.984 2.88591C754.044 -32.1853 853.985 259.836 853.985 474.591H853.976Z" fill="url(#paint0_linear_0_392_52)" opacity="1"/>
  </svg>
  <svg x="175.6" y="195.3" width="719.3" height="653.6" viewBox="0 0 850.211 935.278" preserveAspectRatio="none">
    <path d="M850.211 473.061C850.211 686.827 570.229 935.278 356.498 935.278C142.767 935.278 125.124 698.926 34.8717 505.268C-114.983 184.711 253.736 28.0865 465.891 2.78398C750.489 -31.5688 850.202 259.287 850.202 473.052L850.211 473.061Z" fill="url(#paint0_linear_0_375_53)" opacity="1"/>
  </svg>
  <svg x="177.7" y="196.9" width="716.2" height="649.6" viewBox="0 0 846.437 929.624" preserveAspectRatio="none">
    <path d="M846.437 471.516C846.437 684.292 568.181 929.624 355.44 929.624C142.698 929.624 123.61 695.243 34.2426 502.303C-113.851 183.867 253.606 27.4526 464.806 2.68458C746.943 -30.9586 846.437 258.749 846.437 471.525V471.516Z" fill="url(#paint0_linear_0_426_54)" opacity="1"/>
  </svg>
  <svg x="179.9" y="198.4" width="712.9" height="645.7" viewBox="0 0 842.678 923.979" preserveAspectRatio="none">
    <path d="M842.67 469.989C842.67 681.783 566.148 923.979 354.388 923.979C142.627 923.979 122.094 691.569 33.6198 499.339C-112.722 183.014 253.474 26.8277 463.728 2.58532C743.395 -30.3394 842.678 258.203 842.678 469.998L842.67 469.989Z" fill="url(#paint0_linear_0_387_55)" opacity="1"/>
  </svg>
  <svg x="182.0" y="200.0" width="709.7" height="641.8" viewBox="0 0 838.902 918.344" preserveAspectRatio="none">
    <path d="M838.902 468.472C838.902 679.276 564.105 918.344 353.335 918.344C142.565 918.344 120.586 687.897 32.9964 496.385C-111.585 182.181 253.35 26.2129 462.64 2.48743C739.845 -29.7189 838.902 257.659 838.902 468.463V468.472Z" fill="url(#paint0_linear_0_377_56)" opacity="1"/>
  </svg>
  <svg x="184.1" y="201.6" width="706.6" height="637.8" viewBox="0 0 835.148 912.694" preserveAspectRatio="none">
    <path d="M835.149 466.939C835.149 676.754 562.078 912.694 352.298 912.694C142.517 912.694 119.084 684.218 32.3794 493.425C-110.45 181.332 253.224 25.5831 461.568 2.39209C736.311 -29.1046 835.149 257.125 835.149 466.939Z" fill="url(#paint0_linear_0_411_57)" opacity="1"/>
  </svg>
  <svg x="186.2" y="203.1" width="703.4" height="633.9" viewBox="0 0 831.386 907.053" preserveAspectRatio="none">
    <path d="M831.386 465.416C831.386 674.241 560.042 907.053 351.251 907.053C142.46 907.053 117.582 680.549 31.7619 490.465C-109.307 180.483 253.105 24.9623 460.486 2.297C732.759 -28.4812 831.377 256.583 831.377 465.408L831.386 465.416Z" fill="url(#paint0_linear_0_409_58)" opacity="1"/>
  </svg>
  <svg x="188.4" y="204.8" width="700.2" height="629.8" viewBox="0 0 827.624 901.331" preserveAspectRatio="none">
    <path d="M827.624 463.804C827.624 671.638 558.014 901.331 350.204 901.331C142.395 901.331 116.071 676.798 31.1447 487.433C-108.163 179.571 253.031 24.6901 459.413 2.12991C729.286 -27.378 827.624 255.978 827.624 463.812V463.804Z" fill="url(#paint0_linear_0_383_59)" opacity="1"/>
  </svg>
  <svg x="190.5" y="206.3" width="697.0" height="626.0" viewBox="0 0 823.871 895.688" preserveAspectRatio="none">
    <path d="M823.871 462.278C823.871 669.131 555.986 895.688 349.167 895.688C142.347 895.688 114.578 673.126 30.5362 484.47C-107.02 178.72 252.922 24.1017 458.34 2.03217C725.752 -26.7047 823.871 255.434 823.871 462.287V462.278Z" fill="url(#paint0_linear_0_370_60)" opacity="1"/>
  </svg>
  <svg x="192.6" y="207.9" width="693.8" height="622.0" viewBox="0 0 820.127 890.056" preserveAspectRatio="none">
    <path d="M820.127 460.764C820.127 666.626 553.968 890.056 348.138 890.056C142.308 890.056 113.085 669.456 29.9279 481.519C-105.867 177.889 252.813 23.5338 457.277 1.9373C722.227 -26.0373 820.118 254.892 820.118 460.755L820.127 460.764Z" fill="url(#paint0_linear_0_315_61)" opacity="1"/>
  </svg>
  <svg x="194.9" y="209.5" width="690.5" height="618.0" viewBox="0 0 816.168 884.408" preserveAspectRatio="none">
    <path d="M816.168 459.234C816.168 664.106 551.735 884.408 346.895 884.408C142.054 884.408 111.789 665.605 29.1138 478.561C-104.281 176.754 252.498 22.95 455.998 1.84414C718.487 -25.3683 816.159 254.361 816.159 459.234H816.168Z" fill="url(#paint0_linear_0_340_62)" opacity="1"/>
  </svg>
  <svg x="197.0" y="211.0" width="687.3" height="614.1" viewBox="0 0 812.408 878.772" preserveAspectRatio="none">
    <path d="M812.408 457.715C812.408 661.598 549.709 878.772 345.85 878.772C141.991 878.772 110.307 661.922 28.4988 475.606C-103.092 175.901 252.383 22.3603 454.928 1.75388C714.955 -24.7051 812.408 253.824 812.408 457.715Z" fill="url(#paint0_linear_0_380_63)" opacity="1"/>
  </svg>
  <svg x="199.1" y="212.6" width="684.2" height="610.2" viewBox="0 0 808.654 873.136" preserveAspectRatio="none">
    <path d="M808.646 456.189C808.646 659.082 547.673 873.136 344.812 873.136C141.952 873.136 108.831 658.249 27.89 472.651C-101.905 175.049 252.273 21.7801 453.863 1.6643C711.429 -24.0324 808.654 253.296 808.654 456.189H808.646Z" fill="url(#paint0_linear_0_258_64)" opacity="1"/>
  </svg>
  <svg x="201.2" y="214.2" width="681.0" height="606.2" viewBox="0 0 804.908 867.496" preserveAspectRatio="none">
    <path d="M804.908 454.666C804.908 656.578 545.66 867.496 343.79 867.496C141.919 867.496 107.379 654.572 27.2881 469.701C-100.719 174.201 252.162 21.1951 452.797 1.57867C707.901 -23.3733 804.908 252.764 804.908 454.675V454.666Z" fill="url(#paint0_linear_0_378_65)" opacity="1"/>
  </svg>
  <svg x="203.3" y="215.7" width="677.8" height="602.3" viewBox="0 0 801.164 861.874" preserveAspectRatio="none">
    <path d="M801.164 453.162C801.164 654.084 543.642 861.874 342.762 861.874C141.881 861.874 105.913 650.912 26.6891 466.76C-99.5314 173.363 252.062 20.6196 451.743 1.49379C704.385 -22.7048 801.164 252.241 801.164 453.153V453.162Z" fill="url(#paint0_linear_0_331_66)" opacity="1"/>
  </svg>
  <svg x="205.4" y="217.3" width="674.7" height="598.3" viewBox="0 0 797.421 856.246" preserveAspectRatio="none">
    <path d="M797.421 451.652C797.421 651.584 541.634 856.246 341.734 856.246C141.835 856.246 104.448 647.247 26.091 463.813C-98.3337 172.519 251.963 20.0382 450.68 1.41181C700.861 -22.042 797.421 251.712 797.421 451.643V451.652Z" fill="url(#paint0_linear_0_410_67)" opacity="1"/>
  </svg>
  <svg x="207.5" y="218.8" width="671.5" height="594.4" viewBox="0 0 793.696 850.611" preserveAspectRatio="none">
    <path d="M793.687 450.125C793.687 649.067 539.626 850.611 340.716 850.611C141.807 850.611 102.983 643.574 25.5021 460.867C-97.1443 171.676 251.874 19.4577 449.636 1.33072C697.355 -21.3697 793.696 251.184 793.696 450.134L793.687 450.125Z" fill="url(#paint0_linear_0_402_68)" opacity="1"/>
  </svg>
  <svg x="209.6" y="220.4" width="668.4" height="590.5" viewBox="0 0 789.955 844.987" preserveAspectRatio="none">
    <path d="M789.955 448.62C789.955 646.571 537.619 844.987 339.699 844.987C141.78 844.987 101.528 639.913 24.9147 457.924C-95.9448 170.845 251.777 18.8723 448.584 1.25341C693.833 -20.711 789.955 250.668 789.955 448.62Z" fill="url(#paint0_linear_0_438_69)" opacity="1"/>
  </svg>
  <svg x="211.7" y="221.9" width="665.2" height="586.6" viewBox="0 0 786.238 839.356" preserveAspectRatio="none">
    <path d="M786.238 447.107C786.238 644.077 535.627 839.356 338.698 839.356C141.768 839.356 100.08 636.245 24.3332 454.983C-94.748 170.006 251.695 18.2966 447.547 1.17711C690.335 -20.0426 786.238 250.145 786.238 447.116V447.107Z" fill="url(#paint0_linear_0_457_70)" opacity="1"/>
  </svg>
  <svg x="213.8" y="223.5" width="662.1" height="582.6" viewBox="0 0 782.524 833.737" preserveAspectRatio="none">
    <path d="M782.515 445.605C782.515 641.586 533.64 833.737 337.691 833.737C141.742 833.737 98.6259 632.588 23.7556 452.045C-93.5474 169.179 251.617 17.7149 446.514 1.10363C686.84 -19.3802 782.524 249.634 782.524 445.605H782.515Z" fill="url(#paint0_linear_0_372_71)" opacity="1"/>
  </svg>
  <svg x="215.9" y="225.0" width="658.9" height="578.7" viewBox="0 0 778.8 828.129" preserveAspectRatio="none">
    <path d="M778.8 444.115C778.8 639.106 531.65 828.129 336.691 828.129C141.732 828.129 97.1794 628.951 23.185 449.118C-92.3485 168.364 251.537 17.1449 445.479 1.03299C683.335 -18.7236 778.8 249.116 778.8 444.107V444.115Z" fill="url(#paint0_linear_0_371_72)" opacity="1"/>
  </svg>
  <svg x="218.0" y="226.6" width="655.7" height="574.8" viewBox="0 0 775.094 822.505" preserveAspectRatio="none">
    <path d="M775.085 442.6C775.085 636.6 529.661 822.505 335.692 822.505C141.723 822.505 95.7336 625.29 22.6153 446.183C-91.14 167.541 251.466 16.5585 444.454 0.96346C679.848 -18.0572 775.094 248.6 775.094 442.609L775.085 442.6Z" fill="url(#paint0_linear_0_366_73)" opacity="1"/>
  </svg>
  <svg x="220.1" y="228.1" width="652.6" height="570.9" viewBox="0 0 771.387 816.893" preserveAspectRatio="none">
    <path d="M771.387 441.105C771.387 634.116 527.688 816.893 334.709 816.893C141.73 816.893 94.3038 621.648 22.0527 443.252C-89.9331 166.721 251.394 15.9748 443.427 0.896737C676.351 -17.3967 771.378 248.095 771.378 441.105H771.387Z" fill="url(#paint0_linear_0_360_74)" opacity="1"/>
  </svg>
  <svg x="222.1" y="229.7" width="649.5" height="566.9" viewBox="0 0 767.686 811.282" preserveAspectRatio="none">
    <path d="M767.686 439.613C767.686 631.642 525.721 811.282 333.723 811.282C141.725 811.282 92.8627 618.009 21.4963 440.322C-88.7287 165.911 251.337 15.3932 442.415 0.832056C672.878 -16.7342 767.686 247.584 767.686 439.613Z" fill="url(#paint0_linear_0_454_75)" opacity="1"/>
  </svg>
  <svg x="224.2" y="231.2" width="646.3" height="563.0" viewBox="0 0 763.986 805.666" preserveAspectRatio="none">
    <path d="M763.986 438.114C763.986 629.153 523.748 805.666 332.74 805.666C141.731 805.666 91.4236 614.355 20.9419 437.395C-87.5136 165.096 251.273 14.8144 441.397 0.77016C669.389 -16.0777 763.986 247.084 763.986 438.114Z" fill="url(#paint0_linear_0_455_76)" opacity="1"/>
  </svg>
  <svg x="226.3" y="232.8" width="643.2" height="559.1" viewBox="0 0 760.294 800.069" preserveAspectRatio="none">
    <path d="M760.294 436.635C760.294 626.684 521.781 800.069 331.762 800.069C141.744 800.069 89.9996 610.729 20.3939 434.479C-86.3009 164.3 251.224 14.2464 440.393 0.710329C665.924 -15.4191 760.294 246.577 760.294 436.626V436.635Z" fill="url(#paint0_linear_0_359_77)" opacity="1"/>
  </svg>
  <svg x="228.3" y="234.3" width="640.1" height="555.2" viewBox="0 0 756.617 794.456" preserveAspectRatio="none">
    <path d="M756.617 435.131C756.617 624.19 519.83 794.456 330.801 794.456C141.773 794.456 88.5741 607.088 19.8532 431.557C-85.0897 163.498 251.174 13.663 439.388 0.652574C662.449 -14.7585 756.608 246.072 756.608 435.14L756.617 435.131Z" fill="url(#paint0_linear_0_357_78)" opacity="1"/>
  </svg>
  <svg x="230.4" y="235.8" width="637.0" height="551.3" viewBox="0 0 752.935 788.855" preserveAspectRatio="none">
    <path d="M752.935 433.648C752.935 621.717 517.883 788.855 329.835 788.855C141.788 788.855 87.1526 603.459 19.3164 428.637C-83.8745 162.698 251.137 13.0824 438.396 0.597595C658.986 -14.1038 752.927 245.579 752.927 433.648H752.935Z" fill="url(#paint0_linear_0_335_79)" opacity="1"/>
  </svg>
  <svg x="232.4" y="237.4" width="633.9" height="547.3" viewBox="0 0 749.258 783.257" preserveAspectRatio="none">
    <path d="M749.258 432.167C749.258 619.255 515.931 783.257 328.874 783.257C141.816 783.257 85.7271 599.831 18.7844 425.719C-82.6546 161.901 251.095 12.4951 437.408 0.544739C655.537 -13.447 749.258 245.08 749.258 432.167Z" fill="url(#paint0_linear_0_363_80)" opacity="1"/>
  </svg>
  <svg x="234.5" y="238.9" width="630.7" height="543.5" viewBox="0 0 745.586 777.652" preserveAspectRatio="none">
    <path d="M745.586 430.68C745.586 616.778 513.985 777.652 327.917 777.652C141.849 777.652 84.306 596.198 18.2569 422.804C-81.4301 161.106 251.058 11.9105 436.417 0.494634C652.075 -12.7962 745.586 244.592 745.586 430.689V430.68Z" fill="url(#paint0_linear_0_352_81)" opacity="1"/>
  </svg>
  <svg x="236.5" y="240.4" width="627.7" height="539.6" viewBox="0 0 741.921 772.067" preserveAspectRatio="none">
    <path d="M741.921 429.213C741.921 614.321 512.045 772.067 326.967 772.067C141.889 772.067 82.8917 592.593 17.736 419.9C-80.2077 160.322 251.037 11.3369 435.44 0.446675C648.628 -12.1432 741.921 244.097 741.921 429.204V429.213Z" fill="url(#paint0_linear_0_395_82)" opacity="1"/>
  </svg>
  <svg x="238.5" y="242.0" width="624.6" height="535.6" viewBox="0 0 738.269 766.475" preserveAspectRatio="none">
    <path d="M738.269 427.73C738.269 611.848 510.128 766.475 326.031 766.475C141.934 766.475 81.4911 588.972 17.2202 416.989C-78.9804 159.54 251.012 10.7567 434.46 0.400872C645.187 -11.4881 738.26 243.613 738.26 427.73H738.269Z" fill="url(#paint0_linear_0_364_83)" opacity="1"/>
  </svg>
  <svg x="240.6" y="243.5" width="621.5" height="531.7" viewBox="0 0 734.615 760.877" preserveAspectRatio="none">
    <path d="M734.606 426.251C734.606 609.378 508.191 760.877 325.093 760.877C141.995 760.877 80.0802 585.355 16.7115 414.081C-77.7546 158.752 250.993 10.1704 433.496 0.357835C641.752 -10.839 734.615 243.123 734.615 426.251H734.606Z" fill="url(#paint0_linear_0_347_84)" opacity="1"/>
  </svg>
  <svg x="242.6" y="245.0" width="618.4" height="527.9" viewBox="0 0 730.958 755.291" preserveAspectRatio="none">
    <path d="M730.958 424.782C730.958 606.928 506.268 755.291 324.16 755.291C142.051 755.291 78.674 581.739 16.2076 411.175C-76.5241 157.976 250.98 9.58639 432.528 0.316995C638.314 -10.1877 730.958 242.635 730.958 424.782Z" fill="url(#paint0_linear_0_353_85)" opacity="1"/>
  </svg>
  <svg x="244.6" y="246.6" width="615.4" height="523.9" viewBox="0 0 727.322 749.698" preserveAspectRatio="none">
    <path d="M727.314 423.307C727.314 604.463 504.349 749.698 323.231 749.698C142.113 749.698 77.2723 578.127 15.7082 408.272C-75.289 157.201 250.98 8.9963 431.573 0.278865C634.889 -9.54249 727.322 242.159 727.322 423.315L727.314 423.307Z" fill="url(#paint0_linear_0_346_86)" opacity="1"/>
  </svg>
  <svg x="246.6" y="248.1" width="612.3" height="520.0" viewBox="0 0 723.686 744.125" preserveAspectRatio="none">
    <path d="M723.686 421.851C723.686 602.018 502.456 744.125 322.319 744.125C142.182 744.125 75.8783 574.534 15.2164 405.38C-74.0551 156.438 250.979 8.41721 430.617 0.242971C631.462 -8.89501 723.677 241.677 723.677 421.843L723.686 421.851Z" fill="url(#paint0_linear_0_344_87)" opacity="1"/>
  </svg>
  <svg x="248.6" y="249.6" width="609.2" height="516.1" viewBox="0 0 720.057 738.545" preserveAspectRatio="none">
    <path d="M720.057 420.381C720.057 599.557 500.553 738.545 321.405 738.545C142.258 738.545 74.4829 570.934 14.7321 402.482C-72.8225 155.669 250.985 7.83162 429.677 0.209336C628.052 -8.24526 720.057 241.205 720.057 420.381Z" fill="url(#paint0_linear_0_343_88)" opacity="1"/>
  </svg>
  <svg x="250.7" y="251.1" width="606.1" height="512.2" viewBox="0 0 716.439 732.96" preserveAspectRatio="none">
    <path d="M716.43 418.913C716.43 597.099 498.652 732.96 320.494 732.96C142.337 732.96 73.0902 567.329 14.2504 399.586C-71.5785 154.911 250.994 7.23998 428.74 0.178413C624.653 -7.60157 716.439 240.727 716.439 418.913H716.43Z" fill="url(#paint0_linear_0_341_89)" opacity="1"/>
  </svg>
  <svg x="252.7" y="252.7" width="603.0" height="508.3" viewBox="0 0 712.811 727.386" preserveAspectRatio="none">
    <path d="M712.811 417.457C712.811 594.661 496.758 727.386 319.591 727.386C142.423 727.386 71.7047 563.734 13.7759 396.692C-70.336 154.146 251.019 6.64187 427.801 0.149787C621.244 -6.95558 712.811 240.252 712.811 417.457Z" fill="url(#paint0_linear_0_339_90)" opacity="1"/>
  </svg>
  <svg x="254.6" y="254.2" width="600.0" height="504.4" viewBox="0 0 709.208 721.814" preserveAspectRatio="none">
    <path d="M709.208 416.002C709.208 592.217 494.89 721.814 318.704 721.814C142.517 721.814 70.3271 560.142 13.3093 393.802C-69.0945 153.393 251.043 6.05519 426.879 0.123826C617.852 -6.31569 709.208 239.788 709.208 416.002Z" fill="url(#paint0_linear_0_333_91)" opacity="1"/>
  </svg>
  <svg x="256.6" y="255.7" width="597.0" height="500.5" viewBox="0 0 705.602 716.235" preserveAspectRatio="none">
    <path d="M705.602 414.542C705.602 589.767 493.01 716.235 317.813 716.235C142.616 716.235 68.946 556.544 12.848 390.913C-67.8476 152.633 251.072 5.45331 425.953 0.100195C614.456 -5.67346 705.602 239.317 705.602 414.542Z" fill="url(#paint0_linear_0_446_92)" opacity="1"/>
  </svg>
  <svg x="258.6" y="257.2" width="593.9" height="496.6" viewBox="0 0 702.004 710.677" preserveAspectRatio="none">
    <path d="M702.004 413.093C702.004 587.328 491.137 710.677 316.93 710.677C142.723 710.677 67.5639 552.966 12.3944 388.036C-66.6018 151.894 251.109 4.8716 425.044 0.0791984C611.077 -5.03737 702.004 238.858 702.004 413.093Z" fill="url(#paint0_linear_0_338_93)" opacity="1"/>
  </svg>
  <svg x="260.6" y="258.7" width="590.9" height="492.8" viewBox="0 0 698.411 705.113" preserveAspectRatio="none">
    <path d="M698.411 411.646C698.411 584.891 489.27 705.113 316.053 705.113C142.835 705.113 66.1869 549.39 11.946 385.152C-65.3508 151.148 251.16 4.26595 424.131 0.0605584C607.703 -4.39891 698.411 238.393 698.411 411.637V411.646Z" fill="url(#paint0_linear_0_271_94)" opacity="1"/>
  </svg>
  <svg x="262.5" y="260.2" width="587.9" height="488.9" viewBox="0 0 694.949 699.542" preserveAspectRatio="none">
    <path d="M694.949 410.193C694.949 582.457 487.542 699.542 315.306 699.542C143.07 699.542 64.617 545.905 11.6199 382.271C-64.4417 150.554 251.324 3.66291 423.35 0.0445201C604.451 -3.76662 694.94 237.93 694.94 410.193H694.949Z" fill="url(#paint0_linear_0_304_95)" opacity="1"/>
  </svg>
  <svg x="264.4" y="261.8" width="584.9" height="484.9" viewBox="0 0 691.35 693.983" preserveAspectRatio="none">
    <path d="M691.35 408.752C691.35 580.025 485.669 693.983 314.423 693.983C143.177 693.983 63.2699 542.317 11.1664 379.393C-63.1346 149.796 251.361 3.06225 422.441 0.0308627C601.071 -3.13195 691.35 237.478 691.35 408.752Z" fill="url(#paint0_linear_0_261_96)" opacity="1"/>
  </svg>
  <svg x="266.4" y="263.3" width="581.9" height="481.0" viewBox="0 0 687.76 688.423" preserveAspectRatio="none">
    <path d="M687.76 407.301C687.76 577.584 483.805 688.423 313.549 688.423C143.293 688.423 61.9399 538.728 10.7211 376.522C-61.8279 149.037 251.406 2.12812 421.531 0.0254254C597.692 -2.8395 687.76 237.026 687.76 407.309V407.301Z" fill="url(#paint0_linear_0_326_97)" opacity="1"/>
  </svg>
  <svg x="268.4" y="264.8" width="578.8" height="477.2" viewBox="0 0 684.174 682.874" preserveAspectRatio="none">
    <path d="M684.174 405.87C684.174 575.164 481.945 682.874 312.678 682.874C143.412 682.874 60.6051 535.151 10.2798 373.655C-60.5085 148.29 251.464 1.60016 420.634 0.0143748C594.333 -2.13213 684.174 236.577 684.174 405.87Z" fill="url(#paint0_linear_0_320_98)" opacity="1"/>
  </svg>
  <svg x="270.4" y="266.3" width="575.8" height="473.3" viewBox="0 0 680.597 677.32" preserveAspectRatio="none">
    <path d="M680.597 404.434C680.597 572.738 480.102 677.32 311.816 677.32C143.531 677.32 59.2878 531.568 9.84723 370.782C-59.189 147.528 251.522 1.06652 419.738 0.00640886C590.966 -1.42167 680.597 236.122 680.597 404.425V404.434Z" fill="url(#paint0_linear_0_317_99)" opacity="1"/>
  </svg>
  <svg x="272.3" y="267.8" width="572.8" height="469.4" viewBox="0 0 677.032 671.761" preserveAspectRatio="none">
    <path d="M677.032 402.993C677.032 570.315 478.263 671.761 310.968 671.761C143.672 671.761 57.9747 527.972 9.41893 367.912C-57.8566 146.77 251.593 0.527308 418.854 0.0016336C587.621 -0.716788 677.032 235.679 677.032 402.993Z" fill="url(#paint0_linear_0_424_100)" opacity="1"/>
  </svg>
  <svg x="274.3" y="269.3" width="569.8" height="465.5" viewBox="0 0 673.466 666.214" preserveAspectRatio="none">
    <path d="M673.466 401.563C673.466 567.895 476.422 666.214 310.117 666.214C143.811 666.214 56.6684 524.395 8.99738 365.046C-56.5175 146.024 251.671 0 417.968 0C584.265 0 673.457 235.231 673.457 401.563H673.466Z" fill="url(#paint0_linear_0_386_101)" opacity="1"/>
  </svg>
  <svg x="275.8" y="271.8" width="567.0" height="463.4" viewBox="0 0 670.159 663.103" preserveAspectRatio="none">
    <path d="M670.159 398.663C670.159 564.478 474.754 663.103 308.956 663.103C143.159 663.103 55.4991 521.837 8.76537 362.864C-55.4705 145.384 248.908 0 414.696 0C580.485 0 670.159 232.848 670.159 398.663Z" fill="url(#paint0_linear_0_442_102)" opacity="1"/>
  </svg>
  <svg x="277.4" y="274.3" width="564.2" height="461.2" viewBox="0 0 666.851 660.002" preserveAspectRatio="none">
    <path d="M666.843 395.772C666.843 561.079 473.066 660.002 307.794 660.002C142.523 660.002 54.3286 519.288 8.53212 360.692C-54.4161 144.762 246.143 0 411.423 0C576.704 0 666.851 230.464 666.851 395.772H666.843Z" fill="url(#paint0_linear_0_328_103)" opacity="1"/>
  </svg>
  <svg x="279.0" y="276.9" width="561.3" height="459.0" viewBox="0 0 663.544 656.892" preserveAspectRatio="none">
    <path d="M663.536 392.872C663.536 557.662 471.397 656.892 306.633 656.892C141.87 656.892 53.1588 516.729 8.29969 358.51C-53.3608 144.122 243.379 0 408.151 0C572.924 0 663.544 228.081 663.544 392.872H663.536Z" fill="url(#paint0_linear_0_368_104)" opacity="1"/>
  </svg>
  <svg x="280.6" y="279.4" width="558.5" height="456.8" viewBox="0 0 660.12 653.79" preserveAspectRatio="none">
    <path d="M660.12 389.98C660.12 554.262 469.619 653.79 305.364 653.79C141.108 653.79 52.2745 514.075 7.94974 356.328C-51.8975 143.334 240.497 0 404.753 0C569.009 0 660.111 225.698 660.111 389.98H660.12Z" fill="url(#paint0_linear_0_433_105)" opacity="1"/>
  </svg>
  <svg x="282.2" y="281.9" width="555.7" height="454.7" viewBox="0 0 656.789 650.68" preserveAspectRatio="none">
    <path d="M656.79 387.08C656.79 550.854 467.919 650.68 304.18 650.68C140.441 650.68 51.178 511.49 7.69418 354.147C-50.7515 142.668 237.719 0 401.458 0C565.197 0 656.79 223.315 656.79 387.08Z" fill="url(#paint0_linear_0_314_106)" opacity="1"/>
  </svg>
  <svg x="283.8" y="284.4" width="552.8" height="452.6" viewBox="0 0 653.461 647.578" preserveAspectRatio="none">
    <path d="M653.461 384.189C653.461 547.446 466.228 647.578 302.997 647.578C139.766 647.578 50.0742 508.914 7.44012 351.974C-49.604 142.011 234.933 0 398.164 0C561.395 0 653.461 220.932 653.461 384.189Z" fill="url(#paint0_linear_0_311_107)" opacity="1"/>
  </svg>
  <svg x="285.4" y="286.9" width="550.0" height="450.4" viewBox="0 0 650.133 644.468" preserveAspectRatio="none">
    <path d="M650.133 381.289C650.133 544.038 464.539 644.468 301.816 644.468C139.093 644.468 48.9718 506.338 7.18742 349.793C-48.4551 141.345 232.149 0 394.872 0C557.594 0 650.133 218.549 650.133 381.289Z" fill="url(#paint0_linear_0_305_108)" opacity="1"/>
  </svg>
  <svg x="286.9" y="289.5" width="547.2" height="448.2" viewBox="0 0 646.809 641.358" preserveAspectRatio="none">
    <path d="M646.809 378.389C646.809 540.621 462.844 641.358 300.638 641.358C138.432 641.358 47.8728 503.763 6.93806 347.611C-47.3116 140.688 229.368 0 391.574 0C553.78 0 646.809 216.166 646.809 378.398V378.389Z" fill="url(#paint0_linear_0_252_109)" opacity="1"/>
  </svg>
  <svg x="288.5" y="292.0" width="544.4" height="446.0" viewBox="0 0 643.497 638.257" preserveAspectRatio="none">
    <path d="M643.497 375.498C643.497 537.222 461.17 638.257 299.472 638.257C137.774 638.257 46.7858 501.196 6.69205 345.43C-46.1736 140.031 226.59 0 388.288 0C549.986 0 643.488 213.774 643.488 375.498H643.497Z" fill="url(#paint0_linear_0_240_110)" opacity="1"/>
  </svg>
  <svg x="290.1" y="294.5" width="541.6" height="443.9" viewBox="0 0 640.178 635.146" preserveAspectRatio="none">
    <path d="M640.178 372.607C640.178 533.814 459.489 635.146 298.299 635.146C137.109 635.146 45.6827 498.62 6.44735 343.248C-45.0342 139.374 223.823 0 385.004 0C546.185 0 640.169 211.391 640.169 372.607H640.178Z" fill="url(#paint0_linear_0_302_111)" opacity="1"/>
  </svg>
  <svg x="291.6" y="297.0" width="538.8" height="441.7" viewBox="0 0 636.86 632.045" preserveAspectRatio="none">
    <path d="M636.86 369.716C636.86 530.414 457.8 632.045 297.127 632.045C136.454 632.045 44.5813 496.062 6.2044 341.075C-43.8931 138.726 221.048 0 381.721 0C542.394 0 636.86 209.008 636.86 369.707V369.716Z" fill="url(#paint0_linear_0_256_112)" opacity="1"/>
  </svg>
  <svg x="293.2" y="299.6" width="536.0" height="439.5" viewBox="0 0 633.548 628.935" preserveAspectRatio="none">
    <path d="M633.539 366.816C633.539 526.998 456.117 628.935 295.961 628.935C135.805 628.935 43.4764 493.486 5.96677 338.894C-42.7642 138.077 218.279 0 378.444 0C538.609 0 633.548 206.625 633.548 366.816H633.539Z" fill="url(#paint0_linear_0_379_113)" opacity="1"/>
  </svg>
  <svg x="294.8" y="302.1" width="533.2" height="437.3" viewBox="0 0 630.228 625.824" preserveAspectRatio="none">
    <path d="M630.228 363.916C630.228 523.589 454.445 625.824 294.797 625.824C135.149 625.824 42.3732 490.919 5.73079 336.712C-41.6337 137.42 215.511 0 375.159 0C534.808 0 630.228 204.242 630.228 363.916Z" fill="url(#paint0_linear_0_300_114)" opacity="1"/>
  </svg>
  <svg x="296.3" y="304.6" width="530.4" height="435.2" viewBox="0 0 626.928 622.723" preserveAspectRatio="none">
    <path d="M626.928 361.025C626.928 520.19 452.774 622.723 293.643 622.723C134.511 622.723 41.2805 488.36 5.49653 334.531C-40.5014 136.772 212.746 0 371.886 0C531.026 0 626.928 201.859 626.928 361.025Z" fill="url(#paint0_linear_0_422_115)" opacity="1"/>
  </svg>
  <svg x="297.9" y="307.1" width="527.6" height="433.0" viewBox="0 0 623.623 619.621" preserveAspectRatio="none">
    <path d="M623.623 358.133C623.623 516.782 451.106 619.621 292.483 619.621C133.86 619.621 40.1737 485.802 5.26571 332.358C-39.3744 136.141 209.992 0 368.615 0C527.238 0 623.623 199.476 623.623 358.125V358.133Z" fill="url(#paint0_linear_0_458_116)" opacity="1"/>
  </svg>
  <svg x="299.4" y="309.7" width="524.8" height="430.8" viewBox="0 0 620.321 616.511" preserveAspectRatio="none">
    <path d="M620.321 355.233C620.321 513.374 449.443 616.511 291.328 616.511C133.213 616.511 39.0707 483.235 5.03868 330.176C-38.2524 135.493 207.233 0 365.348 0C523.463 0 620.321 197.093 620.321 355.233Z" fill="url(#paint0_linear_0_431_117)" opacity="1"/>
  </svg>
  <svg x="301.0" y="312.2" width="522.0" height="428.6" viewBox="0 0 617.021 613.401" preserveAspectRatio="none">
    <path d="M617.021 352.333C617.021 509.957 447.772 613.401 290.174 613.401C132.576 613.401 37.9696 480.677 4.81358 327.995C-37.1285 134.853 204.477 0 362.075 0C519.673 0 617.021 194.71 617.021 352.333Z" fill="url(#paint0_linear_0_342_118)" opacity="1"/>
  </svg>
  <svg x="302.5" y="314.7" width="519.3" height="426.5" viewBox="0 0 613.725 610.291" preserveAspectRatio="none">
    <path d="M613.725 349.433C613.725 506.549 446.114 610.291 289.024 610.291C131.934 610.291 36.8635 478.11 4.59222 325.813C-36.0096 134.213 201.724 0 358.814 0C515.904 0 613.725 192.327 613.725 349.442V349.433Z" fill="url(#paint0_linear_0_298_119)" opacity="1"/>
  </svg>
  <svg x="304.1" y="317.2" width="516.4" height="424.3" viewBox="0 0 610.44 607.189" preserveAspectRatio="none">
    <path d="M610.44 346.542C610.44 503.141 444.467 607.189 287.885 607.189C131.303 607.189 35.7681 475.56 4.37281 323.632C-34.8888 133.574 198.981 0 355.555 0C512.128 0 610.431 189.944 610.431 346.542H610.44Z" fill="url(#paint0_linear_0_297_120)" opacity="1"/>
  </svg>
  <svg x="305.6" y="319.7" width="513.7" height="422.2" viewBox="0 0 607.151 604.088" preserveAspectRatio="none">
    <path d="M607.151 343.66C607.151 499.75 442.808 604.088 286.743 604.088C130.677 604.088 34.6608 473.011 4.15909 321.459C-33.7798 132.952 196.236 0 352.301 0C508.367 0 607.151 187.561 607.151 343.651V343.66Z" fill="url(#paint0_linear_0_296_121)" opacity="1"/>
  </svg>
  <svg x="307.2" y="322.3" width="510.9" height="419.9" viewBox="0 0 603.863 600.977" preserveAspectRatio="none">
    <path d="M603.863 340.76C603.863 496.342 441.158 600.977 285.601 600.977C130.044 600.977 33.5542 470.452 3.94595 319.277C-32.6614 132.312 193.491 0 349.04 0C504.588 0 603.855 185.178 603.855 340.751L603.863 340.76Z" fill="url(#paint0_linear_0_420_122)" opacity="1"/>
  </svg>
  <svg x="308.7" y="324.8" width="508.1" height="417.8" viewBox="0 0 600.573 597.867" preserveAspectRatio="none">
    <path d="M600.573 337.86C600.573 492.925 439.505 597.867 284.465 597.867C129.425 597.867 32.4445 467.894 3.73847 317.096C-31.5549 131.681 190.752 0 345.793 0C500.833 0 600.573 182.795 600.573 337.86Z" fill="url(#paint0_linear_0_295_123)" opacity="1"/>
  </svg>
  <svg x="310.3" y="327.3" width="505.3" height="415.6" viewBox="0 0 597.302 594.757" preserveAspectRatio="none">
    <path d="M597.293 334.96C597.293 489.517 437.855 594.757 283.331 594.757C128.808 594.757 31.3372 465.345 3.53342 314.914C-30.446 131.051 188.016 0 342.548 0C497.08 0 597.302 180.412 597.302 334.96H597.293Z" fill="url(#paint0_linear_0_272_124)" opacity="1"/>
  </svg>
  <svg x="311.8" y="329.8" width="502.5" height="413.5" viewBox="0 0 594.026 591.656" preserveAspectRatio="none">
    <path d="M594.017 332.069C594.017 486.109 436.217 591.656 282.202 591.656C128.186 591.656 30.2251 462.795 3.33242 312.741C-29.3418 130.429 185.292 0 339.307 0C493.323 0 594.026 178.028 594.026 332.069H594.017Z" fill="url(#paint0_linear_0_308_125)" opacity="1"/>
  </svg>
  <svg x="313.3" y="332.4" width="499.8" height="411.3" viewBox="0 0 590.754 588.554" preserveAspectRatio="none">
    <path d="M590.754 329.177C590.754 482.709 434.593 588.554 281.085 588.554C127.578 588.554 29.1174 460.254 3.13576 310.56C-28.242 129.807 182.564 0 336.071 0C489.578 0 590.754 175.645 590.754 329.169V329.177Z" fill="url(#paint0_linear_0_316_126)" opacity="1"/>
  </svg>
  <svg x="314.8" y="334.9" width="497.1" height="409.1" viewBox="0 0 587.486 585.444" preserveAspectRatio="none">
    <path d="M587.486 326.277C587.486 479.293 432.954 585.444 279.963 585.444C126.972 585.444 28.0126 457.705 2.9419 308.378C-27.1394 129.176 179.838 0 332.829 0C485.819 0 587.486 173.262 587.486 326.277Z" fill="url(#paint0_linear_0_288_127)" opacity="1"/>
  </svg>
  <svg x="316.4" y="337.4" width="494.2" height="407.0" viewBox="0 0 584.222 582.334" preserveAspectRatio="none">
    <path d="M584.222 323.377C584.222 475.884 431.328 582.334 278.845 582.334C126.363 582.334 26.8946 455.147 2.75247 306.197C-26.0411 128.554 177.117 0 329.6 0C482.082 0 584.222 170.871 584.222 323.377Z" fill="url(#paint0_linear_0_390_128)" opacity="1"/>
  </svg>
  <svg x="317.9" y="339.9" width="491.5" height="404.8" viewBox="0 0 580.962 579.223" preserveAspectRatio="none">
    <path d="M580.962 320.478C580.962 472.468 429.706 579.223 277.732 579.223C125.757 579.223 25.7812 452.606 2.56759 304.015C-24.9471 127.923 174.401 0 326.375 0C478.349 0 580.962 168.487 580.962 320.486V320.478Z" fill="url(#paint0_linear_0_286_129)" opacity="1"/>
  </svg>
  <svg x="319.4" y="342.5" width="488.8" height="402.6" viewBox="0 0 577.714 576.122" preserveAspectRatio="none">
    <path d="M577.706 317.586C577.706 469.068 428.079 576.122 276.621 576.122C125.164 576.122 24.6709 450.065 2.38584 301.842C-23.8499 127.31 171.696 0 323.154 0C474.611 0 577.714 166.104 577.714 317.586H577.706Z" fill="url(#paint0_linear_0_423_130)" opacity="1"/>
  </svg>
  <svg x="320.9" y="345.0" width="486.0" height="400.4" viewBox="0 0 574.464 573.02" preserveAspectRatio="none">
    <path d="M574.464 314.695C574.464 465.669 426.476 573.02 275.526 573.02C124.577 573.02 23.5581 447.524 2.21039 299.661C-22.7639 126.688 168.989 0 319.93 0C470.87 0 574.456 163.721 574.456 314.695H574.464Z" fill="url(#paint0_linear_0_284_131)" opacity="1"/>
  </svg>
  <svg x="322.4" y="347.5" width="483.3" height="398.3" viewBox="0 0 571.218 569.91" preserveAspectRatio="none">
    <path d="M571.218 311.804C571.218 462.261 424.867 569.91 274.426 569.91C123.984 569.91 22.4401 444.975 2.03846 297.479C-21.6744 126.074 166.285 0 316.718 0C467.151 0 571.209 161.338 571.209 311.795L571.218 311.804Z" fill="url(#paint0_linear_0_393_132)" opacity="1"/>
  </svg>
  <svg x="323.9" y="350.0" width="480.5" height="396.1" viewBox="0 0 567.967 566.8" preserveAspectRatio="none">
    <path d="M567.967 308.904C567.967 458.853 423.246 566.8 273.33 566.8C123.414 566.8 21.3272 442.434 1.87161 295.298C-20.5886 125.452 163.587 0 313.512 0C463.436 0 567.967 158.955 567.967 308.904Z" fill="url(#paint0_linear_0_349_133)" opacity="1"/>
  </svg>
  <svg x="325.4" y="352.6" width="477.8" height="393.9" viewBox="0 0 564.739 563.698" preserveAspectRatio="none">
    <path d="M564.73 306.013C564.73 455.444 421.647 563.698 272.239 563.698C122.831 563.698 20.2007 439.893 1.70871 293.125C-19.4989 124.839 160.893 0 310.309 0C459.726 0 564.739 156.572 564.739 306.004L564.73 306.013Z" fill="url(#paint0_linear_0_283_134)" opacity="1"/>
  </svg>
  <svg x="326.9" y="355.1" width="475.1" height="391.7" viewBox="0 0 561.499 560.588" preserveAspectRatio="none">
    <path d="M561.499 303.113C561.499 452.036 420.054 560.588 271.154 560.588C122.254 560.588 19.0809 437.352 1.55245 290.943C-18.42 124.226 158.213 0 307.104 0C455.995 0 561.499 154.189 561.499 303.113Z" fill="url(#paint0_linear_0_399_135)" opacity="1"/>
  </svg>
  <svg x="328.4" y="357.6" width="472.3" height="389.6" viewBox="0 0 558.281 557.487" preserveAspectRatio="none">
    <path d="M558.281 300.221C558.281 448.628 418.465 557.487 270.082 557.487C121.7 557.487 17.9742 434.812 1.40063 288.762C-17.3367 123.604 155.53 0 303.913 0C452.296 0 558.272 151.806 558.272 300.213L558.281 300.221Z" fill="url(#paint0_linear_0_282_136)" opacity="1"/>
  </svg>
  <svg x="329.9" y="360.1" width="469.6" height="387.4" viewBox="0 0 555.06 554.376" preserveAspectRatio="none">
    <path d="M555.06 297.322C555.06 445.22 416.883 554.376 269.008 554.376C121.133 554.376 16.8472 432.271 1.25467 286.58C-16.2562 122.982 152.852 0 300.727 0C448.602 0 555.06 149.423 555.06 297.322Z" fill="url(#paint0_linear_0_385_137)" opacity="1"/>
  </svg>
  <svg x="331.4" y="362.7" width="466.8" height="385.2" viewBox="0 0 551.845 551.266" preserveAspectRatio="none">
    <path d="M551.845 294.422C551.845 441.812 415.305 551.266 267.938 551.266C120.572 551.266 15.7251 429.721 1.11368 284.399C-15.1709 122.368 150.18 0 297.547 0C444.913 0 551.845 147.04 551.845 294.422Z" fill="url(#paint0_linear_0_280_138)" opacity="1"/>
  </svg>
  <svg x="332.8" y="365.2" width="464.2" height="383.0" viewBox="0 0 548.637 548.165" preserveAspectRatio="none">
    <path d="M548.637 291.53C548.637 438.404 413.726 548.165 266.876 548.165C120.026 548.165 14.6017 427.189 0.980152 282.226C-14.0955 121.755 147.515 0 294.373 0C441.232 0 548.637 144.657 548.637 291.53Z" fill="url(#paint0_linear_0_279_139)" opacity="1"/>
  </svg>
  <svg x="334.3" y="367.7" width="461.5" height="380.9" viewBox="0 0 545.435 545.054" preserveAspectRatio="none">
    <path d="M545.435 288.63C545.435 434.996 412.163 545.054 265.821 545.054C119.479 545.054 13.4761 424.649 0.853176 280.044C-13.0224 121.142 144.865 0 291.198 0C437.531 0 545.435 142.274 545.435 288.63Z" fill="url(#paint0_linear_0_306_140)" opacity="1"/>
  </svg>
  <svg x="335.8" y="370.2" width="458.7" height="378.7" viewBox="0 0 542.239 541.944" preserveAspectRatio="none">
    <path d="M542.239 285.73C542.239 431.579 410.605 541.944 264.771 541.944C118.937 541.944 12.3477 422.099 0.732195 277.863C-11.9433 120.52 142.212 0 288.037 0C433.862 0 542.239 139.891 542.239 285.739V285.73Z" fill="url(#paint0_linear_0_276_141)" opacity="1"/>
  </svg>
  <svg x="337.2" y="372.7" width="456.1" height="376.6" viewBox="0 0 539.06 538.843" preserveAspectRatio="none">
    <path d="M539.06 282.839C539.06 428.179 409.055 538.843 263.738 538.843C118.421 538.843 11.2267 419.567 0.618557 275.681C-10.8656 119.906 139.567 0 284.884 0C430.201 0 539.051 137.508 539.051 282.839H539.06Z" fill="url(#paint0_linear_0_274_142)" opacity="1"/>
  </svg>
  <svg x="338.7" y="375.3" width="453.4" height="374.3" viewBox="0 0 535.879 535.741" preserveAspectRatio="none">
    <path d="M535.87 279.957C535.87 424.78 407.504 535.741 262.703 535.741C117.903 535.741 10.1047 417.035 0.512644 273.508C-9.78893 119.293 136.93 0 281.739 0C426.547 0 535.879 135.125 535.879 279.948L535.87 279.957Z" fill="url(#paint0_linear_0_324_143)" opacity="1"/>
  </svg>
  <svg x="340.1" y="377.8" width="450.7" height="372.2" viewBox="0 0 532.698 532.631" preserveAspectRatio="none">
    <path d="M532.698 277.057C532.698 421.372 405.969 532.631 261.677 532.631C117.385 532.631 8.97325 414.486 0.414883 271.327C-8.71287 118.671 134.3 0 278.592 0C422.884 0 532.698 132.742 532.698 277.057Z" fill="url(#paint0_linear_0_273_144)" opacity="1"/>
  </svg>
  <svg x="341.6" y="380.3" width="448.0" height="370.1" viewBox="0 0 529.533 529.521" preserveAspectRatio="none">
    <path d="M529.533 274.157C529.533 417.955 404.434 529.521 260.659 529.521C116.883 529.521 7.841 411.936 0.325057 269.145C-7.62888 118.049 131.688 0 275.463 0C419.238 0 529.533 130.359 529.533 274.157Z" fill="url(#paint0_linear_0_292_145)" opacity="1"/>
  </svg>
  <svg x="343.0" y="382.8" width="445.3" height="367.9" viewBox="0 0 526.387 526.411" preserveAspectRatio="none">
    <path d="M526.379 271.257C526.379 414.547 402.917 526.411 259.65 526.411C116.383 526.411 6.71871 409.395 0.245189 266.964C-6.55245 117.427 129.076 0 272.343 0C415.61 0 526.387 127.967 526.387 271.266L526.379 271.257Z" fill="url(#paint0_linear_0_269_146)" opacity="1"/>
  </svg>
  <svg x="344.4" y="385.4" width="442.7" height="365.7" viewBox="0 0 523.242 523.309" preserveAspectRatio="none">
    <path d="M523.242 268.366C523.242 411.148 401.419 523.309 258.66 523.309C115.901 523.309 5.59693 406.855 0.174594 264.782C-5.46674 116.805 126.474 0 269.233 0C411.992 0 523.242 125.584 523.242 268.366Z" fill="url(#paint0_linear_0_267_147)" opacity="1"/>
  </svg>
  <svg x="345.8" y="387.9" width="440.1" height="363.5" viewBox="0 0 520.108 520.208" preserveAspectRatio="none">
    <path d="M520.108 265.474C520.108 407.739 399.914 520.208 257.672 520.208C115.43 520.208 4.46874 404.314 0.115103 262.61C-4.38745 116.192 123.883 0 266.125 0C408.367 0 520.099 123.201 520.099 265.474H520.108Z" fill="url(#paint0_linear_0_419_148)" opacity="1"/>
  </svg>
  <svg x="347.2" y="390.4" width="437.4" height="361.4" viewBox="0 0 516.985 517.097" preserveAspectRatio="none">
    <path d="M516.985 262.574C516.985 404.331 398.429 517.097 256.695 517.097C114.961 517.097 3.35151 401.764 0.0665669 260.428C-3.29721 115.561 121.312 0 263.037 0C404.762 0 516.985 120.818 516.985 262.574Z" fill="url(#paint0_linear_0_265_149)" opacity="1"/>
  </svg>
  <svg x="348.6" y="392.9" width="434.8" height="359.2" viewBox="0 0 513.874 513.987" preserveAspectRatio="none">
    <path d="M513.874 259.675C513.874 400.915 396.956 513.987 255.73 513.987C114.504 513.987 2.22918 399.206 0.0304574 258.246C-2.2033 114.93 118.744 0 259.961 0C401.178 0 513.874 118.435 513.874 259.683V259.675Z" fill="url(#paint0_linear_0_262_150)" opacity="1"/>
  </svg>
  <svg x="350.0" y="395.5" width="432.1" height="357.0" viewBox="0 0 510.779 510.877" preserveAspectRatio="none">
    <path d="M510.779 256.775C510.779 397.506 395.491 510.877 254.782 510.877C114.072 510.877 0.93903 396.657 0.0104872 256.065C-1.27721 114.299 116.192 0 256.901 0C397.611 0 510.779 116.051 510.779 256.783V256.775Z" fill="url(#paint0_linear_0_260_151)" opacity="1"/>
  </svg>
  <svg x="351.4" y="398.0" width="429.5" height="354.8" viewBox="0 0 507.703 507.784" preserveAspectRatio="none">
    <path d="M253.851 507.784C394.05 507.784 507.703 394.113 507.703 253.892C507.703 113.671 394.05 0 253.851 0C113.653 0 0 113.671 0 253.892C0 394.113 113.653 507.784 253.851 507.784Z" fill="url(#paint0_linear_0_435_152)" opacity="1"/>
  </svg>

</svg>