<svg preserveAspectRatio="none" width="100%" height="100%" overflow="visible" style="display: block;" viewBox="0 0 2342.79 1619" fill="none" xmlns="http://www.w3.org/2000/svg">
<g id="Vector 4353" filter="url(#filter0_f_0_4)">
<path d="M404.509 927.652L313.25 698.702C247.961 534.905 445.982 773.155 430.51 659.842C415.039 546.529 484.359 640.23 517.151 744.827C549.942 849.424 510.962 651.126 532.622 572.678C554.282 494.231 504.773 773.155 554.282 707.782C603.791 642.409 585.225 762.26 634.734 744.827C684.243 727.394 671.866 720.857 749.223 812.38C826.581 903.902 817.298 786.231 863.712 607.544C910.127 428.856 866.807 679.455 1040.09 773.155C1213.37 866.856 947.258 698.702 1163.86 389.635C1380.46 80.5682 1371.18 659.843 1371.18 786.231C1371.18 912.619 1538.27 760.081 1541.36 679.455C1544.46 598.828 1559.93 757.902 1692.98 812.38C1826.04 866.857 1730.12 698.702 1928.15 698.702C2126.19 698.702 2005.51 1128.35 2014.79 1185.01C2024.08 1241.66 1832.23 1269.99 1804.38 1097.84C1776.53 925.693 1559.93 1015.04 1559.93 1167.57C1559.93 1320.11 1498.04 1298.32 1371.18 1078.23C1244.31 858.141 1231.75 1028.31 1080.13 1257.12C928.506 1485.92 947.258 1008.5 947.258 982.349C947.258 956.2 848.241 927.652 773.978 1167.57C699.714 1407.49 780.166 1028.11 705.903 912.618C640.21 810.454 635.05 962.36 634.734 1013.87V1028.11C634.734 1025.6 634.693 1020.59 634.734 1013.87V927.652C634.734 899.584 581.099 872.522 554.282 862.499L484.359 927.652V835.269L404.509 927.652Z" fill="url(#paint0_linear_0_4)"/>
</g>
<defs>
<filter id="filter0_f_0_4" x="-3.128e-07" y="-4.64317e-07" width="2342.79" height="1619" filterUnits="userSpaceOnUse" color-interpolation-filters="sRGB">
<feFlood flood-opacity="0" result="BackgroundImageFix"/>
<feBlend mode="normal" in="SourceGraphic" in2="BackgroundImageFix" result="shape"/>
<feGaussianBlur stdDeviation="150" result="effect1_foregroundBlur_0_4"/>
</filter>
<linearGradient id="paint0_linear_0_4" x1="846.128" y1="771.395" x2="1452.56" y2="292.424" gradientUnits="userSpaceOnUse">
<stop stop-color="#2569F4"/>
<stop offset="1" stop-color="#0053FF"/>
</linearGradient>
</defs>
</svg>
